<?xml version="1.0" encoding="UTF-8" standalone="no"?>
<!DOCTYPE svg PUBLIC "-//W3C//DTD SVG 1.1//EN"
 "http://www.w3.org/Graphics/SVG/1.1/DTD/svg11.dtd">
<!-- Generated by graphviz version 2.38.0 (20140413.2041)
 -->
<!-- Title: parser::ASTNode Pages: 1 -->
<!--zoomable 484 -->
<svg id="main" version="1.1" xmlns="http://www.w3.org/2000/svg" xmlns:xlink="http://www.w3.org/1999/xlink" xml:space="preserve" onload="init(evt)">
<style type="text/css"><![CDATA[
.edge:hover path { stroke: red; }
.edge:hover polygon { stroke: red; fill: red; }
]]></style>
<script type="text/javascript"><![CDATA[
var edges = document.getElementsByTagName('g');
if (edges && edges.length) {
  for (var i=0;i<edges.length;i++) {
    if (edges[i].id.substr(0,4)=='edge') {
      edges[i].setAttribute('class','edge');
    }
  }
}
]]></script>
        <defs>
                <circle id="rim" cx="0" cy="0" r="7"/>
                <circle id="rim2" cx="0" cy="0" r="3.5"/>
                <g id="zoomPlus">
                        <use xlink:href="#rim" fill="#404040">
                                <set attributeName="fill" to="#808080" begin="zoomplus.mouseover" end="zoomplus.mouseout"/>
                        </use>
                        <path d="M-4,0h8M0,-4v8" fill="none" stroke="white" stroke-width="1.5" pointer-events="none"/>
                </g>
                <g id="zoomMin">
                        <use xlink:href="#rim" fill="#404040">
                                <set attributeName="fill" to="#808080" begin="zoomminus.mouseover" end="zoomminus.mouseout"/>
                        </use>
                        <path d="M-4,0h8" fill="none" stroke="white" stroke-width="1.5" pointer-events="none"/>
                </g>
                <g id="dirArrow">
                        <path fill="none" stroke="white" stroke-width="1.5" d="M0,-3.0v7 M-2.5,-0.5L0,-3.0L2.5,-0.5"/>
                </g>
               <g id="resetDef">
                       <use xlink:href="#rim2" fill="#404040">
                               <set attributeName="fill" to="#808080" begin="reset.mouseover" end="reset.mouseout"/>
                       </use>
               </g>
        </defs>

<script type="text/javascript">
var viewWidth = 480;
var viewHeight = 484;
var sectionId = 'dynsection-0';
</script>
<script xlink:href="../../svgpan.js"/>
<svg id="graph" class="graph">
<g id="viewport">
<title>parser::ASTNode</title>
<polygon fill="white" stroke="none" points="-4,4 -4,-480 476,-480 476,4 -4,4"/>
<!-- Node1 -->
<g id="node1" class="node"><title>Node1</title>
<polygon fill="#bfbfbf" stroke="black" points="0,-247.5 0,-266.5 92,-266.5 92,-247.5 0,-247.5"/>
<text text-anchor="middle" x="46" y="-254.5" font-family="Helvetica,sans-Serif" font-size="10.00">parser::ASTNode</text>
</g>
<!-- Node2 -->
<g id="node2" class="node"><title>Node2</title>
<g id="a_node2"><a xlink:href="../../da/d6d/classparser_1_1_a_s_t_expr_node.html" target="_top" xlink:title="parser::ASTExprNode">
<polygon fill="white" stroke="black" points="140,-361.5 140,-380.5 253,-380.5 253,-361.5 140,-361.5"/>
<text text-anchor="middle" x="196.5" y="-368.5" font-family="Helvetica,sans-Serif" font-size="10.00">parser::ASTExprNode</text>
</a>
</g>
</g>
<!-- Node1&#45;&gt;Node2 -->
<g id="edge1" class="edge"><title>Node1&#45;&gt;Node2</title>
<path fill="none" stroke="midnightblue" d="M67.4194,-272.675C98.5801,-296.597 157.089,-341.512 182.815,-361.262"/>
<polygon fill="midnightblue" stroke="midnightblue" points="69.4691,-269.837 59.4056,-266.523 65.2065,-275.389 69.4691,-269.837"/>
</g>
<!-- Node8 -->
<g id="node8" class="node"><title>Node8</title>
<g id="a_node8"><a xlink:href="../../d5/db5/classparser_1_1_a_s_t_program_node.html" target="_top" xlink:title="parser::ASTProgramNode">
<polygon fill="white" stroke="black" points="132,-247.5 132,-266.5 261,-266.5 261,-247.5 132,-247.5"/>
<text text-anchor="middle" x="196.5" y="-254.5" font-family="Helvetica,sans-Serif" font-size="10.00">parser::ASTProgramNode</text>
</a>
</g>
</g>
<!-- Node1&#45;&gt;Node8 -->
<g id="edge7" class="edge"><title>Node1&#45;&gt;Node8</title>
<path fill="none" stroke="midnightblue" d="M102.525,-257C112.08,-257 122.079,-257 131.829,-257"/>
<polygon fill="midnightblue" stroke="midnightblue" points="102.362,-253.5 92.3618,-257 102.362,-260.5 102.362,-253.5"/>
</g>
<!-- Node9 -->
<g id="node9" class="node"><title>Node9</title>
<g id="a_node9"><a xlink:href="../../d6/d89/classparser_1_1_a_s_t_statement_node.html" target="_top" xlink:title="parser::ASTStatementNode">
<polygon fill="white" stroke="black" points="128,-152.5 128,-171.5 265,-171.5 265,-152.5 128,-152.5"/>
<text text-anchor="middle" x="196.5" y="-159.5" font-family="Helvetica,sans-Serif" font-size="10.00">parser::ASTStatementNode</text>
</a>
</g>
</g>
<!-- Node1&#45;&gt;Node9 -->
<g id="edge8" class="edge"><title>Node1&#45;&gt;Node9</title>
<path fill="none" stroke="midnightblue" d="M70.8752,-241.726C101.74,-221.981 154.582,-188.176 180.404,-171.657"/>
<polygon fill="midnightblue" stroke="midnightblue" points="68.5938,-239.031 62.0562,-247.368 72.3661,-244.927 68.5938,-239.031"/>
</g>
<!-- Node3 -->
<g id="node3" class="node"><title>Node3</title>
<g id="a_node3"><a xlink:href="../../df/d07/classparser_1_1_a_s_t_binary_expr_node.html" target="_top" xlink:title="parser::ASTBinaryExprNode">
<polygon fill="white" stroke="black" points="316.5,-456.5 316.5,-475.5 456.5,-475.5 456.5,-456.5 316.5,-456.5"/>
<text text-anchor="middle" x="386.5" y="-463.5" font-family="Helvetica,sans-Serif" font-size="10.00">parser::ASTBinaryExprNode</text>
</a>
</g>
</g>
<!-- Node2&#45;&gt;Node3 -->
<g id="edge2" class="edge"><title>Node2&#45;&gt;Node3</title>
<path fill="none" stroke="midnightblue" d="M214.924,-387.363C234.406,-404.756 267.625,-431.804 301,-447 309.484,-450.863 318.816,-453.97 328.086,-456.459"/>
<polygon fill="midnightblue" stroke="midnightblue" points="217.205,-384.706 207.455,-380.562 212.493,-389.882 217.205,-384.706"/>
</g>
<!-- Node4 -->
<g id="node4" class="node"><title>Node4</title>
<g id="a_node4"><a xlink:href="../../d5/de6/classparser_1_1_a_s_t_function_call_node.html" target="_top" xlink:title="parser::ASTFunctionCallNode">
<polygon fill="white" stroke="black" points="313,-418.5 313,-437.5 460,-437.5 460,-418.5 313,-418.5"/>
<text text-anchor="middle" x="386.5" y="-425.5" font-family="Helvetica,sans-Serif" font-size="10.00">parser::ASTFunctionCallNode</text>
</a>
</g>
</g>
<!-- Node2&#45;&gt;Node4 -->
<g id="edge3" class="edge"><title>Node2&#45;&gt;Node4</title>
<path fill="none" stroke="midnightblue" d="M230.4,-384.331C250.56,-392.185 277.016,-401.934 301,-409 312.827,-412.485 325.747,-415.686 337.847,-418.429"/>
<polygon fill="midnightblue" stroke="midnightblue" points="231.635,-381.055 221.048,-380.648 229.07,-387.569 231.635,-381.055"/>
</g>
<!-- Node5 -->
<g id="node5" class="node"><title>Node5</title>
<g id="a_node5"><a xlink:href="../../dc/db0/classparser_1_1_a_s_t_identifier_node.html" target="_top" xlink:title="parser::ASTIdentifierNode">
<polygon fill="white" stroke="black" points="321.5,-380.5 321.5,-399.5 451.5,-399.5 451.5,-380.5 321.5,-380.5"/>
<text text-anchor="middle" x="386.5" y="-387.5" font-family="Helvetica,sans-Serif" font-size="10.00">parser::ASTIdentifierNode</text>
</a>
</g>
</g>
<!-- Node2&#45;&gt;Node5 -->
<g id="edge4" class="edge"><title>Node2&#45;&gt;Node5</title>
<path fill="none" stroke="midnightblue" d="M263.145,-377.634C282.035,-379.543 302.611,-381.623 321.406,-383.522"/>
<polygon fill="midnightblue" stroke="midnightblue" points="263.444,-374.147 253.143,-376.624 262.74,-381.111 263.444,-374.147"/>
</g>
<!-- Node6 -->
<g id="node6" class="node"><title>Node6</title>
<g id="a_node6"><a xlink:href="../../d4/d9a/classparser_1_1_a_s_t_literal_node.html" target="_top" xlink:title="parser::ASTLiteralNode\&lt; T \&gt;">
<polygon fill="white" stroke="black" points="315,-342.5 315,-361.5 458,-361.5 458,-342.5 315,-342.5"/>
<text text-anchor="middle" x="386.5" y="-349.5" font-family="Helvetica,sans-Serif" font-size="10.00">parser::ASTLiteralNode&lt; T &gt;</text>
</a>
</g>
</g>
<!-- Node2&#45;&gt;Node6 -->
<g id="edge5" class="edge"><title>Node2&#45;&gt;Node6</title>
<path fill="none" stroke="midnightblue" d="M263.348,-364.345C280.043,-362.658 298.042,-360.839 314.959,-359.129"/>
<polygon fill="midnightblue" stroke="midnightblue" points="262.74,-360.889 253.143,-365.376 263.444,-367.853 262.74,-360.889"/>
</g>
<!-- Node7 -->
<g id="node7" class="node"><title>Node7</title>
<g id="a_node7"><a xlink:href="../../dc/d52/classparser_1_1_a_s_t_unary_expr_node.html" target="_top" xlink:title="parser::ASTUnaryExprNode">
<polygon fill="white" stroke="black" points="317,-304.5 317,-323.5 456,-323.5 456,-304.5 317,-304.5"/>
<text text-anchor="middle" x="386.5" y="-311.5" font-family="Helvetica,sans-Serif" font-size="10.00">parser::ASTUnaryExprNode</text>
</a>
</g>
</g>
<!-- Node2&#45;&gt;Node7 -->
<g id="edge6" class="edge"><title>Node2&#45;&gt;Node7</title>
<path fill="none" stroke="midnightblue" d="M230.4,-357.669C250.56,-349.815 277.016,-340.066 301,-333 312.827,-329.515 325.747,-326.314 337.847,-323.571"/>
<polygon fill="midnightblue" stroke="midnightblue" points="229.07,-354.431 221.048,-361.352 231.635,-360.945 229.07,-354.431"/>
</g>
<!-- Node10 -->
<g id="node10" class="node"><title>Node10</title>
<g id="a_node10"><a xlink:href="../../de/df0/classparser_1_1_a_s_t_assignment_node.html" target="_top" xlink:title="parser::ASTAssignmentNode">
<polygon fill="white" stroke="black" points="314.5,-266.5 314.5,-285.5 458.5,-285.5 458.5,-266.5 314.5,-266.5"/>
<text text-anchor="middle" x="386.5" y="-273.5" font-family="Helvetica,sans-Serif" font-size="10.00">parser::ASTAssignmentNode</text>
</a>
</g>
</g>
<!-- Node9&#45;&gt;Node10 -->
<g id="edge9" class="edge"><title>Node9&#45;&gt;Node10</title>
<path fill="none" stroke="midnightblue" d="M211.283,-179.304C229.476,-200.922 263.603,-237.441 301,-257 308.461,-260.902 316.702,-264.007 325.024,-266.475"/>
<polygon fill="midnightblue" stroke="midnightblue" points="213.966,-177.057 204.91,-171.558 208.561,-181.504 213.966,-177.057"/>
</g>
<!-- Node11 -->
<g id="node11" class="node"><title>Node11</title>
<g id="a_node11"><a xlink:href="../../d2/d18/classparser_1_1_a_s_t_block_node.html" target="_top" xlink:title="parser::ASTBlockNode">
<polygon fill="white" stroke="black" points="328,-228.5 328,-247.5 445,-247.5 445,-228.5 328,-228.5"/>
<text text-anchor="middle" x="386.5" y="-235.5" font-family="Helvetica,sans-Serif" font-size="10.00">parser::ASTBlockNode</text>
</a>
</g>
</g>
<!-- Node9&#45;&gt;Node11 -->
<g id="edge10" class="edge"><title>Node9&#45;&gt;Node11</title>
<path fill="none" stroke="midnightblue" d="M220.528,-177.168C240.921,-189.984 271.89,-207.967 301,-219 310.842,-222.73 321.62,-225.841 332.086,-228.393"/>
<polygon fill="midnightblue" stroke="midnightblue" points="222.258,-174.12 211.946,-171.687 218.49,-180.02 222.258,-174.12"/>
</g>
<!-- Node12 -->
<g id="node12" class="node"><title>Node12</title>
<g id="a_node12"><a xlink:href="../../d6/d68/classparser_1_1_a_s_t_declaration_node.html" target="_top" xlink:title="parser::ASTDeclarationNode">
<polygon fill="white" stroke="black" points="315.5,-190.5 315.5,-209.5 457.5,-209.5 457.5,-190.5 315.5,-190.5"/>
<text text-anchor="middle" x="386.5" y="-197.5" font-family="Helvetica,sans-Serif" font-size="10.00">parser::ASTDeclarationNode</text>
</a>
</g>
</g>
<!-- Node9&#45;&gt;Node12 -->
<g id="edge11" class="edge"><title>Node9&#45;&gt;Node12</title>
<path fill="none" stroke="midnightblue" d="M254.937,-173.61C281.674,-179.014 313.088,-185.364 338.401,-190.48"/>
<polygon fill="midnightblue" stroke="midnightblue" points="255.436,-170.14 244.94,-171.589 254.049,-177.001 255.436,-170.14"/>
</g>
<!-- Node13 -->
<g id="node13" class="node"><title>Node13</title>
<g id="a_node13"><a xlink:href="../../d0/dae/classparser_1_1_a_s_t_function_definition_node.html" target="_top" xlink:title="parser::ASTFunctionDefinitionNode">
<polygon fill="white" stroke="black" points="301,-152.5 301,-171.5 472,-171.5 472,-152.5 301,-152.5"/>
<text text-anchor="middle" x="386.5" y="-159.5" font-family="Helvetica,sans-Serif" font-size="10.00">parser::ASTFunctionDefinitionNode</text>
</a>
</g>
</g>
<!-- Node9&#45;&gt;Node13 -->
<g id="edge12" class="edge"><title>Node9&#45;&gt;Node13</title>
<path fill="none" stroke="midnightblue" d="M275.275,-162C283.7,-162 292.304,-162 300.806,-162"/>
<polygon fill="midnightblue" stroke="midnightblue" points="275.107,-158.5 265.107,-162 275.107,-165.5 275.107,-158.5"/>
</g>
<!-- Node14 -->
<g id="node14" class="node"><title>Node14</title>
<g id="a_node14"><a xlink:href="../../da/dc5/classparser_1_1_a_s_t_if_node.html" target="_top" xlink:title="parser::ASTIfNode">
<polygon fill="white" stroke="black" points="337.5,-114.5 337.5,-133.5 435.5,-133.5 435.5,-114.5 337.5,-114.5"/>
<text text-anchor="middle" x="386.5" y="-121.5" font-family="Helvetica,sans-Serif" font-size="10.00">parser::ASTIfNode</text>
</a>
</g>
</g>
<!-- Node9&#45;&gt;Node14 -->
<g id="edge13" class="edge"><title>Node9&#45;&gt;Node14</title>
<path fill="none" stroke="midnightblue" d="M254.937,-150.39C281.674,-144.986 313.088,-138.636 338.401,-133.52"/>
<polygon fill="midnightblue" stroke="midnightblue" points="254.049,-146.999 244.94,-152.411 255.436,-153.86 254.049,-146.999"/>
</g>
<!-- Node15 -->
<g id="node15" class="node"><title>Node15</title>
<g id="a_node15"><a xlink:href="../../d8/d96/classparser_1_1_a_s_t_print_node.html" target="_top" xlink:title="parser::ASTPrintNode">
<polygon fill="white" stroke="black" points="330,-76.5 330,-95.5 443,-95.5 443,-76.5 330,-76.5"/>
<text text-anchor="middle" x="386.5" y="-83.5" font-family="Helvetica,sans-Serif" font-size="10.00">parser::ASTPrintNode</text>
</a>
</g>
</g>
<!-- Node9&#45;&gt;Node15 -->
<g id="edge14" class="edge"><title>Node9&#45;&gt;Node15</title>
<path fill="none" stroke="midnightblue" d="M220.528,-146.832C240.921,-134.016 271.89,-116.033 301,-105 310.842,-101.27 321.62,-98.1587 332.086,-95.6074"/>
<polygon fill="midnightblue" stroke="midnightblue" points="218.49,-143.98 211.946,-152.313 222.258,-149.88 218.49,-143.98"/>
</g>
<!-- Node16 -->
<g id="node16" class="node"><title>Node16</title>
<g id="a_node16"><a xlink:href="../../d2/d69/classparser_1_1_a_s_t_return_node.html" target="_top" xlink:title="parser::ASTReturnNode">
<polygon fill="white" stroke="black" points="325.5,-38.5 325.5,-57.5 447.5,-57.5 447.5,-38.5 325.5,-38.5"/>
<text text-anchor="middle" x="386.5" y="-45.5" font-family="Helvetica,sans-Serif" font-size="10.00">parser::ASTReturnNode</text>
</a>
</g>
</g>
<!-- Node9&#45;&gt;Node16 -->
<g id="edge15" class="edge"><title>Node9&#45;&gt;Node16</title>
<path fill="none" stroke="midnightblue" d="M211.283,-144.696C229.476,-123.078 263.603,-86.5592 301,-67 308.595,-63.0279 316.997,-59.8826 325.47,-57.393"/>
<polygon fill="midnightblue" stroke="midnightblue" points="208.561,-142.496 204.91,-152.442 213.966,-146.943 208.561,-142.496"/>
</g>
<!-- Node17 -->
<g id="node17" class="node"><title>Node17</title>
<g id="a_node17"><a xlink:href="../../da/d5a/classparser_1_1_a_s_t_while_node.html" target="_top" xlink:title="parser::ASTWhileNode">
<polygon fill="white" stroke="black" points="328,-0.5 328,-19.5 445,-19.5 445,-0.5 328,-0.5"/>
<text text-anchor="middle" x="386.5" y="-7.5" font-family="Helvetica,sans-Serif" font-size="10.00">parser::ASTWhileNode</text>
</a>
</g>
</g>
<!-- Node9&#45;&gt;Node17 -->
<g id="edge16" class="edge"><title>Node9&#45;&gt;Node17</title>
<path fill="none" stroke="midnightblue" d="M206.6,-143.33C221.861,-114.097 255.474,-57.8821 301,-29 309.126,-23.8448 318.47,-20.0797 327.916,-17.3319"/>
<polygon fill="midnightblue" stroke="midnightblue" points="203.374,-141.954 201.978,-152.456 209.619,-145.117 203.374,-141.954"/>
</g>
</g>
</svg>
        <g id="navigator" transform="translate(0 0)" fill="#404254">
                <rect fill="#f2f5e9" fill-opacity="0.5" stroke="#606060" stroke-width=".5" x="0" y="0" width="60" height="60"/>
                <use id="zoomplus" xlink:href="#zoomPlus" x="17" y="9" onmousedown="handleZoom(evt,'in')"/>
                <use id="zoomminus" xlink:href="#zoomMin" x="42" y="9" onmousedown="handleZoom(evt,'out')"/>
                <use id="reset" xlink:href="#resetDef" x="30" y="36" onmousedown="handleReset()"/>
                <g id="arrowUp" xlink:href="#dirArrow" transform="translate(30 24)" onmousedown="handlePan(0,-1)">
                  <use xlink:href="#rim" fill="#404040">
                        <set attributeName="fill" to="#808080" begin="arrowUp.mouseover" end="arrowUp.mouseout"/>
                  </use>
                  <path fill="none" stroke="white" stroke-width="1.5" d="M0,-3.0v7 M-2.5,-0.5L0,-3.0L2.5,-0.5"/>
                </g>
                <g id="arrowRight" xlink:href="#dirArrow" transform="rotate(90) translate(36 -43)" onmousedown="handlePan(1,0)">
                  <use xlink:href="#rim" fill="#404040">
                        <set attributeName="fill" to="#808080" begin="arrowRight.mouseover" end="arrowRight.mouseout"/>
                  </use>
                  <path fill="none" stroke="white" stroke-width="1.5" d="M0,-3.0v7 M-2.5,-0.5L0,-3.0L2.5,-0.5"/>
                </g>
                <g id="arrowDown" xlink:href="#dirArrow" transform="rotate(180) translate(-30 -48)" onmousedown="handlePan(0,1)">
                  <use xlink:href="#rim" fill="#404040">
                        <set attributeName="fill" to="#808080" begin="arrowDown.mouseover" end="arrowDown.mouseout"/>
                  </use>
                  <path fill="none" stroke="white" stroke-width="1.5" d="M0,-3.0v7 M-2.5,-0.5L0,-3.0L2.5,-0.5"/>
                </g>
                <g id="arrowLeft" xlink:href="#dirArrow" transform="rotate(270) translate(-36 17)" onmousedown="handlePan(-1,0)">
                  <use xlink:href="#rim" fill="#404040">
                        <set attributeName="fill" to="#808080" begin="arrowLeft.mouseover" end="arrowLeft.mouseout"/>
                  </use>
                  <path fill="none" stroke="white" stroke-width="1.5" d="M0,-3.0v7 M-2.5,-0.5L0,-3.0L2.5,-0.5"/>
                </g>
        </g>
        <svg viewBox="0 0 15 15" width="100%" height="30px" preserveAspectRatio="xMaxYMin meet">
         <g id="arrow_out" transform="scale(0.3 0.3)">
          <a xlink:href="classparser_1_1_a_s_t_node__inherit__graph_org.svg" target="_base">
           <rect id="button" ry="5" rx="5" y="6" x="6" height="38" width="38"
                fill="#f2f5e9" fill-opacity="0.5" stroke="#606060" stroke-width="1.0"/>
           <path id="arrow"
             d="M 11.500037,31.436501 C 11.940474,20.09759 22.043105,11.32322 32.158766,21.979434 L 37.068811,17.246167 C 37.068811,17.246167 37.088388,32 37.088388,32 L 22.160133,31.978069 C 22.160133,31.978069 26.997745,27.140456 26.997745,27.140456 C 18.528582,18.264221 13.291696,25.230495 11.500037,31.436501 z"
             style="fill:#404040;"/>
          </a>
         </g>
        </svg>
</svg>
