<?xml version="1.0" encoding="UTF-8" standalone="no"?>
<!DOCTYPE svg PUBLIC "-//W3C//DTD SVG 1.1//EN"
 "http://www.w3.org/Graphics/SVG/1.1/DTD/svg11.dtd">
<!-- Generated by graphviz version 2.38.0 (20140413.2041)
 -->
<!-- Title: lexer/lexer.h Pages: 1 -->
<svg width="133pt" height="140pt"
 viewBox="0.00 0.00 132.50 140.00" xmlns="http://www.w3.org/2000/svg" xmlns:xlink="http://www.w3.org/1999/xlink">
<g id="graph0" class="graph" transform="scale(1 1) rotate(0) translate(4 136)">
<title>lexer/lexer.h</title>
<polygon fill="white" stroke="none" points="-4,4 -4,-136 128.5,-136 128.5,4 -4,4"/>
<!-- Node1 -->
<g id="node1" class="node"><title>Node1</title>
<polygon fill="#bfbfbf" stroke="black" points="0,-112.5 0,-131.5 70,-131.5 70,-112.5 0,-112.5"/>
<text text-anchor="middle" x="35" y="-119.5" font-family="Helvetica,sans-Serif" font-size="10.00">lexer/lexer.h</text>
</g>
<!-- Node2 -->
<g id="node2" class="node"><title>Node2</title>
<polygon fill="white" stroke="#bfbfbf" points="21.5,-0.5 21.5,-19.5 62.5,-19.5 62.5,-0.5 21.5,-0.5"/>
<text text-anchor="middle" x="42" y="-7.5" font-family="Helvetica,sans-Serif" font-size="10.00">string</text>
</g>
<!-- Node1&#45;&gt;Node2 -->
<g id="edge1" class="edge"><title>Node1&#45;&gt;Node2</title>
<path fill="none" stroke="midnightblue" d="M25.9912,-112.395C14.3291,-100.161 -3.64412,-76.9003 4,-56 8.05672,-44.9083 16.188,-34.6651 23.8914,-26.7625"/>
<polygon fill="midnightblue" stroke="midnightblue" points="26.4747,-29.1351 31.2855,-19.6955 21.6381,-24.0747 26.4747,-29.1351"/>
</g>
<!-- Node3 -->
<g id="node3" class="node"><title>Node3</title>
<polygon fill="white" stroke="#bfbfbf" points="13,-56.5 13,-75.5 57,-75.5 57,-56.5 13,-56.5"/>
<text text-anchor="middle" x="35" y="-63.5" font-family="Helvetica,sans-Serif" font-size="10.00">vector</text>
</g>
<!-- Node1&#45;&gt;Node3 -->
<g id="edge2" class="edge"><title>Node1&#45;&gt;Node3</title>
<path fill="none" stroke="midnightblue" d="M35,-112.083C35,-105.006 35,-94.8611 35,-85.9865"/>
<polygon fill="midnightblue" stroke="midnightblue" points="38.5001,-85.751 35,-75.7511 31.5001,-85.7511 38.5001,-85.751"/>
</g>
<!-- Node4 -->
<g id="node4" class="node"><title>Node4</title>
<g id="a_node4"><a xlink:href="../../d1/d07/token_8h_source.html" target="_top" xlink:title="token.h">
<polygon fill="white" stroke="black" points="75.5,-56.5 75.5,-75.5 124.5,-75.5 124.5,-56.5 75.5,-56.5"/>
<text text-anchor="middle" x="100" y="-63.5" font-family="Helvetica,sans-Serif" font-size="10.00">token.h</text>
</a>
</g>
</g>
<!-- Node1&#45;&gt;Node4 -->
<g id="edge3" class="edge"><title>Node1&#45;&gt;Node4</title>
<path fill="none" stroke="midnightblue" d="M45.4434,-112.324C55.1462,-104.263 69.8153,-92.0765 81.4997,-82.3695"/>
<polygon fill="midnightblue" stroke="midnightblue" points="83.9113,-84.9163 89.3666,-75.8339 79.4381,-79.532 83.9113,-84.9163"/>
</g>
<!-- Node4&#45;&gt;Node2 -->
<g id="edge4" class="edge"><title>Node4&#45;&gt;Node2</title>
<path fill="none" stroke="midnightblue" d="M90.6813,-56.324C82.1074,-48.3414 69.1878,-36.3128 58.8124,-26.6529"/>
<polygon fill="midnightblue" stroke="midnightblue" points="61.1922,-24.0865 51.4883,-19.8339 56.4223,-29.2098 61.1922,-24.0865"/>
</g>
</g>
</svg>
