<?xml version="1.0" encoding="UTF-8" standalone="no"?>
<!DOCTYPE svg PUBLIC "-//W3C//DTD SVG 1.1//EN"
 "http://www.w3.org/Graphics/SVG/1.1/DTD/svg11.dtd">
<!-- Generated by graphviz version 2.38.0 (20140413.2041)
 -->
<!-- Title: src/parser/ast.h Pages: 1 -->
<svg width="666pt" height="162pt"
 viewBox="0.00 0.00 665.50 162.00" xmlns="http://www.w3.org/2000/svg" xmlns:xlink="http://www.w3.org/1999/xlink">
<g id="graph0" class="graph" transform="scale(1 1) rotate(0) translate(4 158)">
<title>src/parser/ast.h</title>
<polygon fill="white" stroke="none" points="-4,4 -4,-158 661.5,-158 661.5,4 -4,4"/>
<!-- Node1 -->
<g id="node1" class="node"><title>Node1</title>
<polygon fill="#bfbfbf" stroke="black" points="328.5,-134.5 328.5,-153.5 413.5,-153.5 413.5,-134.5 328.5,-134.5"/>
<text text-anchor="middle" x="371" y="-141.5" font-family="Helvetica,sans-Serif" font-size="10.00">src/parser/ast.h</text>
</g>
<!-- Node2 -->
<g id="node2" class="node"><title>Node2</title>
<g id="a_node2"><a xlink:href="parser_8h.html" target="_top" xlink:title="src/parser/parser.h">
<polygon fill="white" stroke="black" points="446,-73 446,-92 544,-92 544,-73 446,-73"/>
<text text-anchor="middle" x="495" y="-80" font-family="Helvetica,sans-Serif" font-size="10.00">src/parser/parser.h</text>
</a>
</g>
</g>
<!-- Node1&#45;&gt;Node2 -->
<g id="edge1" class="edge"><title>Node1&#45;&gt;Node2</title>
<path fill="none" stroke="midnightblue" d="M398.049,-130.021C422.097,-118.482 456.563,-101.943 477.267,-92.0091"/>
<polygon fill="midnightblue" stroke="midnightblue" points="396.268,-126.993 388.766,-134.475 399.296,-133.304 396.268,-126.993"/>
</g>
<!-- Node5 -->
<g id="node5" class="node"><title>Node5</title>
<g id="a_node5"><a xlink:href="xml__visitor_8h.html" target="_top" xlink:title="src/visitor/xml_visitor.h">
<polygon fill="white" stroke="black" points="58,-73 58,-92 176,-92 176,-73 58,-73"/>
<text text-anchor="middle" x="117" y="-80" font-family="Helvetica,sans-Serif" font-size="10.00">src/visitor/xml_visitor.h</text>
</a>
</g>
</g>
<!-- Node1&#45;&gt;Node5 -->
<g id="edge4" class="edge"><title>Node1&#45;&gt;Node5</title>
<path fill="none" stroke="midnightblue" d="M324.837,-132.186C275.55,-120.641 198.466,-102.584 153.324,-92.0091"/>
<polygon fill="midnightblue" stroke="midnightblue" points="324.073,-135.602 334.608,-134.475 325.67,-128.786 324.073,-135.602"/>
</g>
<!-- Node7 -->
<g id="node7" class="node"><title>Node7</title>
<g id="a_node7"><a xlink:href="semantic__analysis_8h.html" target="_top" xlink:title="src/visitor/semantic\l_analysis.h">
<polygon fill="white" stroke="black" points="194,-67.5 194,-97.5 296,-97.5 296,-67.5 194,-67.5"/>
<text text-anchor="start" x="202" y="-85.5" font-family="Helvetica,sans-Serif" font-size="10.00">src/visitor/semantic</text>
<text text-anchor="middle" x="245" y="-74.5" font-family="Helvetica,sans-Serif" font-size="10.00">_analysis.h</text>
</a>
</g>
</g>
<!-- Node1&#45;&gt;Node7 -->
<g id="edge7" class="edge"><title>Node1&#45;&gt;Node7</title>
<path fill="none" stroke="midnightblue" d="M343.895,-130.2C323.532,-120.585 295.661,-107.423 274.696,-97.523"/>
<polygon fill="midnightblue" stroke="midnightblue" points="342.41,-133.37 352.947,-134.475 345.399,-127.04 342.41,-133.37"/>
</g>
<!-- Node9 -->
<g id="node9" class="node"><title>Node9</title>
<g id="a_node9"><a xlink:href="interpreter_8h.html" target="_top" xlink:title="src/visitor/interpreter.h">
<polygon fill="white" stroke="black" points="314,-73 314,-92 428,-92 428,-73 314,-73"/>
<text text-anchor="middle" x="371" y="-80" font-family="Helvetica,sans-Serif" font-size="10.00">src/visitor/interpreter.h</text>
</a>
</g>
</g>
<!-- Node1&#45;&gt;Node9 -->
<g id="edge10" class="edge"><title>Node1&#45;&gt;Node9</title>
<path fill="none" stroke="midnightblue" d="M371,-124.317C371,-113.496 371,-100.398 371,-92.0091"/>
<polygon fill="midnightblue" stroke="midnightblue" points="367.5,-124.475 371,-134.475 374.5,-124.475 367.5,-124.475"/>
</g>
<!-- Node11 -->
<g id="node11" class="node"><title>Node11</title>
<g id="a_node11"><a xlink:href="ast_8cpp.html" target="_top" xlink:title="src/parser/ast.cpp">
<polygon fill="white" stroke="black" points="562.5,-73 562.5,-92 657.5,-92 657.5,-73 562.5,-73"/>
<text text-anchor="middle" x="610" y="-80" font-family="Helvetica,sans-Serif" font-size="10.00">src/parser/ast.cpp</text>
</a>
</g>
</g>
<!-- Node1&#45;&gt;Node11 -->
<g id="edge13" class="edge"><title>Node1&#45;&gt;Node11</title>
<path fill="none" stroke="midnightblue" d="M415.839,-132.002C452.69,-122.942 506.251,-109.726 553,-98 560.626,-96.0872 568.822,-94.0133 576.554,-92.0482"/>
<polygon fill="midnightblue" stroke="midnightblue" points="414.784,-128.657 405.908,-134.443 416.454,-135.455 414.784,-128.657"/>
</g>
<!-- Node3 -->
<g id="node3" class="node"><title>Node3</title>
<g id="a_node3"><a xlink:href="main_8cpp.html" target="_top" xlink:title="src/main.cpp">
<polygon fill="white" stroke="black" points="266.5,-6 266.5,-25 339.5,-25 339.5,-6 266.5,-6"/>
<text text-anchor="middle" x="303" y="-13" font-family="Helvetica,sans-Serif" font-size="10.00">src/main.cpp</text>
</a>
</g>
</g>
<!-- Node2&#45;&gt;Node3 -->
<g id="edge2" class="edge"><title>Node2&#45;&gt;Node3</title>
<path fill="none" stroke="midnightblue" d="M459.853,-69.6013C421.785,-56.7138 361.997,-36.4728 328.296,-25.0637"/>
<polygon fill="midnightblue" stroke="midnightblue" points="458.91,-72.977 469.504,-72.8685 461.154,-66.3466 458.91,-72.977"/>
</g>
<!-- Node4 -->
<g id="node4" class="node"><title>Node4</title>
<g id="a_node4"><a xlink:href="parser_8cpp.html" target="_top" xlink:title="src/parser/parser.cpp">
<polygon fill="white" stroke="black" points="500.5,-6 500.5,-25 609.5,-25 609.5,-6 500.5,-6"/>
<text text-anchor="middle" x="555" y="-13" font-family="Helvetica,sans-Serif" font-size="10.00">src/parser/parser.cpp</text>
</a>
</g>
</g>
<!-- Node2&#45;&gt;Node4 -->
<g id="edge3" class="edge"><title>Node2&#45;&gt;Node4</title>
<path fill="none" stroke="midnightblue" d="M510.106,-65.1348C521.841,-52.4228 537.648,-35.2978 547.036,-25.1273"/>
<polygon fill="midnightblue" stroke="midnightblue" points="507.303,-63.0118 503.092,-72.7338 512.447,-67.7597 507.303,-63.0118"/>
</g>
<!-- Node5&#45;&gt;Node3 -->
<g id="edge5" class="edge"><title>Node5&#45;&gt;Node3</title>
<path fill="none" stroke="midnightblue" d="M151.521,-69.4363C188.419,-56.5417 245.986,-36.4243 278.495,-25.0637"/>
<polygon fill="midnightblue" stroke="midnightblue" points="149.985,-66.2654 141.699,-72.8685 152.294,-72.8735 149.985,-66.2654"/>
</g>
<!-- Node6 -->
<g id="node6" class="node"><title>Node6</title>
<g id="a_node6"><a xlink:href="xml__visitor_8cpp.html" target="_top" xlink:title="src/visitor/xml_visitor.cpp">
<polygon fill="white" stroke="black" points="0,-6 0,-25 128,-25 128,-6 0,-6"/>
<text text-anchor="middle" x="64" y="-13" font-family="Helvetica,sans-Serif" font-size="10.00">src/visitor/xml_visitor.cpp</text>
</a>
</g>
</g>
<!-- Node5&#45;&gt;Node6 -->
<g id="edge6" class="edge"><title>Node5&#45;&gt;Node6</title>
<path fill="none" stroke="midnightblue" d="M103.359,-64.7705C93.0254,-52.0972 79.2485,-35.201 71.0346,-25.1273"/>
<polygon fill="midnightblue" stroke="midnightblue" points="100.82,-67.1954 109.852,-72.7338 106.245,-62.7718 100.82,-67.1954"/>
</g>
<!-- Node7&#45;&gt;Node3 -->
<g id="edge8" class="edge"><title>Node7&#45;&gt;Node3</title>
<path fill="none" stroke="midnightblue" d="M264.491,-59.6571C275.013,-47.8646 287.414,-33.9672 295.242,-25.1945"/>
<polygon fill="midnightblue" stroke="midnightblue" points="261.632,-57.6043 257.585,-67.396 266.855,-62.2648 261.632,-57.6043"/>
</g>
<!-- Node8 -->
<g id="node8" class="node"><title>Node8</title>
<g id="a_node8"><a xlink:href="semantic__analysis_8cpp.html" target="_top" xlink:title="src/visitor/semantic\l_analysis.cpp">
<polygon fill="white" stroke="black" points="146,-0.5 146,-30.5 248,-30.5 248,-0.5 146,-0.5"/>
<text text-anchor="start" x="154" y="-18.5" font-family="Helvetica,sans-Serif" font-size="10.00">src/visitor/semantic</text>
<text text-anchor="middle" x="197" y="-7.5" font-family="Helvetica,sans-Serif" font-size="10.00">_analysis.cpp</text>
</a>
</g>
</g>
<!-- Node7&#45;&gt;Node8 -->
<g id="edge9" class="edge"><title>Node7&#45;&gt;Node8</title>
<path fill="none" stroke="midnightblue" d="M228.501,-59.1575C221.501,-49.6788 213.555,-38.9186 207.395,-30.5765"/>
<polygon fill="midnightblue" stroke="midnightblue" points="225.829,-61.4308 234.585,-67.396 231.46,-57.2725 225.829,-61.4308"/>
</g>
<!-- Node9&#45;&gt;Node3 -->
<g id="edge11" class="edge"><title>Node9&#45;&gt;Node3</title>
<path fill="none" stroke="midnightblue" d="M354.258,-65.4968C340.923,-52.7496 322.767,-35.3947 312.025,-25.1273"/>
<polygon fill="midnightblue" stroke="midnightblue" points="352.182,-68.354 361.829,-72.7338 357.019,-63.2939 352.182,-68.354"/>
</g>
<!-- Node10 -->
<g id="node10" class="node"><title>Node10</title>
<g id="a_node10"><a xlink:href="interpreter_8cpp.html" target="_top" xlink:title="src/visitor/interpreter.cpp">
<polygon fill="white" stroke="black" points="357.5,-6 357.5,-25 482.5,-25 482.5,-6 357.5,-6"/>
<text text-anchor="middle" x="420" y="-13" font-family="Helvetica,sans-Serif" font-size="10.00">src/visitor/interpreter.cpp</text>
</a>
</g>
</g>
<!-- Node9&#45;&gt;Node10 -->
<g id="edge12" class="edge"><title>Node9&#45;&gt;Node10</title>
<path fill="none" stroke="midnightblue" d="M383.888,-64.4037C393.41,-51.7729 405.975,-35.1041 413.496,-25.1273"/>
<polygon fill="midnightblue" stroke="midnightblue" points="380.833,-62.6417 377.608,-72.7338 386.423,-66.8554 380.833,-62.6417"/>
</g>
</g>
</svg>
