<?xml version="1.0" encoding="UTF-8" standalone="no"?>
<!DOCTYPE svg PUBLIC "-//W3C//DTD SVG 1.1//EN"
 "http://www.w3.org/Graphics/SVG/1.1/DTD/svg11.dtd">
<!-- Generated by graphviz version 2.38.0 (20140413.2041)
 -->
<!-- Title: src/parser/ast.cpp Pages: 1 -->
<svg width="191pt" height="196pt"
 viewBox="0.00 0.00 190.72 196.00" xmlns="http://www.w3.org/2000/svg" xmlns:xlink="http://www.w3.org/1999/xlink">
<g id="graph0" class="graph" transform="scale(1 1) rotate(0) translate(4 192)">
<title>src/parser/ast.cpp</title>
<polygon fill="white" stroke="none" points="-4,4 -4,-192 186.718,-192 186.718,4 -4,4"/>
<!-- Node1 -->
<g id="node1" class="node"><title>Node1</title>
<polygon fill="#bfbfbf" stroke="black" points="43.2178,-168.5 43.2178,-187.5 138.218,-187.5 138.218,-168.5 43.2178,-168.5"/>
<text text-anchor="middle" x="90.7178" y="-175.5" font-family="Helvetica,sans-Serif" font-size="10.00">src/parser/ast.cpp</text>
</g>
<!-- Node2 -->
<g id="node2" class="node"><title>Node2</title>
<g id="a_node2"><a xlink:href="ast_8h.html" target="_top" xlink:title="ast.h">
<polygon fill="white" stroke="black" points="14.7178,-112.5 14.7178,-131.5 52.7178,-131.5 52.7178,-112.5 14.7178,-112.5"/>
<text text-anchor="middle" x="33.7178" y="-119.5" font-family="Helvetica,sans-Serif" font-size="10.00">ast.h</text>
</a>
</g>
</g>
<!-- Node1&#45;&gt;Node2 -->
<g id="edge1" class="edge"><title>Node1&#45;&gt;Node2</title>
<path fill="none" stroke="midnightblue" d="M81.5597,-168.324C73.2163,-160.42 60.6853,-148.548 50.5409,-138.938"/>
<polygon fill="midnightblue" stroke="midnightblue" points="52.7091,-136.171 43.0424,-131.834 47.8949,-141.252 52.7091,-136.171"/>
</g>
<!-- Node6 -->
<g id="node6" class="node"><title>Node6</title>
<polygon fill="white" stroke="#bfbfbf" points="70.7178,-112.5 70.7178,-131.5 110.718,-131.5 110.718,-112.5 70.7178,-112.5"/>
<text text-anchor="middle" x="90.7178" y="-119.5" font-family="Helvetica,sans-Serif" font-size="10.00">utility</text>
</g>
<!-- Node1&#45;&gt;Node6 -->
<g id="edge6" class="edge"><title>Node1&#45;&gt;Node6</title>
<path fill="none" stroke="midnightblue" d="M90.7178,-168.083C90.7178,-161.006 90.7178,-150.861 90.7178,-141.986"/>
<polygon fill="midnightblue" stroke="midnightblue" points="94.2179,-141.751 90.7178,-131.751 87.2179,-141.751 94.2179,-141.751"/>
</g>
<!-- Node7 -->
<g id="node7" class="node"><title>Node7</title>
<polygon fill="white" stroke="#bfbfbf" points="128.718,-112.5 128.718,-131.5 182.718,-131.5 182.718,-112.5 128.718,-112.5"/>
<text text-anchor="middle" x="155.718" y="-119.5" font-family="Helvetica,sans-Serif" font-size="10.00">iostream</text>
</g>
<!-- Node1&#45;&gt;Node7 -->
<g id="edge7" class="edge"><title>Node1&#45;&gt;Node7</title>
<path fill="none" stroke="midnightblue" d="M101.161,-168.324C110.864,-160.263 125.533,-148.077 137.217,-138.369"/>
<polygon fill="midnightblue" stroke="midnightblue" points="139.629,-140.916 145.084,-131.834 135.156,-135.532 139.629,-140.916"/>
</g>
<!-- Node3 -->
<g id="node3" class="node"><title>Node3</title>
<polygon fill="white" stroke="#bfbfbf" points="30.2178,-0.5 30.2178,-19.5 71.2178,-19.5 71.2178,-0.5 30.2178,-0.5"/>
<text text-anchor="middle" x="50.7178" y="-7.5" font-family="Helvetica,sans-Serif" font-size="10.00">string</text>
</g>
<!-- Node2&#45;&gt;Node3 -->
<g id="edge2" class="edge"><title>Node2&#45;&gt;Node3</title>
<path fill="none" stroke="midnightblue" d="M24.374,-112.262C12.314,-99.8685 -6.12897,-76.4203 2.71776,-56 7.98589,-43.8399 18.3373,-33.4594 28.0826,-25.7429"/>
<polygon fill="midnightblue" stroke="midnightblue" points="30.3617,-28.4116 36.3477,-19.6698 26.2168,-22.7707 30.3617,-28.4116"/>
</g>
<!-- Node4 -->
<g id="node4" class="node"><title>Node4</title>
<polygon fill="white" stroke="#bfbfbf" points="11.7178,-56.5 11.7178,-75.5 55.7178,-75.5 55.7178,-56.5 11.7178,-56.5"/>
<text text-anchor="middle" x="33.7178" y="-63.5" font-family="Helvetica,sans-Serif" font-size="10.00">vector</text>
</g>
<!-- Node2&#45;&gt;Node4 -->
<g id="edge3" class="edge"><title>Node2&#45;&gt;Node4</title>
<path fill="none" stroke="midnightblue" d="M33.7178,-112.083C33.7178,-105.006 33.7178,-94.8611 33.7178,-85.9865"/>
<polygon fill="midnightblue" stroke="midnightblue" points="37.2179,-85.751 33.7178,-75.7511 30.2179,-85.7511 37.2179,-85.751"/>
</g>
<!-- Node5 -->
<g id="node5" class="node"><title>Node5</title>
<g id="a_node5"><a xlink:href="visitor_8h.html" target="_top" xlink:title="../visitor/visitor.h">
<polygon fill="white" stroke="black" points="73.2178,-56.5 73.2178,-75.5 162.218,-75.5 162.218,-56.5 73.2178,-56.5"/>
<text text-anchor="middle" x="117.718" y="-63.5" font-family="Helvetica,sans-Serif" font-size="10.00">../visitor/visitor.h</text>
</a>
</g>
</g>
<!-- Node2&#45;&gt;Node5 -->
<g id="edge4" class="edge"><title>Node2&#45;&gt;Node5</title>
<path fill="none" stroke="midnightblue" d="M47.2138,-112.324C60.3174,-103.9 80.4297,-90.9709 95.8246,-81.0741"/>
<polygon fill="midnightblue" stroke="midnightblue" points="97.7361,-84.0063 104.255,-75.6545 93.9507,-78.118 97.7361,-84.0063"/>
</g>
<!-- Node5&#45;&gt;Node3 -->
<g id="edge5" class="edge"><title>Node5&#45;&gt;Node3</title>
<path fill="none" stroke="midnightblue" d="M106.953,-56.324C96.9516,-48.2631 81.8312,-36.0765 69.7873,-26.3695"/>
<polygon fill="midnightblue" stroke="midnightblue" points="71.6607,-23.3841 61.6783,-19.8339 67.268,-28.8343 71.6607,-23.3841"/>
</g>
</g>
</svg>
