<?xml version="1.0" encoding="UTF-8" standalone="no"?>
<!DOCTYPE svg PUBLIC "-//W3C//DTD SVG 1.1//EN"
 "http://www.w3.org/Graphics/SVG/1.1/DTD/svg11.dtd">
<!-- Generated by graphviz version 2.38.0 (20140413.2041)
 -->
<!-- Title: src/parser/ast.h Pages: 1 -->
<svg width="179pt" height="140pt"
 viewBox="0.00 0.00 179.00 140.00" xmlns="http://www.w3.org/2000/svg" xmlns:xlink="http://www.w3.org/1999/xlink">
<g id="graph0" class="graph" transform="scale(1 1) rotate(0) translate(4 136)">
<title>src/parser/ast.h</title>
<polygon fill="white" stroke="none" points="-4,4 -4,-136 175,-136 175,4 -4,4"/>
<!-- Node1 -->
<g id="node1" class="node"><title>Node1</title>
<polygon fill="#bfbfbf" stroke="black" points="0,-112.5 0,-131.5 85,-131.5 85,-112.5 0,-112.5"/>
<text text-anchor="middle" x="42.5" y="-119.5" font-family="Helvetica,sans-Serif" font-size="10.00">src/parser/ast.h</text>
</g>
<!-- Node2 -->
<g id="node2" class="node"><title>Node2</title>
<polygon fill="white" stroke="#bfbfbf" points="39,-0.5 39,-19.5 80,-19.5 80,-0.5 39,-0.5"/>
<text text-anchor="middle" x="59.5" y="-7.5" font-family="Helvetica,sans-Serif" font-size="10.00">string</text>
</g>
<!-- Node1&#45;&gt;Node2 -->
<g id="edge1" class="edge"><title>Node1&#45;&gt;Node2</title>
<path fill="none" stroke="midnightblue" d="M33.1563,-112.262C21.0963,-99.8685 2.65327,-76.4203 11.5,-56 16.7681,-43.8399 27.1195,-33.4594 36.8648,-25.7429"/>
<polygon fill="midnightblue" stroke="midnightblue" points="39.144,-28.4116 45.1299,-19.6698 34.999,-22.7707 39.144,-28.4116"/>
</g>
<!-- Node3 -->
<g id="node3" class="node"><title>Node3</title>
<polygon fill="white" stroke="#bfbfbf" points="20.5,-56.5 20.5,-75.5 64.5,-75.5 64.5,-56.5 20.5,-56.5"/>
<text text-anchor="middle" x="42.5" y="-63.5" font-family="Helvetica,sans-Serif" font-size="10.00">vector</text>
</g>
<!-- Node1&#45;&gt;Node3 -->
<g id="edge2" class="edge"><title>Node1&#45;&gt;Node3</title>
<path fill="none" stroke="midnightblue" d="M42.5,-112.083C42.5,-105.006 42.5,-94.8611 42.5,-85.9865"/>
<polygon fill="midnightblue" stroke="midnightblue" points="46.0001,-85.751 42.5,-75.7511 39.0001,-85.7511 46.0001,-85.751"/>
</g>
<!-- Node4 -->
<g id="node4" class="node"><title>Node4</title>
<g id="a_node4"><a xlink:href="visitor_8h.html" target="_top" xlink:title="../visitor/visitor.h">
<polygon fill="white" stroke="black" points="82,-56.5 82,-75.5 171,-75.5 171,-56.5 82,-56.5"/>
<text text-anchor="middle" x="126.5" y="-63.5" font-family="Helvetica,sans-Serif" font-size="10.00">../visitor/visitor.h</text>
</a>
</g>
</g>
<!-- Node1&#45;&gt;Node4 -->
<g id="edge3" class="edge"><title>Node1&#45;&gt;Node4</title>
<path fill="none" stroke="midnightblue" d="M55.9961,-112.324C69.0996,-103.9 89.2119,-90.9709 104.607,-81.0741"/>
<polygon fill="midnightblue" stroke="midnightblue" points="106.518,-84.0063 113.037,-75.6545 102.733,-78.118 106.518,-84.0063"/>
</g>
<!-- Node4&#45;&gt;Node2 -->
<g id="edge4" class="edge"><title>Node4&#45;&gt;Node2</title>
<path fill="none" stroke="midnightblue" d="M115.735,-56.324C105.734,-48.2631 90.6135,-36.0765 78.5695,-26.3695"/>
<polygon fill="midnightblue" stroke="midnightblue" points="80.4429,-23.3841 70.4606,-19.8339 76.0502,-28.8343 80.4429,-23.3841"/>
</g>
</g>
</svg>
