<?xml version="1.0" encoding="UTF-8" standalone="no"?>
<!DOCTYPE svg PUBLIC "-//W3C//DTD SVG 1.1//EN"
 "http://www.w3.org/Graphics/SVG/1.1/DTD/svg11.dtd">
<!-- Generated by graphviz version 2.38.0 (20140413.2041)
 -->
<!-- Title: visitor::Visitor Pages: 1 -->
<svg width="363pt" height="84pt"
 viewBox="0.00 0.00 363.00 84.00" xmlns="http://www.w3.org/2000/svg" xmlns:xlink="http://www.w3.org/1999/xlink">
<g id="graph0" class="graph" transform="scale(1 1) rotate(0) translate(4 80)">
<title>visitor::Visitor</title>
<polygon fill="white" stroke="none" points="-4,4 -4,-80 359,-80 359,4 -4,4"/>
<!-- Node1 -->
<g id="node1" class="node"><title>Node1</title>
<polygon fill="#bfbfbf" stroke="black" points="137,-56.5 137,-75.5 214,-75.5 214,-56.5 137,-56.5"/>
<text text-anchor="middle" x="175.5" y="-63.5" font-family="Helvetica,sans-Serif" font-size="10.00">visitor::Visitor</text>
</g>
<!-- Node2 -->
<g id="node2" class="node"><title>Node2</title>
<g id="a_node2"><a xlink:href="classvisitor_1_1_interpreter.html" target="_top" xlink:title="visitor::Interpreter">
<polygon fill="white" stroke="black" points="0,-0.5 0,-19.5 93,-19.5 93,-0.5 0,-0.5"/>
<text text-anchor="middle" x="46.5" y="-7.5" font-family="Helvetica,sans-Serif" font-size="10.00">visitor::Interpreter</text>
</a>
</g>
</g>
<!-- Node1&#45;&gt;Node2 -->
<g id="edge1" class="edge"><title>Node1&#45;&gt;Node2</title>
<path fill="none" stroke="midnightblue" d="M145.646,-52.503C121.462,-42.3795 88.038,-28.388 66.8448,-19.5164"/>
<polygon fill="midnightblue" stroke="midnightblue" points="144.484,-55.8106 155.06,-56.4435 147.187,-49.3536 144.484,-55.8106"/>
</g>
<!-- Node3 -->
<g id="node3" class="node"><title>Node3</title>
<g id="a_node3"><a xlink:href="classvisitor_1_1_semantic_analyser.html" target="_top" xlink:title="visitor::SemanticAnalyser">
<polygon fill="white" stroke="black" points="111.5,-0.5 111.5,-19.5 239.5,-19.5 239.5,-0.5 111.5,-0.5"/>
<text text-anchor="middle" x="175.5" y="-7.5" font-family="Helvetica,sans-Serif" font-size="10.00">visitor::SemanticAnalyser</text>
</a>
</g>
</g>
<!-- Node1&#45;&gt;Node3 -->
<g id="edge2" class="edge"><title>Node1&#45;&gt;Node3</title>
<path fill="none" stroke="#8b1a1a" d="M175.5,-45.8045C175.5,-36.9102 175.5,-26.7798 175.5,-19.7511"/>
<polygon fill="#8b1a1a" stroke="#8b1a1a" points="172,-46.083 175.5,-56.083 179,-46.083 172,-46.083"/>
</g>
<!-- Node4 -->
<g id="node4" class="node"><title>Node4</title>
<g id="a_node4"><a xlink:href="classvisitor_1_1_x_m_l_visitor.html" target="_top" xlink:title="visitor::XMLVisitor">
<polygon fill="white" stroke="black" points="258,-0.5 258,-19.5 355,-19.5 355,-0.5 258,-0.5"/>
<text text-anchor="middle" x="306.5" y="-7.5" font-family="Helvetica,sans-Serif" font-size="10.00">visitor::XMLVisitor</text>
</a>
</g>
</g>
<!-- Node1&#45;&gt;Node4 -->
<g id="edge3" class="edge"><title>Node1&#45;&gt;Node4</title>
<path fill="none" stroke="midnightblue" d="M205.817,-52.503C230.376,-42.3795 264.318,-28.388 285.84,-19.5164"/>
<polygon fill="midnightblue" stroke="midnightblue" points="204.169,-49.3966 196.257,-56.4435 206.837,-55.8683 204.169,-49.3966"/>
</g>
</g>
</svg>
