<?xml version="1.0" encoding="UTF-8" standalone="no"?>
<!DOCTYPE svg PUBLIC "-//W3C//DTD SVG 1.1//EN"
 "http://www.w3.org/Graphics/SVG/1.1/DTD/svg11.dtd">
<!-- Generated by graphviz version 2.38.0 (20140413.2041)
 -->
<!-- Title: parser::ASTBinaryExprNode Pages: 1 -->
<svg width="148pt" height="163pt"
 viewBox="0.00 0.00 148.00 163.00" xmlns="http://www.w3.org/2000/svg" xmlns:xlink="http://www.w3.org/1999/xlink">
<g id="graph0" class="graph" transform="scale(1 1) rotate(0) translate(4 159)">
<title>parser::ASTBinaryExprNode</title>
<polygon fill="white" stroke="none" points="-4,4 -4,-159 144,-159 144,4 -4,4"/>
<!-- Node1 -->
<g id="node1" class="node"><title>Node1</title>
<polygon fill="#bfbfbf" stroke="black" points="0,-0.5 0,-19.5 140,-19.5 140,-0.5 0,-0.5"/>
<text text-anchor="middle" x="70" y="-7.5" font-family="Helvetica,sans-Serif" font-size="10.00">parser::ASTBinaryExprNode</text>
</g>
<!-- Node2 -->
<g id="node2" class="node"><title>Node2</title>
<g id="a_node2"><a xlink:href="classparser_1_1_a_s_t_expr_node.html" target="_top" xlink:title="parser::ASTExprNode">
<polygon fill="white" stroke="black" points="13.5,-78.5 13.5,-97.5 126.5,-97.5 126.5,-78.5 13.5,-78.5"/>
<text text-anchor="middle" x="70" y="-85.5" font-family="Helvetica,sans-Serif" font-size="10.00">parser::ASTExprNode</text>
</a>
</g>
</g>
<!-- Node2&#45;&gt;Node1 -->
<g id="edge1" class="edge"><title>Node2&#45;&gt;Node1</title>
<path fill="none" stroke="midnightblue" d="M68.4399,-68.3825C68.2572,-65.5753 68.1003,-62.7126 68,-60 67.6386,-50.2289 67.6386,-47.7711 68,-38 68.2293,-31.7998 68.7539,-24.8151 69.2083,-19.5033"/>
<polygon fill="midnightblue" stroke="midnightblue" points="64.9607,-68.7906 69.2083,-78.4967 71.9406,-68.2602 64.9607,-68.7906"/>
</g>
<!-- Node2&#45;&gt;Node1 -->
<g id="edge3" class="edge"><title>Node2&#45;&gt;Node1</title>
<path fill="none" stroke="#9a32cd" stroke-dasharray="5,2" d="M70,-68.2239C70,-52.6974 70,-31.3582 70,-19.6165"/>
<polygon fill="#9a32cd" stroke="#9a32cd" points="66.5001,-68.2818 70,-78.2818 73.5001,-68.2819 66.5001,-68.2818"/>
<text text-anchor="middle" x="81" y="-52" font-family="Helvetica,sans-Serif" font-size="10.00"> right</text>
<text text-anchor="middle" x="81" y="-41" font-family="Helvetica,sans-Serif" font-size="10.00">left</text>
</g>
<!-- Node3 -->
<g id="node3" class="node"><title>Node3</title>
<g id="a_node3"><a xlink:href="classparser_1_1_a_s_t_node.html" target="_top" xlink:title="parser::ASTNode">
<polygon fill="white" stroke="black" points="24,-135.5 24,-154.5 116,-154.5 116,-135.5 24,-135.5"/>
<text text-anchor="middle" x="70" y="-142.5" font-family="Helvetica,sans-Serif" font-size="10.00">parser::ASTNode</text>
</a>
</g>
</g>
<!-- Node3&#45;&gt;Node2 -->
<g id="edge2" class="edge"><title>Node3&#45;&gt;Node2</title>
<path fill="none" stroke="midnightblue" d="M70,-125.117C70,-115.817 70,-105.056 70,-97.7149"/>
<polygon fill="midnightblue" stroke="midnightblue" points="66.5001,-125.406 70,-135.406 73.5001,-125.406 66.5001,-125.406"/>
</g>
</g>
</svg>
