<?xml version="1.0" encoding="UTF-8" standalone="no"?>
<!DOCTYPE svg PUBLIC "-//W3C//DTD SVG 1.1//EN"
 "http://www.w3.org/Graphics/SVG/1.1/DTD/svg11.dtd">
<!-- Generated by graphviz version 2.38.0 (20140413.2041)
 -->
<!-- Title: visitor::Interpreter Pages: 1 -->
<svg width="204pt" height="106pt"
 viewBox="0.00 0.00 203.50 106.00" xmlns="http://www.w3.org/2000/svg" xmlns:xlink="http://www.w3.org/1999/xlink">
<g id="graph0" class="graph" transform="scale(1 1) rotate(0) translate(4 102)">
<title>visitor::Interpreter</title>
<polygon fill="white" stroke="none" points="-4,4 -4,-102 199.5,-102 199.5,4 -4,4"/>
<!-- Node1 -->
<g id="node1" class="node"><title>Node1</title>
<polygon fill="#bfbfbf" stroke="black" points="35,-0.5 35,-19.5 128,-19.5 128,-0.5 35,-0.5"/>
<text text-anchor="middle" x="81.5" y="-7.5" font-family="Helvetica,sans-Serif" font-size="10.00">visitor::Interpreter</text>
</g>
<!-- Node2 -->
<g id="node2" class="node"><title>Node2</title>
<g id="a_node2"><a xlink:href="classvisitor_1_1_visitor.html" target="_top" xlink:title="visitor::Visitor">
<polygon fill="white" stroke="black" points="0,-78.5 0,-97.5 77,-97.5 77,-78.5 0,-78.5"/>
<text text-anchor="middle" x="38.5" y="-85.5" font-family="Helvetica,sans-Serif" font-size="10.00">visitor::Visitor</text>
</a>
</g>
</g>
<!-- Node2&#45;&gt;Node1 -->
<g id="edge1" class="edge"><title>Node2&#45;&gt;Node1</title>
<path fill="none" stroke="midnightblue" d="M48.3643,-69.5654C57.2001,-53.9486 69.7881,-31.7002 76.6249,-19.6165"/>
<polygon fill="midnightblue" stroke="midnightblue" points="45.3108,-67.8548 43.4326,-78.2818 51.4033,-71.3019 45.3108,-67.8548"/>
</g>
<!-- Node3 -->
<g id="node3" class="node"><title>Node3</title>
<g id="a_node3"><a xlink:href="structvisitor_1_1v_t.html" target="_top" xlink:title="visitor::vT">
<polygon fill="white" stroke="black" points="95.5,-78.5 95.5,-97.5 155.5,-97.5 155.5,-78.5 95.5,-78.5"/>
<text text-anchor="middle" x="125.5" y="-85.5" font-family="Helvetica,sans-Serif" font-size="10.00">visitor::vT</text>
</a>
</g>
</g>
<!-- Node3&#45;&gt;Node1 -->
<g id="edge2" class="edge"><title>Node3&#45;&gt;Node1</title>
<path fill="none" stroke="#9a32cd" stroke-dasharray="5,2" d="M115.406,-69.5654C106.365,-53.9486 93.4843,-31.7002 86.4885,-19.6165"/>
<polygon fill="#9a32cd" stroke="#9a32cd" points="112.413,-71.3812 120.453,-78.2818 118.471,-67.8739 112.413,-71.3812"/>
<text text-anchor="start" x="109.5" y="-52" font-family="Helvetica,sans-Serif" font-size="10.00"> current_expression</text>
<text text-anchor="middle" x="152.5" y="-41" font-family="Helvetica,sans-Serif" font-size="10.00">_value</text>
</g>
</g>
</svg>
