<?xml version="1.0" encoding="UTF-8" standalone="no"?>
<!DOCTYPE svg PUBLIC "-//W3C//DTD SVG 1.1//EN"
 "http://www.w3.org/Graphics/SVG/1.1/DTD/svg11.dtd">
<!-- Generated by graphviz version 2.38.0 (20140413.2041)
 -->
<!-- Title: parser::Parser Pages: 1 -->
<svg width="177pt" height="106pt"
 viewBox="0.00 0.00 177.00 106.00" xmlns="http://www.w3.org/2000/svg" xmlns:xlink="http://www.w3.org/1999/xlink">
<g id="graph0" class="graph" transform="scale(1 1) rotate(0) translate(4 102)">
<title>parser::Parser</title>
<polygon fill="white" stroke="none" points="-4,4 -4,-102 173,-102 173,4 -4,4"/>
<!-- Node1 -->
<g id="node1" class="node"><title>Node1</title>
<polygon fill="#bfbfbf" stroke="black" points="39,-0.5 39,-19.5 117,-19.5 117,-0.5 39,-0.5"/>
<text text-anchor="middle" x="78" y="-7.5" font-family="Helvetica,sans-Serif" font-size="10.00">parser::Parser</text>
</g>
<!-- Node2 -->
<g id="node2" class="node"><title>Node2</title>
<g id="a_node2"><a xlink:href="classlexer_1_1_lexer.html" target="_top" xlink:title="Implementation of a table&#45;driven lexer. ">
<polygon fill="white" stroke="black" points="0,-78.5 0,-97.5 68,-97.5 68,-78.5 0,-78.5"/>
<text text-anchor="middle" x="34" y="-85.5" font-family="Helvetica,sans-Serif" font-size="10.00">lexer::Lexer</text>
</a>
</g>
</g>
<!-- Node2&#45;&gt;Node1 -->
<g id="edge1" class="edge"><title>Node2&#45;&gt;Node1</title>
<path fill="none" stroke="#9a32cd" stroke-dasharray="5,2" d="M44.0937,-69.5654C53.135,-53.9486 66.0157,-31.7002 73.0115,-19.6165"/>
<polygon fill="#9a32cd" stroke="#9a32cd" points="41.0288,-67.8739 39.0474,-78.2818 47.0868,-71.3812 41.0288,-67.8739"/>
<text text-anchor="middle" x="70" y="-46.5" font-family="Helvetica,sans-Serif" font-size="10.00"> lex</text>
</g>
<!-- Node3 -->
<g id="node3" class="node"><title>Node3</title>
<g id="a_node3"><a xlink:href="classlexer_1_1_token.html" target="_top" xlink:title="lexer::Token">
<polygon fill="white" stroke="black" points="86.5,-78.5 86.5,-97.5 157.5,-97.5 157.5,-78.5 86.5,-78.5"/>
<text text-anchor="middle" x="122" y="-85.5" font-family="Helvetica,sans-Serif" font-size="10.00">lexer::Token</text>
</a>
</g>
</g>
<!-- Node3&#45;&gt;Node1 -->
<g id="edge2" class="edge"><title>Node3&#45;&gt;Node1</title>
<path fill="none" stroke="#9a32cd" stroke-dasharray="5,2" d="M111.906,-69.5654C102.865,-53.9486 89.9843,-31.7002 82.9885,-19.6165"/>
<polygon fill="#9a32cd" stroke="#9a32cd" points="108.913,-71.3812 116.953,-78.2818 114.971,-67.8739 108.913,-71.3812"/>
<text text-anchor="middle" x="137.5" y="-52" font-family="Helvetica,sans-Serif" font-size="10.00"> current_token</text>
<text text-anchor="middle" x="137.5" y="-41" font-family="Helvetica,sans-Serif" font-size="10.00">next_token</text>
</g>
</g>
</svg>
