<?xml version="1.0" encoding="UTF-8" standalone="no"?>
<!DOCTYPE svg PUBLIC "-//W3C//DTD SVG 1.1//EN"
 "http://www.w3.org/Graphics/SVG/1.1/DTD/svg11.dtd">
<!-- Generated by graphviz version 2.38.0 (20140413.2041)
 -->
<!-- Title: parser::ASTWhileNode Pages: 1 -->
<svg width="231pt" height="228pt"
 viewBox="0.00 0.00 230.81 228.00" xmlns="http://www.w3.org/2000/svg" xmlns:xlink="http://www.w3.org/1999/xlink">
<g id="graph0" class="graph" transform="scale(1 1) rotate(0) translate(4 224)">
<title>parser::ASTWhileNode</title>
<polygon fill="white" stroke="none" points="-4,4 -4,-224 226.813,-224 226.813,4 -4,4"/>
<!-- Node1 -->
<g id="node1" class="node"><title>Node1</title>
<polygon fill="#bfbfbf" stroke="black" points="12.8133,-0.5 12.8133,-19.5 129.813,-19.5 129.813,-0.5 12.8133,-0.5"/>
<text text-anchor="middle" x="71.3133" y="-7.5" font-family="Helvetica,sans-Serif" font-size="10.00">parser::ASTWhileNode</text>
</g>
<!-- Node2 -->
<g id="node2" class="node"><title>Node2</title>
<g id="a_node2"><a xlink:href="classparser_1_1_a_s_t_statement_node.html" target="_top" xlink:title="parser::ASTStatementNode">
<polygon fill="white" stroke="black" points="0.813327,-143.5 0.813327,-162.5 137.813,-162.5 137.813,-143.5 0.813327,-143.5"/>
<text text-anchor="middle" x="69.3133" y="-150.5" font-family="Helvetica,sans-Serif" font-size="10.00">parser::ASTStatementNode</text>
</a>
</g>
</g>
<!-- Node2&#45;&gt;Node1 -->
<g id="edge1" class="edge"><title>Node2&#45;&gt;Node1</title>
<path fill="none" stroke="midnightblue" d="M45.2055,-137.962C21.3509,-122.108 -9.8377,-94.8668 3.31333,-67 13.6914,-45.0091 37.4094,-28.7326 53.8933,-19.5553"/>
<polygon fill="midnightblue" stroke="midnightblue" points="43.5607,-141.063 53.8812,-143.459 47.3071,-135.15 43.5607,-141.063"/>
</g>
<!-- Node5 -->
<g id="node5" class="node"><title>Node5</title>
<g id="a_node5"><a xlink:href="classparser_1_1_a_s_t_block_node.html" target="_top" xlink:title="parser::ASTBlockNode">
<polygon fill="white" stroke="black" points="12.8133,-67.5 12.8133,-86.5 129.813,-86.5 129.813,-67.5 12.8133,-67.5"/>
<text text-anchor="middle" x="71.3133" y="-74.5" font-family="Helvetica,sans-Serif" font-size="10.00">parser::ASTBlockNode</text>
</a>
</g>
</g>
<!-- Node2&#45;&gt;Node5 -->
<g id="edge6" class="edge"><title>Node2&#45;&gt;Node5</title>
<path fill="none" stroke="midnightblue" d="M69.8249,-133.072C70.2274,-118.18 70.7698,-98.1111 71.0764,-86.7679"/>
<polygon fill="midnightblue" stroke="midnightblue" points="66.3222,-133.13 69.5506,-143.221 73.3196,-133.319 66.3222,-133.13"/>
</g>
<!-- Node3 -->
<g id="node3" class="node"><title>Node3</title>
<g id="a_node3"><a xlink:href="classparser_1_1_a_s_t_node.html" target="_top" xlink:title="parser::ASTNode">
<polygon fill="white" stroke="black" points="89.3133,-200.5 89.3133,-219.5 181.313,-219.5 181.313,-200.5 89.3133,-200.5"/>
<text text-anchor="middle" x="135.313" y="-207.5" font-family="Helvetica,sans-Serif" font-size="10.00">parser::ASTNode</text>
</a>
</g>
</g>
<!-- Node3&#45;&gt;Node2 -->
<g id="edge2" class="edge"><title>Node3&#45;&gt;Node2</title>
<path fill="none" stroke="midnightblue" d="M117.311,-193.998C105.268,-183.962 89.8386,-171.104 79.7712,-162.715"/>
<polygon fill="midnightblue" stroke="midnightblue" points="115.078,-196.693 125.001,-200.406 119.559,-191.316 115.078,-196.693"/>
</g>
<!-- Node4 -->
<g id="node4" class="node"><title>Node4</title>
<g id="a_node4"><a xlink:href="classparser_1_1_a_s_t_expr_node.html" target="_top" xlink:title="parser::ASTExprNode">
<polygon fill="white" stroke="black" points="109.813,-105.5 109.813,-124.5 222.813,-124.5 222.813,-105.5 109.813,-105.5"/>
<text text-anchor="middle" x="166.313" y="-112.5" font-family="Helvetica,sans-Serif" font-size="10.00">parser::ASTExprNode</text>
</a>
</g>
</g>
<!-- Node3&#45;&gt;Node4 -->
<g id="edge4" class="edge"><title>Node3&#45;&gt;Node4</title>
<path fill="none" stroke="midnightblue" d="M141.347,-190.899C148.011,-170.907 158.458,-139.565 163.459,-124.562"/>
<polygon fill="midnightblue" stroke="midnightblue" points="138.016,-189.824 138.174,-200.417 144.657,-192.037 138.016,-189.824"/>
</g>
<!-- Node4&#45;&gt;Node1 -->
<g id="edge3" class="edge"><title>Node4&#45;&gt;Node1</title>
<path fill="none" stroke="#9a32cd" stroke-dasharray="5,2" d="M157.676,-96.4071C152.693,-87.156 145.915,-75.9175 138.313,-67 121.889,-47.7336 98.3812,-29.7729 84.0212,-19.6132"/>
<polygon fill="#9a32cd" stroke="#9a32cd" points="154.646,-98.169 162.332,-105.462 160.871,-94.9679 154.646,-98.169"/>
<text text-anchor="middle" x="173.813" y="-74.5" font-family="Helvetica,sans-Serif" font-size="10.00"> condition</text>
</g>
<!-- Node5&#45;&gt;Node1 -->
<g id="edge5" class="edge"><title>Node5&#45;&gt;Node1</title>
<path fill="none" stroke="#9a32cd" stroke-dasharray="5,2" d="M71.3133,-57.037C71.3133,-44.6703 71.3133,-29.1198 71.3133,-19.6273"/>
<polygon fill="#9a32cd" stroke="#9a32cd" points="67.8134,-57.2338 71.3133,-67.2338 74.8134,-57.2338 67.8134,-57.2338"/>
<text text-anchor="middle" x="84.8133" y="-41" font-family="Helvetica,sans-Serif" font-size="10.00"> block</text>
</g>
</g>
</svg>
