<?xml version="1.0" encoding="UTF-8" standalone="no"?>
<!DOCTYPE svg PUBLIC "-//W3C//DTD SVG 1.1//EN"
 "http://www.w3.org/Graphics/SVG/1.1/DTD/svg11.dtd">
<!-- Generated by graphviz version 2.38.0 (20140413.2041)
 -->
<!-- Title: parser::ASTFunctionCallNode Pages: 1 -->
<svg width="155pt" height="140pt"
 viewBox="0.00 0.00 155.00 140.00" xmlns="http://www.w3.org/2000/svg" xmlns:xlink="http://www.w3.org/1999/xlink">
<g id="graph0" class="graph" transform="scale(1 1) rotate(0) translate(4 136)">
<title>parser::ASTFunctionCallNode</title>
<polygon fill="white" stroke="none" points="-4,4 -4,-136 151,-136 151,4 -4,4"/>
<!-- Node1 -->
<g id="node1" class="node"><title>Node1</title>
<polygon fill="#bfbfbf" stroke="black" points="0,-0.5 0,-19.5 147,-19.5 147,-0.5 0,-0.5"/>
<text text-anchor="middle" x="73.5" y="-7.5" font-family="Helvetica,sans-Serif" font-size="10.00">parser::ASTFunctionCallNode</text>
</g>
<!-- Node2 -->
<g id="node2" class="node"><title>Node2</title>
<g id="a_node2"><a xlink:href="classparser_1_1_a_s_t_expr_node.html" target="_top" xlink:title="parser::ASTExprNode">
<polygon fill="white" stroke="black" points="17,-56.5 17,-75.5 130,-75.5 130,-56.5 17,-56.5"/>
<text text-anchor="middle" x="73.5" y="-63.5" font-family="Helvetica,sans-Serif" font-size="10.00">parser::ASTExprNode</text>
</a>
</g>
</g>
<!-- Node2&#45;&gt;Node1 -->
<g id="edge1" class="edge"><title>Node2&#45;&gt;Node1</title>
<path fill="none" stroke="midnightblue" d="M73.5,-45.8045C73.5,-36.9102 73.5,-26.7798 73.5,-19.7511"/>
<polygon fill="midnightblue" stroke="midnightblue" points="70.0001,-46.083 73.5,-56.083 77.0001,-46.083 70.0001,-46.083"/>
</g>
<!-- Node3 -->
<g id="node3" class="node"><title>Node3</title>
<g id="a_node3"><a xlink:href="classparser_1_1_a_s_t_node.html" target="_top" xlink:title="parser::ASTNode">
<polygon fill="white" stroke="black" points="27.5,-112.5 27.5,-131.5 119.5,-131.5 119.5,-112.5 27.5,-112.5"/>
<text text-anchor="middle" x="73.5" y="-119.5" font-family="Helvetica,sans-Serif" font-size="10.00">parser::ASTNode</text>
</a>
</g>
</g>
<!-- Node3&#45;&gt;Node2 -->
<g id="edge2" class="edge"><title>Node3&#45;&gt;Node2</title>
<path fill="none" stroke="midnightblue" d="M73.5,-101.805C73.5,-92.9102 73.5,-82.7798 73.5,-75.7511"/>
<polygon fill="midnightblue" stroke="midnightblue" points="70.0001,-102.083 73.5,-112.083 77.0001,-102.083 70.0001,-102.083"/>
</g>
</g>
</svg>
