<?xml version="1.0" encoding="UTF-8" standalone="no"?>
<!DOCTYPE svg PUBLIC "-//W3C//DTD SVG 1.1//EN"
 "http://www.w3.org/Graphics/SVG/1.1/DTD/svg11.dtd">
<!-- Generated by graphviz version 2.38.0 (20140413.2041)
 -->
<!-- Title: src Pages: 1 -->
<svg width="166pt" height="220pt"
 viewBox="0.00 0.00 166.00 220.00" xmlns="http://www.w3.org/2000/svg" xmlns:xlink="http://www.w3.org/1999/xlink">
<g id="graph0" class="graph" transform="scale(1 1) rotate(0) translate(4 216)">
<title>src</title>
<polygon fill="white" stroke="none" points="-4,4 -4,-216 162,-216 162,4 -4,4"/>
<g id="clust1" class="cluster"><title>clusterdir_68267d1309a1af8e8297ef4c3efbcdba</title>
<g id="a_clust1"><a xlink:href="dir_68267d1309a1af8e8297ef4c3efbcdba.html" target="_top">
<polygon fill="#eeeeff" stroke="black" points="8,-8 8,-204 150,-204 150,-8 8,-8"/>
</a>
</g>
</g>
<!-- dir_68267d1309a1af8e8297ef4c3efbcdba -->
<g id="node1" class="node"><title>dir_68267d1309a1af8e8297ef4c3efbcdba</title>
<text text-anchor="middle" x="79" y="-175.5" font-family="Helvetica,sans-Serif" font-size="10.00">src</text>
</g>
<!-- dir_6cd8491d143eb218b70983dbdb3c58bc -->
<g id="node3" class="node"><title>dir_6cd8491d143eb218b70983dbdb3c58bc</title>
<g id="a_node3"><a xlink:href="dir_6cd8491d143eb218b70983dbdb3c58bc.html" target="_top" xlink:title="parser">
<polygon fill="white" stroke="black" points="70,-124 16,-124 16,-88 70,-88 70,-124"/>
<text text-anchor="middle" x="43" y="-103.5" font-family="Helvetica,sans-Serif" font-size="10.00">parser</text>
</a>
</g>
</g>
<!-- dir_68267d1309a1af8e8297ef4c3efbcdba&#45;&gt;dir_6cd8491d143eb218b70983dbdb3c58bc -->
<g id="edge3" class="edge"><title>dir_68267d1309a1af8e8297ef4c3efbcdba&#45;&gt;dir_6cd8491d143eb218b70983dbdb3c58bc</title>
<path fill="none" stroke="black" d="M70.1011,-159.697C66.0032,-151.728 61.0512,-142.1 56.5073,-133.264"/>
<polygon fill="black" stroke="black" points="59.4826,-131.396 51.7965,-124.104 53.2575,-134.598 59.4826,-131.396"/>
<g id="a_edge3&#45;headlabel"><a xlink:href="dir_000000_000002.html" target="_top" xlink:title="4">
<text text-anchor="middle" x="63.6514" y="-130.795" font-family="Helvetica,sans-Serif" font-size="10.00">4</text>
</a>
</g>
</g>
<!-- dir_20706930dc76f634e133f76dc3cfb728 -->
<g id="node4" class="node"><title>dir_20706930dc76f634e133f76dc3cfb728</title>
<g id="a_node4"><a xlink:href="dir_20706930dc76f634e133f76dc3cfb728.html" target="_top" xlink:title="table">
<polygon fill="white" stroke="black" points="142,-124 88,-124 88,-88 142,-88 142,-124"/>
<text text-anchor="middle" x="115" y="-103.5" font-family="Helvetica,sans-Serif" font-size="10.00">table</text>
</a>
</g>
</g>
<!-- dir_68267d1309a1af8e8297ef4c3efbcdba&#45;&gt;dir_20706930dc76f634e133f76dc3cfb728 -->
<g id="edge2" class="edge"><title>dir_68267d1309a1af8e8297ef4c3efbcdba&#45;&gt;dir_20706930dc76f634e133f76dc3cfb728</title>
<path fill="none" stroke="black" d="M87.8989,-159.697C91.9968,-151.728 96.9488,-142.1 101.493,-133.264"/>
<polygon fill="black" stroke="black" points="104.742,-134.598 106.203,-124.104 98.5174,-131.396 104.742,-134.598"/>
<g id="a_edge2&#45;headlabel"><a xlink:href="dir_000000_000003.html" target="_top" xlink:title="1">
<text text-anchor="middle" x="105.623" y="-136.593" font-family="Helvetica,sans-Serif" font-size="10.00">1</text>
</a>
</g>
</g>
<!-- dir_e1aa690b4af0a0538ec65649b0390051 -->
<g id="node2" class="node"><title>dir_e1aa690b4af0a0538ec65649b0390051</title>
<g id="a_node2"><a xlink:href="dir_e1aa690b4af0a0538ec65649b0390051.html" target="_top" xlink:title="lexer">
<polygon fill="white" stroke="black" points="70,-52 16,-52 16,-16 70,-16 70,-52"/>
<text text-anchor="middle" x="43" y="-31.5" font-family="Helvetica,sans-Serif" font-size="10.00">lexer</text>
</a>
</g>
</g>
<!-- dir_6cd8491d143eb218b70983dbdb3c58bc&#45;&gt;dir_e1aa690b4af0a0538ec65649b0390051 -->
<g id="edge5" class="edge"><title>dir_6cd8491d143eb218b70983dbdb3c58bc&#45;&gt;dir_e1aa690b4af0a0538ec65649b0390051</title>
<path fill="none" stroke="black" d="M43,-87.6966C43,-79.9827 43,-70.7125 43,-62.1124"/>
<polygon fill="black" stroke="black" points="46.5001,-62.1043 43,-52.1043 39.5001,-62.1044 46.5001,-62.1043"/>
<g id="a_edge5&#45;headlabel"><a xlink:href="dir_000002_000001.html" target="_top" xlink:title="1">
<text text-anchor="middle" x="49.3393" y="-63.199" font-family="Helvetica,sans-Serif" font-size="10.00">1</text>
</a>
</g>
</g>
<!-- dir_669e93b9d8901d97ff588398cf6c246a -->
<g id="node5" class="node"><title>dir_669e93b9d8901d97ff588398cf6c246a</title>
<g id="a_node5"><a xlink:href="dir_669e93b9d8901d97ff588398cf6c246a.html" target="_top" xlink:title="visitor">
<polygon fill="white" stroke="black" points="142,-52 88,-52 88,-16 142,-16 142,-52"/>
<text text-anchor="middle" x="115" y="-31.5" font-family="Helvetica,sans-Serif" font-size="10.00">visitor</text>
</a>
</g>
</g>
<!-- dir_6cd8491d143eb218b70983dbdb3c58bc&#45;&gt;dir_669e93b9d8901d97ff588398cf6c246a -->
<g id="edge4" class="edge"><title>dir_6cd8491d143eb218b70983dbdb3c58bc&#45;&gt;dir_669e93b9d8901d97ff588398cf6c246a</title>
<path fill="none" stroke="black" d="M54.882,-87.6966C62.8836,-79.0503 73.6114,-68.4486 83.8404,-59.027"/>
<polygon fill="black" stroke="black" points="86.4326,-61.4023 91.5119,-52.1043 81.743,-56.2054 86.4326,-61.4023"/>
<g id="a_edge4&#45;headlabel"><a xlink:href="dir_000002_000004.html" target="_top" xlink:title="1">
<text text-anchor="middle" x="85.6661" y="-63.4183" font-family="Helvetica,sans-Serif" font-size="10.00">1</text>
</a>
</g>
</g>
<!-- dir_669e93b9d8901d97ff588398cf6c246a&#45;&gt;dir_6cd8491d143eb218b70983dbdb3c58bc -->
<g id="edge1" class="edge"><title>dir_669e93b9d8901d97ff588398cf6c246a&#45;&gt;dir_6cd8491d143eb218b70983dbdb3c58bc</title>
<path fill="none" stroke="black" d="M103.302,-52.1043C95.3426,-60.7205 84.6321,-71.316 74.3956,-80.7555"/>
<polygon fill="black" stroke="black" points="71.7869,-78.3955 66.7135,-87.6966 76.4798,-83.5894 71.7869,-78.3955"/>
<g id="a_edge1&#45;headlabel"><a xlink:href="dir_000004_000002.html" target="_top" xlink:title="3">
<text text-anchor="middle" x="72.5505" y="-71.3789" font-family="Helvetica,sans-Serif" font-size="10.00">3</text>
</a>
</g>
</g>
</g>
</svg>
