<?xml version="1.0" encoding="UTF-8" standalone="no"?>
<!DOCTYPE svg PUBLIC "-//W3C//DTD SVG 1.1//EN"
 "http://www.w3.org/Graphics/SVG/1.1/DTD/svg11.dtd">
<!-- Generated by graphviz version 2.38.0 (20140413.2041)
 -->
<!-- Title: src/parser Pages: 1 -->
<svg width="134pt" height="151pt"
 viewBox="0.00 0.00 134.00 151.00" xmlns="http://www.w3.org/2000/svg" xmlns:xlink="http://www.w3.org/1999/xlink">
<g id="graph0" class="graph" transform="scale(1 1) rotate(0) translate(4 147)">
<title>src/parser</title>
<polygon fill="white" stroke="none" points="-4,4 -4,-147 130,-147 130,4 -4,4"/>
<g id="clust1" class="cluster"><title>clusterdir_68267d1309a1af8e8297ef4c3efbcdba</title>
<g id="a_clust1"><a xlink:href="dir_68267d1309a1af8e8297ef4c3efbcdba.html" target="_top" xlink:title="src">
<polygon fill="#ddddee" stroke="black" points="28,-64 28,-135 98,-135 98,-64 28,-64"/>
<text text-anchor="middle" x="63" y="-123" font-family="Helvetica,sans-Serif" font-size="10.00">src</text>
</a>
</g>
</g>
<!-- dir_6cd8491d143eb218b70983dbdb3c58bc -->
<g id="node1" class="node"><title>dir_6cd8491d143eb218b70983dbdb3c58bc</title>
<g id="a_node1"><a xlink:href="dir_6cd8491d143eb218b70983dbdb3c58bc.html" target="_top" xlink:title="parser">
<polygon fill="#eeeeff" stroke="black" points="90,-108 36,-108 36,-72 90,-72 90,-108"/>
<text text-anchor="middle" x="63" y="-87.5" font-family="Helvetica,sans-Serif" font-size="10.00">parser</text>
</a>
</g>
</g>
<!-- dir_669e93b9d8901d97ff588398cf6c246a -->
<g id="node2" class="node"><title>dir_669e93b9d8901d97ff588398cf6c246a</title>
<g id="a_node2"><a xlink:href="dir_669e93b9d8901d97ff588398cf6c246a.html" target="_top" xlink:title="visitor">
<polygon fill="none" stroke="black" points="54,-36 0,-36 0,-0 54,-0 54,-36"/>
<text text-anchor="middle" x="27" y="-15.5" font-family="Helvetica,sans-Serif" font-size="10.00">visitor</text>
</a>
</g>
</g>
<!-- dir_6cd8491d143eb218b70983dbdb3c58bc&#45;&gt;dir_669e93b9d8901d97ff588398cf6c246a -->
<g id="edge2" class="edge"><title>dir_6cd8491d143eb218b70983dbdb3c58bc&#45;&gt;dir_669e93b9d8901d97ff588398cf6c246a</title>
<path fill="none" stroke="black" d="M48.1854,-71.6966C43.2655,-63.7284 38.0989,-54.0995 33.9477,-45.2641"/>
<polygon fill="black" stroke="black" points="37.1438,-43.8373 29.9015,-36.1043 30.7407,-46.6659 37.1438,-43.8373"/>
<g id="a_edge2&#45;headlabel"><a xlink:href="dir_000002_000004.html" target="_top" xlink:title="1">
<text text-anchor="middle" x="41.1934" y="-43.4782" font-family="Helvetica,sans-Serif" font-size="10.00">1</text>
</a>
</g>
</g>
<!-- dir_e1aa690b4af0a0538ec65649b0390051 -->
<g id="node3" class="node"><title>dir_e1aa690b4af0a0538ec65649b0390051</title>
<g id="a_node3"><a xlink:href="dir_e1aa690b4af0a0538ec65649b0390051.html" target="_top" xlink:title="lexer">
<polygon fill="none" stroke="black" points="126,-36 72,-36 72,-0 126,-0 126,-36"/>
<text text-anchor="middle" x="99" y="-15.5" font-family="Helvetica,sans-Serif" font-size="10.00">lexer</text>
</a>
</g>
</g>
<!-- dir_6cd8491d143eb218b70983dbdb3c58bc&#45;&gt;dir_e1aa690b4af0a0538ec65649b0390051 -->
<g id="edge3" class="edge"><title>dir_6cd8491d143eb218b70983dbdb3c58bc&#45;&gt;dir_e1aa690b4af0a0538ec65649b0390051</title>
<path fill="none" stroke="black" d="M71.8989,-71.6966C75.9968,-63.7284 80.9488,-54.0995 85.4927,-45.2641"/>
<polygon fill="black" stroke="black" points="88.7425,-46.598 90.2035,-36.1043 82.5174,-43.3965 88.7425,-46.598"/>
<g id="a_edge3&#45;headlabel"><a xlink:href="dir_000002_000001.html" target="_top" xlink:title="1">
<text text-anchor="middle" x="89.6235" y="-48.5931" font-family="Helvetica,sans-Serif" font-size="10.00">1</text>
</a>
</g>
</g>
<!-- dir_669e93b9d8901d97ff588398cf6c246a&#45;&gt;dir_6cd8491d143eb218b70983dbdb3c58bc -->
<g id="edge1" class="edge"><title>dir_669e93b9d8901d97ff588398cf6c246a&#45;&gt;dir_6cd8491d143eb218b70983dbdb3c58bc</title>
<path fill="none" stroke="black" d="M41.6915,-36.1043C46.6072,-44.0447 51.7801,-53.6661 55.9482,-62.5146"/>
<polygon fill="black" stroke="black" points="52.7657,-63.9719 60.0168,-71.6966 59.1655,-61.136 52.7657,-63.9719"/>
<g id="a_edge1&#45;headlabel"><a xlink:href="dir_000004_000002.html" target="_top" xlink:title="3">
<text text-anchor="middle" x="48.7136" y="-59.3357" font-family="Helvetica,sans-Serif" font-size="10.00">3</text>
</a>
</g>
</g>
</g>
</svg>
