<?xml version="1.0" encoding="UTF-8" standalone="no"?>
<!DOCTYPE svg PUBLIC "-//W3C//DTD SVG 1.1//EN"
 "http://www.w3.org/Graphics/SVG/1.1/DTD/svg11.dtd">
<!-- Generated by graphviz version 2.38.0 (20140413.2041)
 -->
<!-- Title: Graphical Class Hierarchy Pages: 1 -->
<svg width="249pt" height="104pt"
 viewBox="0.00 0.00 249.00 104.00" xmlns="http://www.w3.org/2000/svg" xmlns:xlink="http://www.w3.org/1999/xlink">
<g id="graph0" class="graph" transform="scale(1 1) rotate(0) translate(4 100)">
<title>Graphical Class Hierarchy</title>
<polygon fill="white" stroke="none" points="-4,4 -4,-100 245,-100 245,4 -4,4"/>
<!-- Node1 -->
<g id="node1" class="node"><title>Node1</title>
<g id="a_node1"><a xlink:href="classvisitor_1_1_visitor.html" target="_top" xlink:title="visitor::Visitor">
<polygon fill="white" stroke="black" points="0,-38.5 0,-57.5 77,-57.5 77,-38.5 0,-38.5"/>
<text text-anchor="middle" x="38.5" y="-45.5" font-family="Helvetica,sans-Serif" font-size="10.00">visitor::Visitor</text>
</a>
</g>
</g>
<!-- Node2 -->
<g id="node2" class="node"><title>Node2</title>
<g id="a_node2"><a xlink:href="classvisitor_1_1_interpreter.html" target="_top" xlink:title="visitor::Interpreter">
<polygon fill="white" stroke="black" points="130.5,-76.5 130.5,-95.5 223.5,-95.5 223.5,-76.5 130.5,-76.5"/>
<text text-anchor="middle" x="177" y="-83.5" font-family="Helvetica,sans-Serif" font-size="10.00">visitor::Interpreter</text>
</a>
</g>
</g>
<!-- Node1&#45;&gt;Node2 -->
<g id="edge1" class="edge"><title>Node1&#45;&gt;Node2</title>
<path fill="none" stroke="midnightblue" d="M83.7487,-60.3183C102.503,-65.5393 124.028,-71.5316 141.566,-76.4141"/>
<polygon fill="midnightblue" stroke="midnightblue" points="84.5171,-56.8992 73.9447,-57.589 82.6397,-63.6428 84.5171,-56.8992"/>
</g>
<!-- Node3 -->
<g id="node3" class="node"><title>Node3</title>
<g id="a_node3"><a xlink:href="classvisitor_1_1_semantic_analyser.html" target="_top" xlink:title="visitor::SemanticAnalyser">
<polygon fill="white" stroke="black" points="113,-38.5 113,-57.5 241,-57.5 241,-38.5 113,-38.5"/>
<text text-anchor="middle" x="177" y="-45.5" font-family="Helvetica,sans-Serif" font-size="10.00">visitor::SemanticAnalyser</text>
</a>
</g>
</g>
<!-- Node1&#45;&gt;Node3 -->
<g id="edge2" class="edge"><title>Node1&#45;&gt;Node3</title>
<path fill="none" stroke="#8b1a1a" d="M87.3156,-48C95.5495,-48 104.221,-48 112.785,-48"/>
<polygon fill="#8b1a1a" stroke="#8b1a1a" points="87.1606,-44.5001 77.1606,-48 87.1605,-51.5001 87.1606,-44.5001"/>
</g>
<!-- Node4 -->
<g id="node4" class="node"><title>Node4</title>
<g id="a_node4"><a xlink:href="classvisitor_1_1_x_m_l_visitor.html" target="_top" xlink:title="visitor::XMLVisitor">
<polygon fill="white" stroke="black" points="128.5,-0.5 128.5,-19.5 225.5,-19.5 225.5,-0.5 128.5,-0.5"/>
<text text-anchor="middle" x="177" y="-7.5" font-family="Helvetica,sans-Serif" font-size="10.00">visitor::XMLVisitor</text>
</a>
</g>
</g>
<!-- Node1&#45;&gt;Node4 -->
<g id="edge3" class="edge"><title>Node1&#45;&gt;Node4</title>
<path fill="none" stroke="midnightblue" d="M83.7487,-35.6817C102.503,-30.4607 124.028,-24.4684 141.566,-19.5859"/>
<polygon fill="midnightblue" stroke="midnightblue" points="82.6397,-32.3572 73.9447,-38.411 84.5171,-39.1008 82.6397,-32.3572"/>
</g>
</g>
</svg>
