<?xml version="1.0" encoding="UTF-8" standalone="no"?>
<!DOCTYPE svg PUBLIC "-//W3C//DTD SVG 1.1//EN"
 "http://www.w3.org/Graphics/SVG/1.1/DTD/svg11.dtd">
<!-- Generated by graphviz version 2.38.0 (20140413.2041)
 -->
<!-- Title: src/visitor/interpreter.h Pages: 1 -->
<svg width="263pt" height="196pt"
 viewBox="0.00 0.00 262.50 196.00" xmlns="http://www.w3.org/2000/svg" xmlns:xlink="http://www.w3.org/1999/xlink">
<g id="graph0" class="graph" transform="scale(1 1) rotate(0) translate(4 192)">
<title>src/visitor/interpreter.h</title>
<polygon fill="white" stroke="none" points="-4,4 -4,-192 258.5,-192 258.5,4 -4,4"/>
<!-- Node1 -->
<g id="node1" class="node"><title>Node1</title>
<polygon fill="#bfbfbf" stroke="black" points="40.5,-168.5 40.5,-187.5 154.5,-187.5 154.5,-168.5 40.5,-168.5"/>
<text text-anchor="middle" x="97.5" y="-175.5" font-family="Helvetica,sans-Serif" font-size="10.00">src/visitor/interpreter.h</text>
</g>
<!-- Node2 -->
<g id="node2" class="node"><title>Node2</title>
<polygon fill="white" stroke="#bfbfbf" points="0,-112.5 0,-131.5 35,-131.5 35,-112.5 0,-112.5"/>
<text text-anchor="middle" x="17.5" y="-119.5" font-family="Helvetica,sans-Serif" font-size="10.00">map</text>
</g>
<!-- Node1&#45;&gt;Node2 -->
<g id="edge1" class="edge"><title>Node1&#45;&gt;Node2</title>
<path fill="none" stroke="midnightblue" d="M84.6466,-168.324C72.2836,-159.979 53.3699,-147.212 38.7628,-137.352"/>
<polygon fill="midnightblue" stroke="midnightblue" points="40.5682,-134.348 30.3215,-131.655 36.6518,-140.15 40.5682,-134.348"/>
</g>
<!-- Node3 -->
<g id="node3" class="node"><title>Node3</title>
<polygon fill="white" stroke="#bfbfbf" points="53,-112.5 53,-131.5 94,-131.5 94,-112.5 53,-112.5"/>
<text text-anchor="middle" x="73.5" y="-119.5" font-family="Helvetica,sans-Serif" font-size="10.00">stack</text>
</g>
<!-- Node1&#45;&gt;Node3 -->
<g id="edge2" class="edge"><title>Node1&#45;&gt;Node3</title>
<path fill="none" stroke="midnightblue" d="M93.5369,-168.083C90.2867,-160.77 85.5806,-150.181 81.546,-141.103"/>
<polygon fill="midnightblue" stroke="midnightblue" points="84.6492,-139.468 77.3894,-131.751 78.2525,-142.311 84.6492,-139.468"/>
</g>
<!-- Node4 -->
<g id="node4" class="node"><title>Node4</title>
<g id="a_node4"><a xlink:href="visitor_8h.html" target="_top" xlink:title="visitor.h">
<polygon fill="white" stroke="black" points="103,-56.5 103,-75.5 154,-75.5 154,-56.5 103,-56.5"/>
<text text-anchor="middle" x="128.5" y="-63.5" font-family="Helvetica,sans-Serif" font-size="10.00">visitor.h</text>
</a>
</g>
</g>
<!-- Node1&#45;&gt;Node4 -->
<g id="edge3" class="edge"><title>Node1&#45;&gt;Node4</title>
<path fill="none" stroke="midnightblue" d="M99.9325,-168.368C104.958,-150.537 116.58,-109.295 123.351,-85.2717"/>
<polygon fill="midnightblue" stroke="midnightblue" points="126.735,-86.1659 126.079,-75.5914 119.997,-84.2671 126.735,-86.1659"/>
</g>
<!-- Node6 -->
<g id="node6" class="node"><title>Node6</title>
<g id="a_node6"><a xlink:href="ast_8h.html" target="_top" xlink:title="../parser/ast.h">
<polygon fill="white" stroke="black" points="151,-112.5 151,-131.5 228,-131.5 228,-112.5 151,-112.5"/>
<text text-anchor="middle" x="189.5" y="-119.5" font-family="Helvetica,sans-Serif" font-size="10.00">../parser/ast.h</text>
</a>
</g>
</g>
<!-- Node1&#45;&gt;Node6 -->
<g id="edge5" class="edge"><title>Node1&#45;&gt;Node6</title>
<path fill="none" stroke="midnightblue" d="M112.281,-168.324C126.767,-159.822 149.073,-146.729 165.993,-136.797"/>
<polygon fill="midnightblue" stroke="midnightblue" points="167.903,-139.735 174.755,-131.655 164.359,-133.698 167.903,-139.735"/>
</g>
<!-- Node5 -->
<g id="node5" class="node"><title>Node5</title>
<polygon fill="white" stroke="#bfbfbf" points="135,-0.5 135,-19.5 176,-19.5 176,-0.5 135,-0.5"/>
<text text-anchor="middle" x="155.5" y="-7.5" font-family="Helvetica,sans-Serif" font-size="10.00">string</text>
</g>
<!-- Node4&#45;&gt;Node5 -->
<g id="edge4" class="edge"><title>Node4&#45;&gt;Node5</title>
<path fill="none" stroke="midnightblue" d="M132.959,-56.083C136.654,-48.6913 142.023,-37.9533 146.594,-28.8111"/>
<polygon fill="midnightblue" stroke="midnightblue" points="149.783,-30.2606 151.124,-19.7511 143.522,-27.1301 149.783,-30.2606"/>
</g>
<!-- Node6&#45;&gt;Node4 -->
<g id="edge8" class="edge"><title>Node6&#45;&gt;Node4</title>
<path fill="none" stroke="midnightblue" d="M179.699,-112.324C170.682,-104.341 157.094,-92.3128 146.182,-82.6529"/>
<polygon fill="midnightblue" stroke="midnightblue" points="148.287,-79.8416 138.479,-75.8339 143.647,-85.083 148.287,-79.8416"/>
</g>
<!-- Node6&#45;&gt;Node5 -->
<g id="edge6" class="edge"><title>Node6&#45;&gt;Node5</title>
<path fill="none" stroke="midnightblue" d="M186.832,-112.368C181.32,-94.5366 168.573,-53.2953 161.148,-29.2717"/>
<polygon fill="midnightblue" stroke="midnightblue" points="164.453,-28.1119 158.156,-19.5914 157.765,-30.179 164.453,-28.1119"/>
</g>
<!-- Node7 -->
<g id="node7" class="node"><title>Node7</title>
<polygon fill="white" stroke="#bfbfbf" points="210.5,-56.5 210.5,-75.5 254.5,-75.5 254.5,-56.5 210.5,-56.5"/>
<text text-anchor="middle" x="232.5" y="-63.5" font-family="Helvetica,sans-Serif" font-size="10.00">vector</text>
</g>
<!-- Node6&#45;&gt;Node7 -->
<g id="edge7" class="edge"><title>Node6&#45;&gt;Node7</title>
<path fill="none" stroke="midnightblue" d="M196.601,-112.083C202.737,-104.377 211.77,-93.0333 219.239,-83.6531"/>
<polygon fill="midnightblue" stroke="midnightblue" points="222.04,-85.7542 225.532,-75.7511 216.564,-81.3936 222.04,-85.7542"/>
</g>
</g>
</svg>
