<?xml version="1.0" encoding="UTF-8" standalone="no"?>
<!DOCTYPE svg PUBLIC "-//W3C//DTD SVG 1.1//EN"
 "http://www.w3.org/Graphics/SVG/1.1/DTD/svg11.dtd">
<!-- Generated by graphviz version 2.38.0 (20140413.2041)
 -->
<!-- Title: src/visitor/interpreter.cpp Pages: 1 -->
<svg width="270pt" height="252pt"
 viewBox="0.00 0.00 270.00 252.00" xmlns="http://www.w3.org/2000/svg" xmlns:xlink="http://www.w3.org/1999/xlink">
<g id="graph0" class="graph" transform="scale(1 1) rotate(0) translate(4 248)">
<title>src/visitor/interpreter.cpp</title>
<polygon fill="white" stroke="none" points="-4,4 -4,-248 266,-248 266,4 -4,4"/>
<!-- Node1 -->
<g id="node1" class="node"><title>Node1</title>
<polygon fill="#bfbfbf" stroke="black" points="3.5,-224.5 3.5,-243.5 128.5,-243.5 128.5,-224.5 3.5,-224.5"/>
<text text-anchor="middle" x="66" y="-231.5" font-family="Helvetica,sans-Serif" font-size="10.00">src/visitor/interpreter.cpp</text>
</g>
<!-- Node2 -->
<g id="node2" class="node"><title>Node2</title>
<polygon fill="white" stroke="#bfbfbf" points="0,-168.5 0,-187.5 54,-187.5 54,-168.5 0,-168.5"/>
<text text-anchor="middle" x="27" y="-175.5" font-family="Helvetica,sans-Serif" font-size="10.00">iostream</text>
</g>
<!-- Node1&#45;&gt;Node2 -->
<g id="edge1" class="edge"><title>Node1&#45;&gt;Node2</title>
<path fill="none" stroke="midnightblue" d="M59.5599,-224.083C54.0511,-216.455 45.9688,-205.264 39.235,-195.941"/>
<polygon fill="midnightblue" stroke="midnightblue" points="42.0126,-193.809 33.3202,-187.751 36.3378,-197.907 42.0126,-193.809"/>
</g>
<!-- Node3 -->
<g id="node3" class="node"><title>Node3</title>
<g id="a_node3"><a xlink:href="interpreter_8h.html" target="_top" xlink:title="interpreter.h">
<polygon fill="white" stroke="black" points="72,-168.5 72,-187.5 140,-187.5 140,-168.5 72,-168.5"/>
<text text-anchor="middle" x="106" y="-175.5" font-family="Helvetica,sans-Serif" font-size="10.00">interpreter.h</text>
</a>
</g>
</g>
<!-- Node1&#45;&gt;Node3 -->
<g id="edge2" class="edge"><title>Node1&#45;&gt;Node3</title>
<path fill="none" stroke="midnightblue" d="M72.6052,-224.083C78.2552,-216.455 86.5448,-205.264 93.4512,-195.941"/>
<polygon fill="midnightblue" stroke="midnightblue" points="96.3779,-197.87 99.5177,-187.751 90.7529,-193.703 96.3779,-197.87"/>
</g>
<!-- Node4 -->
<g id="node4" class="node"><title>Node4</title>
<polygon fill="white" stroke="#bfbfbf" points="7.5,-112.5 7.5,-131.5 42.5,-131.5 42.5,-112.5 7.5,-112.5"/>
<text text-anchor="middle" x="25" y="-119.5" font-family="Helvetica,sans-Serif" font-size="10.00">map</text>
</g>
<!-- Node3&#45;&gt;Node4 -->
<g id="edge3" class="edge"><title>Node3&#45;&gt;Node4</title>
<path fill="none" stroke="midnightblue" d="M92.9859,-168.324C80.4684,-159.979 61.3183,-147.212 46.5286,-137.352"/>
<polygon fill="midnightblue" stroke="midnightblue" points="48.2437,-134.289 37.9818,-131.655 44.3608,-140.114 48.2437,-134.289"/>
</g>
<!-- Node5 -->
<g id="node5" class="node"><title>Node5</title>
<polygon fill="white" stroke="#bfbfbf" points="60.5,-112.5 60.5,-131.5 101.5,-131.5 101.5,-112.5 60.5,-112.5"/>
<text text-anchor="middle" x="81" y="-119.5" font-family="Helvetica,sans-Serif" font-size="10.00">stack</text>
</g>
<!-- Node3&#45;&gt;Node5 -->
<g id="edge4" class="edge"><title>Node3&#45;&gt;Node5</title>
<path fill="none" stroke="midnightblue" d="M101.872,-168.083C98.4861,-160.77 93.584,-150.181 89.3812,-141.103"/>
<polygon fill="midnightblue" stroke="midnightblue" points="92.4289,-139.355 85.0514,-131.751 86.0766,-142.296 92.4289,-139.355"/>
</g>
<!-- Node6 -->
<g id="node6" class="node"><title>Node6</title>
<g id="a_node6"><a xlink:href="visitor_8h.html" target="_top" xlink:title="visitor.h">
<polygon fill="white" stroke="black" points="110.5,-56.5 110.5,-75.5 161.5,-75.5 161.5,-56.5 110.5,-56.5"/>
<text text-anchor="middle" x="136" y="-63.5" font-family="Helvetica,sans-Serif" font-size="10.00">visitor.h</text>
</a>
</g>
</g>
<!-- Node3&#45;&gt;Node6 -->
<g id="edge5" class="edge"><title>Node3&#45;&gt;Node6</title>
<path fill="none" stroke="midnightblue" d="M108.354,-168.368C113.217,-150.537 124.465,-109.295 131.017,-85.2717"/>
<polygon fill="midnightblue" stroke="midnightblue" points="134.402,-86.16 133.657,-75.5914 127.649,-84.3181 134.402,-86.16"/>
</g>
<!-- Node8 -->
<g id="node8" class="node"><title>Node8</title>
<g id="a_node8"><a xlink:href="ast_8h.html" target="_top" xlink:title="../parser/ast.h">
<polygon fill="white" stroke="black" points="158.5,-112.5 158.5,-131.5 235.5,-131.5 235.5,-112.5 158.5,-112.5"/>
<text text-anchor="middle" x="197" y="-119.5" font-family="Helvetica,sans-Serif" font-size="10.00">../parser/ast.h</text>
</a>
</g>
</g>
<!-- Node3&#45;&gt;Node8 -->
<g id="edge7" class="edge"><title>Node3&#45;&gt;Node8</title>
<path fill="none" stroke="midnightblue" d="M120.621,-168.324C134.949,-159.822 157.013,-146.729 173.749,-136.797"/>
<polygon fill="midnightblue" stroke="midnightblue" points="175.602,-139.768 182.416,-131.655 172.03,-133.748 175.602,-139.768"/>
</g>
<!-- Node7 -->
<g id="node7" class="node"><title>Node7</title>
<polygon fill="white" stroke="#bfbfbf" points="142.5,-0.5 142.5,-19.5 183.5,-19.5 183.5,-0.5 142.5,-0.5"/>
<text text-anchor="middle" x="163" y="-7.5" font-family="Helvetica,sans-Serif" font-size="10.00">string</text>
</g>
<!-- Node6&#45;&gt;Node7 -->
<g id="edge6" class="edge"><title>Node6&#45;&gt;Node7</title>
<path fill="none" stroke="midnightblue" d="M140.459,-56.083C144.154,-48.6913 149.523,-37.9533 154.094,-28.8111"/>
<polygon fill="midnightblue" stroke="midnightblue" points="157.283,-30.2606 158.624,-19.7511 151.022,-27.1301 157.283,-30.2606"/>
</g>
<!-- Node8&#45;&gt;Node6 -->
<g id="edge10" class="edge"><title>Node8&#45;&gt;Node6</title>
<path fill="none" stroke="midnightblue" d="M187.199,-112.324C178.182,-104.341 164.594,-92.3128 153.682,-82.6529"/>
<polygon fill="midnightblue" stroke="midnightblue" points="155.787,-79.8416 145.979,-75.8339 151.147,-85.083 155.787,-79.8416"/>
</g>
<!-- Node8&#45;&gt;Node7 -->
<g id="edge8" class="edge"><title>Node8&#45;&gt;Node7</title>
<path fill="none" stroke="midnightblue" d="M194.332,-112.368C188.82,-94.5366 176.073,-53.2953 168.648,-29.2717"/>
<polygon fill="midnightblue" stroke="midnightblue" points="171.953,-28.1119 165.656,-19.5914 165.265,-30.179 171.953,-28.1119"/>
</g>
<!-- Node9 -->
<g id="node9" class="node"><title>Node9</title>
<polygon fill="white" stroke="#bfbfbf" points="218,-56.5 218,-75.5 262,-75.5 262,-56.5 218,-56.5"/>
<text text-anchor="middle" x="240" y="-63.5" font-family="Helvetica,sans-Serif" font-size="10.00">vector</text>
</g>
<!-- Node8&#45;&gt;Node9 -->
<g id="edge9" class="edge"><title>Node8&#45;&gt;Node9</title>
<path fill="none" stroke="midnightblue" d="M204.101,-112.083C210.237,-104.377 219.27,-93.0333 226.739,-83.6531"/>
<polygon fill="midnightblue" stroke="midnightblue" points="229.54,-85.7542 233.032,-75.7511 224.064,-81.3936 229.54,-85.7542"/>
</g>
</g>
</svg>
