<?xml version="1.0" encoding="UTF-8" standalone="no"?>
<!DOCTYPE svg PUBLIC "-//W3C//DTD SVG 1.1//EN"
 "http://www.w3.org/Graphics/SVG/1.1/DTD/svg11.dtd">
<!-- Generated by graphviz version 2.38.0 (20140413.2041)
 -->
<!-- Title: src/visitor/interpreter.h Pages: 1 -->
<svg width="224pt" height="84pt"
 viewBox="0.00 0.00 224.00 84.00" xmlns="http://www.w3.org/2000/svg" xmlns:xlink="http://www.w3.org/1999/xlink">
<g id="graph0" class="graph" transform="scale(1 1) rotate(0) translate(4 80)">
<title>src/visitor/interpreter.h</title>
<polygon fill="white" stroke="none" points="-4,4 -4,-80 220,-80 220,4 -4,4"/>
<!-- Node1 -->
<g id="node1" class="node"><title>Node1</title>
<polygon fill="#bfbfbf" stroke="black" points="37.5,-56.5 37.5,-75.5 151.5,-75.5 151.5,-56.5 37.5,-56.5"/>
<text text-anchor="middle" x="94.5" y="-63.5" font-family="Helvetica,sans-Serif" font-size="10.00">src/visitor/interpreter.h</text>
</g>
<!-- Node2 -->
<g id="node2" class="node"><title>Node2</title>
<g id="a_node2"><a xlink:href="main_8cpp.html" target="_top" xlink:title="src/main.cpp">
<polygon fill="white" stroke="black" points="0,-0.5 0,-19.5 73,-19.5 73,-0.5 0,-0.5"/>
<text text-anchor="middle" x="36.5" y="-7.5" font-family="Helvetica,sans-Serif" font-size="10.00">src/main.cpp</text>
</a>
</g>
</g>
<!-- Node1&#45;&gt;Node2 -->
<g id="edge1" class="edge"><title>Node1&#45;&gt;Node2</title>
<path fill="none" stroke="midnightblue" d="M77.5869,-49.2533C67.297,-39.6731 54.5343,-27.7906 45.9883,-19.8339"/>
<polygon fill="midnightblue" stroke="midnightblue" points="75.4774,-52.0714 85.1813,-56.324 80.2473,-46.9481 75.4774,-52.0714"/>
</g>
<!-- Node3 -->
<g id="node3" class="node"><title>Node3</title>
<g id="a_node3"><a xlink:href="interpreter_8cpp.html" target="_top" xlink:title="src/visitor/interpreter.cpp">
<polygon fill="white" stroke="black" points="91,-0.5 91,-19.5 216,-19.5 216,-0.5 91,-0.5"/>
<text text-anchor="middle" x="153.5" y="-7.5" font-family="Helvetica,sans-Serif" font-size="10.00">src/visitor/interpreter.cpp</text>
</a>
</g>
</g>
<!-- Node1&#45;&gt;Node3 -->
<g id="edge2" class="edge"><title>Node1&#45;&gt;Node3</title>
<path fill="none" stroke="midnightblue" d="M111.395,-49.5372C121.915,-39.9087 135.069,-27.8694 143.848,-19.8339"/>
<polygon fill="midnightblue" stroke="midnightblue" points="108.993,-46.9905 103.979,-56.324 113.719,-52.1542 108.993,-46.9905"/>
</g>
</g>
</svg>
