<?xml version="1.0" encoding="UTF-8" standalone="no"?>
<!DOCTYPE svg PUBLIC "-//W3C//DTD SVG 1.1//EN"
 "http://www.w3.org/Graphics/SVG/1.1/DTD/svg11.dtd">
<!-- Generated by graphviz version 2.38.0 (20140413.2041)
 -->
<!-- Title: src/lexer/lexer.cpp Pages: 1 -->
<svg width="329pt" height="196pt"
 viewBox="0.00 0.00 329.00 196.00" xmlns="http://www.w3.org/2000/svg" xmlns:xlink="http://www.w3.org/1999/xlink">
<g id="graph0" class="graph" transform="scale(1 1) rotate(0) translate(4 192)">
<title>src/lexer/lexer.cpp</title>
<polygon fill="white" stroke="none" points="-4,4 -4,-192 325,-192 325,4 -4,4"/>
<!-- Node1 -->
<g id="node1" class="node"><title>Node1</title>
<polygon fill="#bfbfbf" stroke="black" points="77,-168.5 77,-187.5 174,-187.5 174,-168.5 77,-168.5"/>
<text text-anchor="middle" x="125.5" y="-175.5" font-family="Helvetica,sans-Serif" font-size="10.00">src/lexer/lexer.cpp</text>
</g>
<!-- Node2 -->
<g id="node2" class="node"><title>Node2</title>
<polygon fill="white" stroke="#bfbfbf" points="0,-112.5 0,-131.5 41,-131.5 41,-112.5 0,-112.5"/>
<text text-anchor="middle" x="20.5" y="-119.5" font-family="Helvetica,sans-Serif" font-size="10.00">stack</text>
</g>
<!-- Node1&#45;&gt;Node2 -->
<g id="edge1" class="edge"><title>Node1&#45;&gt;Node2</title>
<path fill="none" stroke="midnightblue" d="M108.63,-168.324C91.7912,-159.664 65.6935,-146.242 46.262,-136.249"/>
<polygon fill="midnightblue" stroke="midnightblue" points="47.8218,-133.116 37.3282,-131.655 44.6204,-139.341 47.8218,-133.116"/>
</g>
<!-- Node3 -->
<g id="node3" class="node"><title>Node3</title>
<polygon fill="white" stroke="#bfbfbf" points="59,-112.5 59,-131.5 118,-131.5 118,-112.5 59,-112.5"/>
<text text-anchor="middle" x="88.5" y="-119.5" font-family="Helvetica,sans-Serif" font-size="10.00">stdexcept</text>
</g>
<!-- Node1&#45;&gt;Node3 -->
<g id="edge2" class="edge"><title>Node1&#45;&gt;Node3</title>
<path fill="none" stroke="midnightblue" d="M119.39,-168.083C114.218,-160.534 106.654,-149.495 100.306,-140.23"/>
<polygon fill="midnightblue" stroke="midnightblue" points="103.036,-138.022 94.4961,-131.751 97.2612,-141.979 103.036,-138.022"/>
</g>
<!-- Node4 -->
<g id="node4" class="node"><title>Node4</title>
<polygon fill="white" stroke="#bfbfbf" points="136.5,-112.5 136.5,-131.5 190.5,-131.5 190.5,-112.5 136.5,-112.5"/>
<text text-anchor="middle" x="163.5" y="-119.5" font-family="Helvetica,sans-Serif" font-size="10.00">iostream</text>
</g>
<!-- Node1&#45;&gt;Node4 -->
<g id="edge3" class="edge"><title>Node1&#45;&gt;Node4</title>
<path fill="none" stroke="midnightblue" d="M131.775,-168.083C137.142,-160.455 145.018,-149.264 151.579,-139.941"/>
<polygon fill="midnightblue" stroke="midnightblue" points="154.449,-141.943 157.342,-131.751 148.725,-137.915 154.449,-141.943"/>
</g>
<!-- Node5 -->
<g id="node5" class="node"><title>Node5</title>
<g id="a_node5"><a xlink:href="lexer_8h.html" target="_top" xlink:title="Contains the implementation of the table&#45;driven lexer. ">
<polygon fill="white" stroke="black" points="208.5,-112.5 208.5,-131.5 254.5,-131.5 254.5,-112.5 208.5,-112.5"/>
<text text-anchor="middle" x="231.5" y="-119.5" font-family="Helvetica,sans-Serif" font-size="10.00">lexer.h</text>
</a>
</g>
</g>
<!-- Node1&#45;&gt;Node5 -->
<g id="edge4" class="edge"><title>Node1&#45;&gt;Node5</title>
<path fill="none" stroke="midnightblue" d="M142.531,-168.324C159.53,-159.664 185.876,-146.242 205.493,-136.249"/>
<polygon fill="midnightblue" stroke="midnightblue" points="207.19,-139.312 214.512,-131.655 204.012,-133.075 207.19,-139.312"/>
</g>
<!-- Node6 -->
<g id="node6" class="node"><title>Node6</title>
<polygon fill="white" stroke="#bfbfbf" points="218,-0.5 218,-19.5 259,-19.5 259,-0.5 218,-0.5"/>
<text text-anchor="middle" x="238.5" y="-7.5" font-family="Helvetica,sans-Serif" font-size="10.00">string</text>
</g>
<!-- Node5&#45;&gt;Node6 -->
<g id="edge5" class="edge"><title>Node5&#45;&gt;Node6</title>
<path fill="none" stroke="midnightblue" d="M222.491,-112.395C210.829,-100.161 192.856,-76.9003 200.5,-56 204.557,-44.9083 212.688,-34.6651 220.391,-26.7625"/>
<polygon fill="midnightblue" stroke="midnightblue" points="222.975,-29.1351 227.786,-19.6955 218.138,-24.0747 222.975,-29.1351"/>
</g>
<!-- Node7 -->
<g id="node7" class="node"><title>Node7</title>
<polygon fill="white" stroke="#bfbfbf" points="209.5,-56.5 209.5,-75.5 253.5,-75.5 253.5,-56.5 209.5,-56.5"/>
<text text-anchor="middle" x="231.5" y="-63.5" font-family="Helvetica,sans-Serif" font-size="10.00">vector</text>
</g>
<!-- Node5&#45;&gt;Node7 -->
<g id="edge6" class="edge"><title>Node5&#45;&gt;Node7</title>
<path fill="none" stroke="midnightblue" d="M231.5,-112.083C231.5,-105.006 231.5,-94.8611 231.5,-85.9865"/>
<polygon fill="midnightblue" stroke="midnightblue" points="235,-85.751 231.5,-75.7511 228,-85.7511 235,-85.751"/>
</g>
<!-- Node8 -->
<g id="node8" class="node"><title>Node8</title>
<g id="a_node8"><a xlink:href="token_8h.html" target="_top" xlink:title="token.h">
<polygon fill="white" stroke="black" points="272,-56.5 272,-75.5 321,-75.5 321,-56.5 272,-56.5"/>
<text text-anchor="middle" x="296.5" y="-63.5" font-family="Helvetica,sans-Serif" font-size="10.00">token.h</text>
</a>
</g>
</g>
<!-- Node5&#45;&gt;Node8 -->
<g id="edge7" class="edge"><title>Node5&#45;&gt;Node8</title>
<path fill="none" stroke="midnightblue" d="M241.943,-112.324C251.646,-104.263 266.315,-92.0765 278,-82.3695"/>
<polygon fill="midnightblue" stroke="midnightblue" points="280.411,-84.9163 285.867,-75.8339 275.938,-79.532 280.411,-84.9163"/>
</g>
<!-- Node8&#45;&gt;Node6 -->
<g id="edge8" class="edge"><title>Node8&#45;&gt;Node6</title>
<path fill="none" stroke="midnightblue" d="M287.181,-56.324C278.607,-48.3414 265.688,-36.3128 255.312,-26.6529"/>
<polygon fill="midnightblue" stroke="midnightblue" points="257.692,-24.0865 247.988,-19.8339 252.922,-29.2098 257.692,-24.0865"/>
</g>
</g>
</svg>
