<?xml version="1.0" encoding="UTF-8" standalone="no"?>
<!DOCTYPE svg PUBLIC "-//W3C//DTD SVG 1.1//EN"
 "http://www.w3.org/Graphics/SVG/1.1/DTD/svg11.dtd">
<!-- Generated by graphviz version 2.38.0 (20140413.2041)
 -->
<!-- Title: src/lexer/lexer.h Pages: 1 -->
<svg width="141pt" height="140pt"
 viewBox="0.00 0.00 140.50 140.00" xmlns="http://www.w3.org/2000/svg" xmlns:xlink="http://www.w3.org/1999/xlink">
<g id="graph0" class="graph" transform="scale(1 1) rotate(0) translate(4 136)">
<title>src/lexer/lexer.h</title>
<polygon fill="white" stroke="none" points="-4,4 -4,-136 136.5,-136 136.5,4 -4,4"/>
<!-- Node1 -->
<g id="node1" class="node"><title>Node1</title>
<polygon fill="#bfbfbf" stroke="black" points="0,-112.5 0,-131.5 86,-131.5 86,-112.5 0,-112.5"/>
<text text-anchor="middle" x="43" y="-119.5" font-family="Helvetica,sans-Serif" font-size="10.00">src/lexer/lexer.h</text>
</g>
<!-- Node2 -->
<g id="node2" class="node"><title>Node2</title>
<polygon fill="white" stroke="#bfbfbf" points="29.5,-0.5 29.5,-19.5 70.5,-19.5 70.5,-0.5 29.5,-0.5"/>
<text text-anchor="middle" x="50" y="-7.5" font-family="Helvetica,sans-Serif" font-size="10.00">string</text>
</g>
<!-- Node1&#45;&gt;Node2 -->
<g id="edge1" class="edge"><title>Node1&#45;&gt;Node2</title>
<path fill="none" stroke="midnightblue" d="M33.9912,-112.395C22.3291,-100.161 4.35588,-76.9003 12,-56 16.0567,-44.9083 24.188,-34.6651 31.8914,-26.7625"/>
<polygon fill="midnightblue" stroke="midnightblue" points="34.4747,-29.1351 39.2855,-19.6955 29.6381,-24.0747 34.4747,-29.1351"/>
</g>
<!-- Node3 -->
<g id="node3" class="node"><title>Node3</title>
<polygon fill="white" stroke="#bfbfbf" points="21,-56.5 21,-75.5 65,-75.5 65,-56.5 21,-56.5"/>
<text text-anchor="middle" x="43" y="-63.5" font-family="Helvetica,sans-Serif" font-size="10.00">vector</text>
</g>
<!-- Node1&#45;&gt;Node3 -->
<g id="edge2" class="edge"><title>Node1&#45;&gt;Node3</title>
<path fill="none" stroke="midnightblue" d="M43,-112.083C43,-105.006 43,-94.8611 43,-85.9865"/>
<polygon fill="midnightblue" stroke="midnightblue" points="46.5001,-85.751 43,-75.7511 39.5001,-85.7511 46.5001,-85.751"/>
</g>
<!-- Node4 -->
<g id="node4" class="node"><title>Node4</title>
<g id="a_node4"><a xlink:href="token_8h.html" target="_top" xlink:title="Contains the class Token, used to represent the tokens of the program string. ">
<polygon fill="white" stroke="black" points="83.5,-56.5 83.5,-75.5 132.5,-75.5 132.5,-56.5 83.5,-56.5"/>
<text text-anchor="middle" x="108" y="-63.5" font-family="Helvetica,sans-Serif" font-size="10.00">token.h</text>
</a>
</g>
</g>
<!-- Node1&#45;&gt;Node4 -->
<g id="edge3" class="edge"><title>Node1&#45;&gt;Node4</title>
<path fill="none" stroke="midnightblue" d="M53.4434,-112.324C63.1462,-104.263 77.8153,-92.0765 89.4997,-82.3695"/>
<polygon fill="midnightblue" stroke="midnightblue" points="91.9113,-84.9163 97.3666,-75.8339 87.4381,-79.532 91.9113,-84.9163"/>
</g>
<!-- Node4&#45;&gt;Node2 -->
<g id="edge4" class="edge"><title>Node4&#45;&gt;Node2</title>
<path fill="none" stroke="midnightblue" d="M98.6813,-56.324C90.1074,-48.3414 77.1878,-36.3128 66.8124,-26.6529"/>
<polygon fill="midnightblue" stroke="midnightblue" points="69.1922,-24.0865 59.4883,-19.8339 64.4223,-29.2098 69.1922,-24.0865"/>
</g>
</g>
</svg>
