<?xml version="1.0" encoding="UTF-8" standalone="no"?>
<!DOCTYPE svg PUBLIC "-//W3C//DTD SVG 1.1//EN"
 "http://www.w3.org/Graphics/SVG/1.1/DTD/svg11.dtd">
<!-- Generated by graphviz version 2.38.0 (20140413.2041)
 -->
<!-- Title: src/main.cpp Pages: 1 -->
<!--zoomable 252 -->
<svg id="main" version="1.1" xmlns="http://www.w3.org/2000/svg" xmlns:xlink="http://www.w3.org/1999/xlink" xml:space="preserve" onload="init(evt)">
<style type="text/css"><![CDATA[
.edge:hover path { stroke: red; }
.edge:hover polygon { stroke: red; fill: red; }
]]></style>
<script type="text/javascript"><![CDATA[
var edges = document.getElementsByTagName('g');
if (edges && edges.length) {
  for (var i=0;i<edges.length;i++) {
    if (edges[i].id.substr(0,4)=='edge') {
      edges[i].setAttribute('class','edge');
    }
  }
}
]]></script>
        <defs>
                <circle id="rim" cx="0" cy="0" r="7"/>
                <circle id="rim2" cx="0" cy="0" r="3.5"/>
                <g id="zoomPlus">
                        <use xlink:href="#rim" fill="#404040">
                                <set attributeName="fill" to="#808080" begin="zoomplus.mouseover" end="zoomplus.mouseout"/>
                        </use>
                        <path d="M-4,0h8M0,-4v8" fill="none" stroke="white" stroke-width="1.5" pointer-events="none"/>
                </g>
                <g id="zoomMin">
                        <use xlink:href="#rim" fill="#404040">
                                <set attributeName="fill" to="#808080" begin="zoomminus.mouseover" end="zoomminus.mouseout"/>
                        </use>
                        <path d="M-4,0h8" fill="none" stroke="white" stroke-width="1.5" pointer-events="none"/>
                </g>
                <g id="dirArrow">
                        <path fill="none" stroke="white" stroke-width="1.5" d="M0,-3.0v7 M-2.5,-0.5L0,-3.0L2.5,-0.5"/>
                </g>
               <g id="resetDef">
                       <use xlink:href="#rim2" fill="#404040">
                               <set attributeName="fill" to="#808080" begin="reset.mouseover" end="reset.mouseout"/>
                       </use>
               </g>
        </defs>

<script type="text/javascript">
var viewWidth = 797;
var viewHeight = 252;
var sectionId = 'dynsection-0';
</script>
<script xlink:href="svgpan.js"/>
<svg id="graph" class="graph">
<g id="viewport">
<title>src/main.cpp</title>
<polygon fill="white" stroke="none" points="-4,4 -4,-248 792.5,-248 792.5,4 -4,4"/>
<!-- Node1 -->
<g id="node1" class="node"><title>Node1</title>
<polygon fill="#bfbfbf" stroke="black" points="286.5,-224.5 286.5,-243.5 359.5,-243.5 359.5,-224.5 286.5,-224.5"/>
<text text-anchor="middle" x="323" y="-231.5" font-family="Helvetica,sans-Serif" font-size="10.00">src/main.cpp</text>
</g>
<!-- Node2 -->
<g id="node2" class="node"><title>Node2</title>
<polygon fill="white" stroke="#bfbfbf" points="0,-112.5 0,-131.5 54,-131.5 54,-112.5 0,-112.5"/>
<text text-anchor="middle" x="27" y="-119.5" font-family="Helvetica,sans-Serif" font-size="10.00">iostream</text>
</g>
<!-- Node1&#45;&gt;Node2 -->
<g id="edge1" class="edge"><title>Node1&#45;&gt;Node2</title>
<path fill="none" stroke="midnightblue" d="M286.231,-229.67C226.049,-223.673 109.728,-209.633 75,-188 57.0057,-176.791 43.529,-156.164 35.507,-141.145"/>
<polygon fill="midnightblue" stroke="midnightblue" points="38.4466,-139.199 30.8363,-131.828 32.1889,-142.336 38.4466,-139.199"/>
</g>
<!-- Node3 -->
<g id="node3" class="node"><title>Node3</title>
<polygon fill="white" stroke="#bfbfbf" points="646,-112.5 646,-131.5 696,-131.5 696,-112.5 646,-112.5"/>
<text text-anchor="middle" x="671" y="-119.5" font-family="Helvetica,sans-Serif" font-size="10.00">fstream</text>
</g>
<!-- Node1&#45;&gt;Node3 -->
<g id="edge2" class="edge"><title>Node1&#45;&gt;Node3</title>
<path fill="none" stroke="midnightblue" d="M359.585,-231.345C449.869,-226.889 677.6,-213.233 700,-188 712.481,-173.941 699.884,-153.635 687.609,-139.473"/>
<polygon fill="midnightblue" stroke="midnightblue" points="689.981,-136.883 680.611,-131.938 684.852,-141.647 689.981,-136.883"/>
</g>
<!-- Node4 -->
<g id="node4" class="node"><title>Node4</title>
<polygon fill="white" stroke="#bfbfbf" points="747.5,-168.5 747.5,-187.5 788.5,-187.5 788.5,-168.5 747.5,-168.5"/>
<text text-anchor="middle" x="768" y="-175.5" font-family="Helvetica,sans-Serif" font-size="10.00">regex</text>
</g>
<!-- Node1&#45;&gt;Node4 -->
<g id="edge3" class="edge"><title>Node1&#45;&gt;Node4</title>
<path fill="none" stroke="midnightblue" d="M359.728,-230.73C431.775,-225.889 596.514,-212.907 733,-188 734.466,-187.732 735.961,-187.437 737.467,-187.121"/>
<polygon fill="midnightblue" stroke="midnightblue" points="738.43,-190.491 747.38,-184.822 736.848,-183.672 738.43,-190.491"/>
</g>
<!-- Node5 -->
<g id="node5" class="node"><title>Node5</title>
<polygon fill="white" stroke="#bfbfbf" points="73,-112.5 73,-131.5 123,-131.5 123,-112.5 73,-112.5"/>
<text text-anchor="middle" x="98" y="-119.5" font-family="Helvetica,sans-Serif" font-size="10.00">iomanip</text>
</g>
<!-- Node1&#45;&gt;Node5 -->
<g id="edge4" class="edge"><title>Node1&#45;&gt;Node5</title>
<path fill="none" stroke="midnightblue" d="M286.249,-231.603C225.732,-228.446 109.268,-218.469 84,-188 72.9837,-174.716 79.6087,-154.78 87.0274,-140.491"/>
<polygon fill="midnightblue" stroke="midnightblue" points="90.156,-142.071 92.0832,-131.653 84.0798,-138.595 90.156,-142.071"/>
</g>
<!-- Node6 -->
<g id="node6" class="node"><title>Node6</title>
<g id="a_node6"><a xlink:href="lexer_8h.html" target="_top" xlink:title="Contains the implementation of the table&#45;driven lexer. ">
<polygon fill="white" stroke="black" points="221,-112.5 221,-131.5 291,-131.5 291,-112.5 221,-112.5"/>
<text text-anchor="middle" x="256" y="-119.5" font-family="Helvetica,sans-Serif" font-size="10.00">lexer/lexer.h</text>
</a>
</g>
</g>
<!-- Node1&#45;&gt;Node6 -->
<g id="edge5" class="edge"><title>Node1&#45;&gt;Node6</title>
<path fill="none" stroke="midnightblue" d="M286.293,-229.045C260.221,-224.104 226.948,-212.992 210,-188 198.173,-170.559 216.739,-150.843 233.697,-137.745"/>
<polygon fill="midnightblue" stroke="midnightblue" points="236.207,-140.248 242.249,-131.545 232.098,-134.581 236.207,-140.248"/>
</g>
<!-- Node10 -->
<g id="node10" class="node"><title>Node10</title>
<g id="a_node10"><a xlink:href="parser_8h.html" target="_top" xlink:title="parser/parser.h">
<polygon fill="white" stroke="black" points="219,-168.5 219,-187.5 301,-187.5 301,-168.5 219,-168.5"/>
<text text-anchor="middle" x="260" y="-175.5" font-family="Helvetica,sans-Serif" font-size="10.00">parser/parser.h</text>
</a>
</g>
</g>
<!-- Node1&#45;&gt;Node10 -->
<g id="edge10" class="edge"><title>Node1&#45;&gt;Node10</title>
<path fill="none" stroke="midnightblue" d="M312.878,-224.324C303.474,-216.263 289.256,-204.077 277.931,-194.369"/>
<polygon fill="midnightblue" stroke="midnightblue" points="280.177,-191.684 270.306,-187.834 275.621,-196.999 280.177,-191.684"/>
</g>
<!-- Node13 -->
<g id="node13" class="node"><title>Node13</title>
<g id="a_node13"><a xlink:href="xml__visitor_8h.html" target="_top" xlink:title="visitor/xml_visitor.h">
<polygon fill="white" stroke="black" points="589.5,-168.5 589.5,-187.5 690.5,-187.5 690.5,-168.5 589.5,-168.5"/>
<text text-anchor="middle" x="640" y="-175.5" font-family="Helvetica,sans-Serif" font-size="10.00">visitor/xml_visitor.h</text>
</a>
</g>
</g>
<!-- Node1&#45;&gt;Node13 -->
<g id="edge17" class="edge"><title>Node1&#45;&gt;Node13</title>
<path fill="none" stroke="midnightblue" d="M359.674,-226.753C413.587,-217.569 514.854,-200.318 579.779,-189.259"/>
<polygon fill="midnightblue" stroke="midnightblue" points="580.604,-192.668 589.874,-187.539 579.428,-185.768 580.604,-192.668"/>
</g>
<!-- Node14 -->
<g id="node14" class="node"><title>Node14</title>
<g id="a_node14"><a xlink:href="semantic__analysis_8h.html" target="_top" xlink:title="visitor/semantic_analysis.h">
<polygon fill="white" stroke="black" points="319.5,-168.5 319.5,-187.5 454.5,-187.5 454.5,-168.5 319.5,-168.5"/>
<text text-anchor="middle" x="387" y="-175.5" font-family="Helvetica,sans-Serif" font-size="10.00">visitor/semantic_analysis.h</text>
</a>
</g>
</g>
<!-- Node1&#45;&gt;Node14 -->
<g id="edge21" class="edge"><title>Node1&#45;&gt;Node14</title>
<path fill="none" stroke="midnightblue" d="M333.283,-224.324C342.836,-216.263 357.28,-204.077 368.784,-194.369"/>
<polygon fill="midnightblue" stroke="midnightblue" points="371.144,-196.958 376.53,-187.834 366.63,-191.608 371.144,-196.958"/>
</g>
<!-- Node17 -->
<g id="node17" class="node"><title>Node17</title>
<g id="a_node17"><a xlink:href="interpreter_8h.html" target="_top" xlink:title="visitor/interpreter.h">
<polygon fill="white" stroke="black" points="473,-168.5 473,-187.5 571,-187.5 571,-168.5 473,-168.5"/>
<text text-anchor="middle" x="522" y="-175.5" font-family="Helvetica,sans-Serif" font-size="10.00">visitor/interpreter.h</text>
</a>
</g>
</g>
<!-- Node1&#45;&gt;Node17 -->
<g id="edge26" class="edge"><title>Node1&#45;&gt;Node17</title>
<path fill="none" stroke="midnightblue" d="M354.532,-224.444C388.592,-215.201 443.006,-200.436 480.515,-190.257"/>
<polygon fill="midnightblue" stroke="midnightblue" points="481.881,-193.513 490.615,-187.516 480.048,-186.758 481.881,-193.513"/>
</g>
<!-- Node18 -->
<g id="node18" class="node"><title>Node18</title>
<g id="a_node18"><a xlink:href="table_8h.html" target="_top" xlink:title="table/table.h">
<polygon fill="white" stroke="black" points="93,-168.5 93,-187.5 163,-187.5 163,-168.5 93,-168.5"/>
<text text-anchor="middle" x="128" y="-175.5" font-family="Helvetica,sans-Serif" font-size="10.00">table/table.h</text>
</a>
</g>
</g>
<!-- Node1&#45;&gt;Node18 -->
<g id="edge31" class="edge"><title>Node1&#45;&gt;Node18</title>
<path fill="none" stroke="midnightblue" d="M292.102,-224.444C258.726,-215.201 205.406,-200.436 168.651,-190.257"/>
<polygon fill="midnightblue" stroke="midnightblue" points="169.325,-186.812 158.754,-187.516 167.457,-193.558 169.325,-186.812"/>
</g>
<!-- Node7 -->
<g id="node7" class="node"><title>Node7</title>
<polygon fill="white" stroke="#bfbfbf" points="284.5,-0.5 284.5,-19.5 325.5,-19.5 325.5,-0.5 284.5,-0.5"/>
<text text-anchor="middle" x="305" y="-7.5" font-family="Helvetica,sans-Serif" font-size="10.00">string</text>
</g>
<!-- Node6&#45;&gt;Node7 -->
<g id="edge6" class="edge"><title>Node6&#45;&gt;Node7</title>
<path fill="none" stroke="midnightblue" d="M256.849,-112.209C258.347,-99.3498 262.179,-74.888 271,-56 275.859,-45.5963 283.4,-35.2816 290.147,-27.1574"/>
<polygon fill="midnightblue" stroke="midnightblue" points="292.823,-29.4142 296.745,-19.5721 287.542,-24.8202 292.823,-29.4142"/>
</g>
<!-- Node8 -->
<g id="node8" class="node"><title>Node8</title>
<polygon fill="white" stroke="#bfbfbf" points="348,-56.5 348,-75.5 392,-75.5 392,-56.5 348,-56.5"/>
<text text-anchor="middle" x="370" y="-63.5" font-family="Helvetica,sans-Serif" font-size="10.00">vector</text>
</g>
<!-- Node6&#45;&gt;Node8 -->
<g id="edge7" class="edge"><title>Node6&#45;&gt;Node8</title>
<path fill="none" stroke="midnightblue" d="M274.064,-112.444C292.575,-103.675 321.581,-89.9355 342.855,-79.8579"/>
<polygon fill="midnightblue" stroke="midnightblue" points="344.482,-82.9604 352.021,-75.5164 341.485,-76.6343 344.482,-82.9604"/>
</g>
<!-- Node9 -->
<g id="node9" class="node"><title>Node9</title>
<g id="a_node9"><a xlink:href="token_8h.html" target="_top" xlink:title="token.h">
<polygon fill="white" stroke="black" points="280.5,-56.5 280.5,-75.5 329.5,-75.5 329.5,-56.5 280.5,-56.5"/>
<text text-anchor="middle" x="305" y="-63.5" font-family="Helvetica,sans-Serif" font-size="10.00">token.h</text>
</a>
</g>
</g>
<!-- Node6&#45;&gt;Node9 -->
<g id="edge8" class="edge"><title>Node6&#45;&gt;Node9</title>
<path fill="none" stroke="midnightblue" d="M264.091,-112.083C271.155,-104.298 281.588,-92.8015 290.149,-83.3665"/>
<polygon fill="midnightblue" stroke="midnightblue" points="292.931,-85.5087 297.059,-75.7511 287.747,-80.8047 292.931,-85.5087"/>
</g>
<!-- Node9&#45;&gt;Node7 -->
<g id="edge9" class="edge"><title>Node9&#45;&gt;Node7</title>
<path fill="none" stroke="midnightblue" d="M305,-56.083C305,-49.0059 305,-38.8611 305,-29.9865"/>
<polygon fill="midnightblue" stroke="midnightblue" points="308.5,-29.751 305,-19.7511 301.5,-29.7511 308.5,-29.751"/>
</g>
<!-- Node10&#45;&gt;Node6 -->
<g id="edge16" class="edge"><title>Node10&#45;&gt;Node6</title>
<path fill="none" stroke="midnightblue" d="M259.339,-168.083C258.815,-161.006 258.064,-150.861 257.406,-141.986"/>
<polygon fill="midnightblue" stroke="midnightblue" points="260.877,-141.465 256.648,-131.751 253.897,-141.982 260.877,-141.465"/>
</g>
<!-- Node11 -->
<g id="node11" class="node"><title>Node11</title>
<g id="a_node11"><a xlink:href="ast_8h.html" target="_top" xlink:title="ast.h">
<polygon fill="white" stroke="black" points="401,-112.5 401,-131.5 439,-131.5 439,-112.5 401,-112.5"/>
<text text-anchor="middle" x="420" y="-119.5" font-family="Helvetica,sans-Serif" font-size="10.00">ast.h</text>
</a>
</g>
</g>
<!-- Node10&#45;&gt;Node11 -->
<g id="edge11" class="edge"><title>Node10&#45;&gt;Node11</title>
<path fill="none" stroke="midnightblue" d="M285.352,-168.444C314.169,-158.718 361.107,-142.876 391.26,-132.7"/>
<polygon fill="midnightblue" stroke="midnightblue" points="392.437,-135.997 400.792,-129.483 390.198,-129.364 392.437,-135.997"/>
</g>
<!-- Node11&#45;&gt;Node7 -->
<g id="edge12" class="edge"><title>Node11&#45;&gt;Node7</title>
<path fill="none" stroke="midnightblue" d="M419.677,-112.366C418.733,-98.8197 415.075,-72.4277 401,-56 384.121,-36.2998 356.73,-24.6519 335.518,-18.161"/>
<polygon fill="midnightblue" stroke="midnightblue" points="336.249,-14.7306 325.674,-15.3762 334.344,-21.4663 336.249,-14.7306"/>
</g>
<!-- Node11&#45;&gt;Node8 -->
<g id="edge13" class="edge"><title>Node11&#45;&gt;Node8</title>
<path fill="none" stroke="midnightblue" d="M411.744,-112.083C404.535,-104.298 393.89,-92.8015 385.154,-83.3665"/>
<polygon fill="midnightblue" stroke="midnightblue" points="387.465,-80.7108 378.103,-75.7511 382.329,-85.4666 387.465,-80.7108"/>
</g>
<!-- Node12 -->
<g id="node12" class="node"><title>Node12</title>
<g id="a_node12"><a xlink:href="visitor_8h.html" target="_top" xlink:title="../visitor/visitor.h">
<polygon fill="white" stroke="black" points="465.5,-56.5 465.5,-75.5 554.5,-75.5 554.5,-56.5 465.5,-56.5"/>
<text text-anchor="middle" x="510" y="-63.5" font-family="Helvetica,sans-Serif" font-size="10.00">../visitor/visitor.h</text>
</a>
</g>
</g>
<!-- Node11&#45;&gt;Node12 -->
<g id="edge14" class="edge"><title>Node11&#45;&gt;Node12</title>
<path fill="none" stroke="midnightblue" d="M434.46,-112.324C448.5,-103.9 470.048,-90.9709 486.543,-81.0741"/>
<polygon fill="midnightblue" stroke="midnightblue" points="488.802,-83.8007 495.576,-75.6545 485.2,-77.7983 488.802,-83.8007"/>
</g>
<!-- Node12&#45;&gt;Node7 -->
<g id="edge15" class="edge"><title>Node12&#45;&gt;Node7</title>
<path fill="none" stroke="midnightblue" d="M477.517,-56.4435C438.612,-46.1953 373.927,-29.1565 335.789,-19.1103"/>
<polygon fill="midnightblue" stroke="midnightblue" points="336.341,-15.6364 325.779,-16.4736 334.558,-22.4055 336.341,-15.6364"/>
</g>
<!-- Node13&#45;&gt;Node3 -->
<g id="edge18" class="edge"><title>Node13&#45;&gt;Node3</title>
<path fill="none" stroke="midnightblue" d="M645.119,-168.083C649.408,-160.613 655.658,-149.724 660.942,-140.52"/>
<polygon fill="midnightblue" stroke="midnightblue" points="664.033,-142.166 665.976,-131.751 657.962,-138.681 664.033,-142.166"/>
</g>
<!-- Node13&#45;&gt;Node11 -->
<g id="edge20" class="edge"><title>Node13&#45;&gt;Node11</title>
<path fill="none" stroke="midnightblue" d="M599.305,-168.462C562.409,-160.499 506.346,-147.848 449.152,-132.156"/>
<polygon fill="midnightblue" stroke="midnightblue" points="449.79,-128.701 439.218,-129.403 447.92,-135.447 449.79,-128.701"/>
</g>
<!-- Node13&#45;&gt;Node12 -->
<g id="edge19" class="edge"><title>Node13&#45;&gt;Node12</title>
<path fill="none" stroke="midnightblue" d="M629.799,-168.368C607.776,-149.733 555.538,-105.532 527.885,-82.1338"/>
<polygon fill="midnightblue" stroke="midnightblue" points="530.048,-79.379 520.153,-75.5914 525.527,-84.7227 530.048,-79.379"/>
</g>
<!-- Node14&#45;&gt;Node8 -->
<g id="edge23" class="edge"><title>Node14&#45;&gt;Node8</title>
<path fill="none" stroke="midnightblue" d="M385.666,-168.368C382.923,-150.617 376.594,-109.666 372.874,-85.5974"/>
<polygon fill="midnightblue" stroke="midnightblue" points="376.314,-84.9395 371.328,-75.5914 369.396,-86.0087 376.314,-84.9395"/>
</g>
<!-- Node14&#45;&gt;Node11 -->
<g id="edge25" class="edge"><title>Node14&#45;&gt;Node11</title>
<path fill="none" stroke="midnightblue" d="M392.449,-168.083C397.014,-160.613 403.668,-149.724 409.293,-140.52"/>
<polygon fill="midnightblue" stroke="midnightblue" points="412.424,-142.109 414.652,-131.751 406.451,-138.459 412.424,-142.109"/>
</g>
<!-- Node15 -->
<g id="node15" class="node"><title>Node15</title>
<polygon fill="white" stroke="#bfbfbf" points="309.5,-112.5 309.5,-131.5 344.5,-131.5 344.5,-112.5 309.5,-112.5"/>
<text text-anchor="middle" x="327" y="-119.5" font-family="Helvetica,sans-Serif" font-size="10.00">map</text>
</g>
<!-- Node14&#45;&gt;Node15 -->
<g id="edge22" class="edge"><title>Node14&#45;&gt;Node15</title>
<path fill="none" stroke="midnightblue" d="M377.36,-168.324C368.49,-160.341 355.125,-148.313 344.392,-138.653"/>
<polygon fill="midnightblue" stroke="midnightblue" points="346.59,-135.922 336.815,-131.834 341.907,-141.125 346.59,-135.922"/>
</g>
<!-- Node16 -->
<g id="node16" class="node"><title>Node16</title>
<polygon fill="white" stroke="#bfbfbf" points="457.5,-112.5 457.5,-131.5 498.5,-131.5 498.5,-112.5 457.5,-112.5"/>
<text text-anchor="middle" x="478" y="-119.5" font-family="Helvetica,sans-Serif" font-size="10.00">stack</text>
</g>
<!-- Node14&#45;&gt;Node16 -->
<g id="edge24" class="edge"><title>Node14&#45;&gt;Node16</title>
<path fill="none" stroke="midnightblue" d="M401.621,-168.324C415.949,-159.822 438.013,-146.729 454.749,-136.797"/>
<polygon fill="midnightblue" stroke="midnightblue" points="456.602,-139.768 463.416,-131.655 453.03,-133.748 456.602,-139.768"/>
</g>
<!-- Node17&#45;&gt;Node11 -->
<g id="edge30" class="edge"><title>Node17&#45;&gt;Node11</title>
<path fill="none" stroke="midnightblue" d="M505.612,-168.324C489.329,-159.703 464.133,-146.364 445.284,-136.386"/>
<polygon fill="midnightblue" stroke="midnightblue" points="446.823,-133.24 436.347,-131.655 443.548,-139.427 446.823,-133.24"/>
</g>
<!-- Node17&#45;&gt;Node12 -->
<g id="edge29" class="edge"><title>Node17&#45;&gt;Node12</title>
<path fill="none" stroke="midnightblue" d="M521.058,-168.368C519.122,-150.617 514.655,-109.666 512.029,-85.5974"/>
<polygon fill="midnightblue" stroke="midnightblue" points="515.501,-85.1528 510.937,-75.5914 508.542,-85.912 515.501,-85.1528"/>
</g>
<!-- Node17&#45;&gt;Node15 -->
<g id="edge27" class="edge"><title>Node17&#45;&gt;Node15</title>
<path fill="none" stroke="midnightblue" d="M491.102,-168.444C453.47,-158.023 390.484,-140.58 354.474,-130.608"/>
<polygon fill="midnightblue" stroke="midnightblue" points="355.221,-127.183 344.65,-127.888 353.353,-133.929 355.221,-127.183"/>
</g>
<!-- Node17&#45;&gt;Node16 -->
<g id="edge28" class="edge"><title>Node17&#45;&gt;Node16</title>
<path fill="none" stroke="midnightblue" d="M514.734,-168.083C508.455,-160.377 499.212,-149.033 491.569,-139.653"/>
<polygon fill="midnightblue" stroke="midnightblue" points="494.161,-137.293 485.131,-131.751 488.734,-141.714 494.161,-137.293"/>
</g>
<!-- Node18&#45;&gt;Node2 -->
<g id="edge32" class="edge"><title>Node18&#45;&gt;Node2</title>
<path fill="none" stroke="midnightblue" d="M111.773,-168.324C95.649,-159.703 70.6998,-146.364 52.0359,-136.386"/>
<polygon fill="midnightblue" stroke="midnightblue" points="53.6561,-133.283 43.1871,-131.655 50.3556,-139.456 53.6561,-133.283"/>
</g>
<!-- Node18&#45;&gt;Node5 -->
<g id="edge34" class="edge"><title>Node18&#45;&gt;Node5</title>
<path fill="none" stroke="midnightblue" d="M123.046,-168.083C118.896,-160.613 112.847,-149.724 107.733,-140.52"/>
<polygon fill="midnightblue" stroke="midnightblue" points="110.778,-138.793 102.862,-131.751 104.659,-142.192 110.778,-138.793"/>
</g>
<!-- Node18&#45;&gt;Node7 -->
<g id="edge36" class="edge"><title>Node18&#45;&gt;Node7</title>
<path fill="none" stroke="midnightblue" d="M133.252,-168.435C141.45,-155.436 158.203,-130.306 176,-112 210.024,-77.0035 256.397,-43.5426 283.276,-25.2834"/>
<polygon fill="midnightblue" stroke="midnightblue" points="285.248,-28.175 291.598,-19.6938 281.345,-22.3641 285.248,-28.175"/>
</g>
<!-- Node18&#45;&gt;Node8 -->
<g id="edge35" class="edge"><title>Node18&#45;&gt;Node8</title>
<path fill="none" stroke="midnightblue" d="M137.01,-168.099C151.573,-154.189 181.72,-127.306 212,-112 213.446,-111.269 292.481,-88.8931 338.204,-75.9754"/>
<polygon fill="midnightblue" stroke="midnightblue" points="339.286,-79.3067 347.958,-73.2203 337.383,-72.5703 339.286,-79.3067"/>
</g>
<!-- Node18&#45;&gt;Node15 -->
<g id="edge33" class="edge"><title>Node18&#45;&gt;Node15</title>
<path fill="none" stroke="midnightblue" d="M163.106,-168.535C195.954,-160.455 246.584,-147.597 299.442,-132.015"/>
<polygon fill="midnightblue" stroke="midnightblue" points="300.746,-135.278 309.334,-129.074 298.751,-128.569 300.746,-135.278"/>
</g>
</g>
</svg>
        <g id="navigator" transform="translate(0 0)" fill="#404254">
                <rect fill="#f2f5e9" fill-opacity="0.5" stroke="#606060" stroke-width=".5" x="0" y="0" width="60" height="60"/>
                <use id="zoomplus" xlink:href="#zoomPlus" x="17" y="9" onmousedown="handleZoom(evt,'in')"/>
                <use id="zoomminus" xlink:href="#zoomMin" x="42" y="9" onmousedown="handleZoom(evt,'out')"/>
                <use id="reset" xlink:href="#resetDef" x="30" y="36" onmousedown="handleReset()"/>
                <g id="arrowUp" xlink:href="#dirArrow" transform="translate(30 24)" onmousedown="handlePan(0,-1)">
                  <use xlink:href="#rim" fill="#404040">
                        <set attributeName="fill" to="#808080" begin="arrowUp.mouseover" end="arrowUp.mouseout"/>
                  </use>
                  <path fill="none" stroke="white" stroke-width="1.5" d="M0,-3.0v7 M-2.5,-0.5L0,-3.0L2.5,-0.5"/>
                </g>
                <g id="arrowRight" xlink:href="#dirArrow" transform="rotate(90) translate(36 -43)" onmousedown="handlePan(1,0)">
                  <use xlink:href="#rim" fill="#404040">
                        <set attributeName="fill" to="#808080" begin="arrowRight.mouseover" end="arrowRight.mouseout"/>
                  </use>
                  <path fill="none" stroke="white" stroke-width="1.5" d="M0,-3.0v7 M-2.5,-0.5L0,-3.0L2.5,-0.5"/>
                </g>
                <g id="arrowDown" xlink:href="#dirArrow" transform="rotate(180) translate(-30 -48)" onmousedown="handlePan(0,1)">
                  <use xlink:href="#rim" fill="#404040">
                        <set attributeName="fill" to="#808080" begin="arrowDown.mouseover" end="arrowDown.mouseout"/>
                  </use>
                  <path fill="none" stroke="white" stroke-width="1.5" d="M0,-3.0v7 M-2.5,-0.5L0,-3.0L2.5,-0.5"/>
                </g>
                <g id="arrowLeft" xlink:href="#dirArrow" transform="rotate(270) translate(-36 17)" onmousedown="handlePan(-1,0)">
                  <use xlink:href="#rim" fill="#404040">
                        <set attributeName="fill" to="#808080" begin="arrowLeft.mouseover" end="arrowLeft.mouseout"/>
                  </use>
                  <path fill="none" stroke="white" stroke-width="1.5" d="M0,-3.0v7 M-2.5,-0.5L0,-3.0L2.5,-0.5"/>
                </g>
        </g>
        <svg viewBox="0 0 15 15" width="100%" height="30px" preserveAspectRatio="xMaxYMin meet">
         <g id="arrow_out" transform="scale(0.3 0.3)">
          <a xlink:href="main_8cpp__incl_org.svg" target="_base">
           <rect id="button" ry="5" rx="5" y="6" x="6" height="38" width="38"
                fill="#f2f5e9" fill-opacity="0.5" stroke="#606060" stroke-width="1.0"/>
           <path id="arrow"
             d="M 11.500037,31.436501 C 11.940474,20.09759 22.043105,11.32322 32.158766,21.979434 L 37.068811,17.246167 C 37.068811,17.246167 37.088388,32 37.088388,32 L 22.160133,31.978069 C 22.160133,31.978069 26.997745,27.140456 26.997745,27.140456 C 18.528582,18.264221 13.291696,25.230495 11.500037,31.436501 z"
             style="fill:#404040;"/>
          </a>
         </g>
        </svg>
</svg>
