<?xml version="1.0" encoding="UTF-8" standalone="no"?>
<!DOCTYPE svg PUBLIC "-//W3C//DTD SVG 1.1//EN"
 "http://www.w3.org/Graphics/SVG/1.1/DTD/svg11.dtd">
<!-- Generated by graphviz version 2.38.0 (20140413.2041)
 -->
<!-- Title: src/parser/parser.cpp Pages: 1 -->
<svg width="278pt" height="252pt"
 viewBox="0.00 0.00 277.73 252.00" xmlns="http://www.w3.org/2000/svg" xmlns:xlink="http://www.w3.org/1999/xlink">
<g id="graph0" class="graph" transform="scale(1 1) rotate(0) translate(4 248)">
<title>src/parser/parser.cpp</title>
<polygon fill="white" stroke="none" points="-4,4 -4,-248 273.732,-248 273.732,4 -4,4"/>
<!-- Node1 -->
<g id="node1" class="node"><title>Node1</title>
<polygon fill="#bfbfbf" stroke="black" points="37.7317,-224.5 37.7317,-243.5 146.732,-243.5 146.732,-224.5 37.7317,-224.5"/>
<text text-anchor="middle" x="92.2317" y="-231.5" font-family="Helvetica,sans-Serif" font-size="10.00">src/parser/parser.cpp</text>
</g>
<!-- Node2 -->
<g id="node2" class="node"><title>Node2</title>
<polygon fill="white" stroke="#bfbfbf" points="30.2317,-168.5 30.2317,-187.5 84.2317,-187.5 84.2317,-168.5 30.2317,-168.5"/>
<text text-anchor="middle" x="57.2317" y="-175.5" font-family="Helvetica,sans-Serif" font-size="10.00">iostream</text>
</g>
<!-- Node1&#45;&gt;Node2 -->
<g id="edge1" class="edge"><title>Node1&#45;&gt;Node2</title>
<path fill="none" stroke="midnightblue" d="M86.4522,-224.083C81.5594,-216.534 74.4043,-205.495 68.3992,-196.23"/>
<polygon fill="midnightblue" stroke="midnightblue" points="71.2798,-194.239 62.9037,-187.751 65.4057,-198.046 71.2798,-194.239"/>
</g>
<!-- Node3 -->
<g id="node3" class="node"><title>Node3</title>
<g id="a_node3"><a xlink:href="parser_8h.html" target="_top" xlink:title="parser.h">
<polygon fill="white" stroke="black" points="102.232,-168.5 102.232,-187.5 154.232,-187.5 154.232,-168.5 102.232,-168.5"/>
<text text-anchor="middle" x="128.232" y="-175.5" font-family="Helvetica,sans-Serif" font-size="10.00">parser.h</text>
</a>
</g>
</g>
<!-- Node1&#45;&gt;Node3 -->
<g id="edge2" class="edge"><title>Node1&#45;&gt;Node3</title>
<path fill="none" stroke="midnightblue" d="M98.1764,-224.083C103.209,-216.534 110.569,-205.495 116.745,-196.23"/>
<polygon fill="midnightblue" stroke="midnightblue" points="119.763,-198.013 122.398,-187.751 113.938,-194.13 119.763,-198.013"/>
</g>
<!-- Node4 -->
<g id="node4" class="node"><title>Node4</title>
<g id="a_node4"><a xlink:href="ast_8h.html" target="_top" xlink:title="ast.h">
<polygon fill="white" stroke="black" points="55.2317,-112.5 55.2317,-131.5 93.2317,-131.5 93.2317,-112.5 55.2317,-112.5"/>
<text text-anchor="middle" x="74.2317" y="-119.5" font-family="Helvetica,sans-Serif" font-size="10.00">ast.h</text>
</a>
</g>
</g>
<!-- Node3&#45;&gt;Node4 -->
<g id="edge3" class="edge"><title>Node3&#45;&gt;Node4</title>
<path fill="none" stroke="midnightblue" d="M119.315,-168.083C111.451,-160.22 99.8006,-148.569 90.313,-139.081"/>
<polygon fill="midnightblue" stroke="midnightblue" points="92.5288,-136.347 82.9828,-131.751 87.579,-141.297 92.5288,-136.347"/>
</g>
<!-- Node8 -->
<g id="node8" class="node"><title>Node8</title>
<g id="a_node8"><a xlink:href="lexer_8h.html" target="_top" xlink:title="Contains the implementation of the table&#45;driven lexer. ">
<polygon fill="white" stroke="black" points="127.732,-112.5 127.732,-131.5 206.732,-131.5 206.732,-112.5 127.732,-112.5"/>
<text text-anchor="middle" x="167.232" y="-119.5" font-family="Helvetica,sans-Serif" font-size="10.00">../lexer/lexer.h</text>
</a>
</g>
</g>
<!-- Node3&#45;&gt;Node8 -->
<g id="edge8" class="edge"><title>Node3&#45;&gt;Node8</title>
<path fill="none" stroke="midnightblue" d="M134.672,-168.083C140.181,-160.455 148.263,-149.264 154.997,-139.941"/>
<polygon fill="midnightblue" stroke="midnightblue" points="157.894,-141.907 160.912,-131.751 152.219,-137.809 157.894,-141.907"/>
</g>
<!-- Node5 -->
<g id="node5" class="node"><title>Node5</title>
<polygon fill="white" stroke="#bfbfbf" points="104.732,-0.5 104.732,-19.5 145.732,-19.5 145.732,-0.5 104.732,-0.5"/>
<text text-anchor="middle" x="125.232" y="-7.5" font-family="Helvetica,sans-Serif" font-size="10.00">string</text>
</g>
<!-- Node4&#45;&gt;Node5 -->
<g id="edge4" class="edge"><title>Node4&#45;&gt;Node5</title>
<path fill="none" stroke="midnightblue" d="M54.882,-113.696C28.7232,-102.689 -12.8049,-80.5126 4.23175,-56 24.4208,-26.9516 65.7106,-16.6168 94.4074,-12.9621"/>
<polygon fill="midnightblue" stroke="midnightblue" points="95.1461,-16.4033 104.719,-11.8634 94.4044,-9.44266 95.1461,-16.4033"/>
</g>
<!-- Node6 -->
<g id="node6" class="node"><title>Node6</title>
<polygon fill="white" stroke="#bfbfbf" points="120.232,-56.5 120.232,-75.5 164.232,-75.5 164.232,-56.5 120.232,-56.5"/>
<text text-anchor="middle" x="142.232" y="-63.5" font-family="Helvetica,sans-Serif" font-size="10.00">vector</text>
</g>
<!-- Node4&#45;&gt;Node6 -->
<g id="edge5" class="edge"><title>Node4&#45;&gt;Node6</title>
<path fill="none" stroke="midnightblue" d="M85.1571,-112.324C95.4064,-104.185 110.952,-91.8395 123.233,-82.0874"/>
<polygon fill="midnightblue" stroke="midnightblue" points="125.453,-84.7937 131.108,-75.8339 121.1,-79.3119 125.453,-84.7937"/>
</g>
<!-- Node7 -->
<g id="node7" class="node"><title>Node7</title>
<g id="a_node7"><a xlink:href="visitor_8h.html" target="_top" xlink:title="../visitor/visitor.h">
<polygon fill="white" stroke="black" points="13.7317,-56.5 13.7317,-75.5 102.732,-75.5 102.732,-56.5 13.7317,-56.5"/>
<text text-anchor="middle" x="58.2317" y="-63.5" font-family="Helvetica,sans-Serif" font-size="10.00">../visitor/visitor.h</text>
</a>
</g>
</g>
<!-- Node4&#45;&gt;Node7 -->
<g id="edge6" class="edge"><title>Node4&#45;&gt;Node7</title>
<path fill="none" stroke="midnightblue" d="M71.5897,-112.083C69.4462,-104.849 66.3528,-94.4087 63.6826,-85.3968"/>
<polygon fill="midnightblue" stroke="midnightblue" points="67.0214,-84.3447 60.8247,-75.7511 60.3098,-86.3334 67.0214,-84.3447"/>
</g>
<!-- Node7&#45;&gt;Node5 -->
<g id="edge7" class="edge"><title>Node7&#45;&gt;Node5</title>
<path fill="none" stroke="midnightblue" d="M68.9965,-56.324C78.9979,-48.2631 94.1183,-36.0765 106.162,-26.3695"/>
<polygon fill="midnightblue" stroke="midnightblue" points="108.682,-28.8343 114.271,-19.8339 104.289,-23.3841 108.682,-28.8343"/>
</g>
<!-- Node8&#45;&gt;Node5 -->
<g id="edge9" class="edge"><title>Node8&#45;&gt;Node5</title>
<path fill="none" stroke="midnightblue" d="M170.648,-112.164C175.08,-99.2487 181.341,-74.7178 173.232,-56 167.964,-43.8399 157.612,-33.4594 147.867,-25.7429"/>
<polygon fill="midnightblue" stroke="midnightblue" points="149.733,-22.7707 139.602,-19.6698 145.588,-28.4116 149.733,-22.7707"/>
</g>
<!-- Node8&#45;&gt;Node6 -->
<g id="edge10" class="edge"><title>Node8&#45;&gt;Node6</title>
<path fill="none" stroke="midnightblue" d="M163.104,-112.083C159.718,-104.77 154.816,-94.1814 150.613,-85.1034"/>
<polygon fill="midnightblue" stroke="midnightblue" points="153.661,-83.3553 146.283,-75.7511 147.308,-86.2962 153.661,-83.3553"/>
</g>
<!-- Node9 -->
<g id="node9" class="node"><title>Node9</title>
<g id="a_node9"><a xlink:href="token_8h.html" target="_top" xlink:title="token.h">
<polygon fill="white" stroke="black" points="220.732,-56.5 220.732,-75.5 269.732,-75.5 269.732,-56.5 220.732,-56.5"/>
<text text-anchor="middle" x="245.232" y="-63.5" font-family="Helvetica,sans-Serif" font-size="10.00">token.h</text>
</a>
</g>
</g>
<!-- Node8&#45;&gt;Node9 -->
<g id="edge11" class="edge"><title>Node8&#45;&gt;Node9</title>
<path fill="none" stroke="midnightblue" d="M179.764,-112.324C191.818,-103.979 210.259,-91.2122 224.5,-81.3524"/>
<polygon fill="midnightblue" stroke="midnightblue" points="226.501,-84.2243 232.731,-75.6545 222.517,-78.469 226.501,-84.2243"/>
</g>
<!-- Node9&#45;&gt;Node5 -->
<g id="edge12" class="edge"><title>Node9&#45;&gt;Node5</title>
<path fill="none" stroke="midnightblue" d="M226.217,-56.4435C206.644,-47.6356 175.924,-33.8116 153.503,-23.722"/>
<polygon fill="midnightblue" stroke="midnightblue" points="154.713,-20.4284 144.157,-19.5164 151.84,-26.8119 154.713,-20.4284"/>
</g>
</g>
</svg>
