<?xml version="1.0" encoding="UTF-8" standalone="no"?>
<!DOCTYPE svg PUBLIC "-//W3C//DTD SVG 1.1//EN"
 "http://www.w3.org/Graphics/SVG/1.1/DTD/svg11.dtd">
<!-- Generated by graphviz version 2.38.0 (20140413.2041)
 -->
<!-- Title: src/visitor/semantic_analysis.h Pages: 1 -->
<svg width="278pt" height="207pt"
 viewBox="0.00 0.00 278.00 207.00" xmlns="http://www.w3.org/2000/svg" xmlns:xlink="http://www.w3.org/1999/xlink">
<g id="graph0" class="graph" transform="scale(1 1) rotate(0) translate(4 203)">
<title>src/visitor/semantic_analysis.h</title>
<polygon fill="white" stroke="none" points="-4,4 -4,-203 274,-203 274,4 -4,4"/>
<!-- Node1 -->
<g id="node1" class="node"><title>Node1</title>
<polygon fill="#bfbfbf" stroke="black" points="36.5,-168.5 36.5,-198.5 138.5,-198.5 138.5,-168.5 36.5,-168.5"/>
<text text-anchor="start" x="44.5" y="-186.5" font-family="Helvetica,sans-Serif" font-size="10.00">src/visitor/semantic</text>
<text text-anchor="middle" x="87.5" y="-175.5" font-family="Helvetica,sans-Serif" font-size="10.00">_analysis.h</text>
</g>
<!-- Node2 -->
<g id="node2" class="node"><title>Node2</title>
<polygon fill="white" stroke="#bfbfbf" points="0,-112.5 0,-131.5 35,-131.5 35,-112.5 0,-112.5"/>
<text text-anchor="middle" x="17.5" y="-119.5" font-family="Helvetica,sans-Serif" font-size="10.00">map</text>
</g>
<!-- Node1&#45;&gt;Node2 -->
<g id="edge1" class="edge"><title>Node1&#45;&gt;Node2</title>
<path fill="none" stroke="midnightblue" d="M70.911,-168.399C60.2148,-159.308 46.3117,-147.49 35.3717,-138.191"/>
<polygon fill="midnightblue" stroke="midnightblue" points="37.5718,-135.468 27.6856,-131.658 33.0383,-140.801 37.5718,-135.468"/>
</g>
<!-- Node3 -->
<g id="node3" class="node"><title>Node3</title>
<polygon fill="white" stroke="#bfbfbf" points="60.5,-56.5 60.5,-75.5 104.5,-75.5 104.5,-56.5 60.5,-56.5"/>
<text text-anchor="middle" x="82.5" y="-63.5" font-family="Helvetica,sans-Serif" font-size="10.00">vector</text>
</g>
<!-- Node1&#45;&gt;Node3 -->
<g id="edge2" class="edge"><title>Node1&#45;&gt;Node3</title>
<path fill="none" stroke="midnightblue" d="M85.7253,-168.379C84.5467,-158.268 83.1084,-144.319 82.5,-132 81.7337,-116.483 81.7916,-98.857 82.0089,-85.8779"/>
<polygon fill="midnightblue" stroke="midnightblue" points="85.5089,-85.9109 82.2241,-75.8382 78.5105,-85.7608 85.5089,-85.9109"/>
</g>
<!-- Node4 -->
<g id="node4" class="node"><title>Node4</title>
<polygon fill="white" stroke="#bfbfbf" points="92,-112.5 92,-131.5 133,-131.5 133,-112.5 92,-112.5"/>
<text text-anchor="middle" x="112.5" y="-119.5" font-family="Helvetica,sans-Serif" font-size="10.00">stack</text>
</g>
<!-- Node1&#45;&gt;Node4 -->
<g id="edge3" class="edge"><title>Node1&#45;&gt;Node4</title>
<path fill="none" stroke="midnightblue" d="M93.4247,-168.399C96.8702,-160.199 101.248,-149.781 104.94,-140.994"/>
<polygon fill="midnightblue" stroke="midnightblue" points="108.215,-142.233 108.862,-131.658 101.762,-139.521 108.215,-142.233"/>
</g>
<!-- Node5 -->
<g id="node5" class="node"><title>Node5</title>
<g id="a_node5"><a xlink:href="ast_8h.html" target="_top" xlink:title="../parser/ast.h">
<polygon fill="white" stroke="black" points="151,-112.5 151,-131.5 228,-131.5 228,-112.5 151,-112.5"/>
<text text-anchor="middle" x="189.5" y="-119.5" font-family="Helvetica,sans-Serif" font-size="10.00">../parser/ast.h</text>
</a>
</g>
</g>
<!-- Node1&#45;&gt;Node5 -->
<g id="edge4" class="edge"><title>Node1&#45;&gt;Node5</title>
<path fill="none" stroke="midnightblue" d="M111.673,-168.399C128.022,-158.862 149.515,-146.325 165.77,-136.842"/>
<polygon fill="midnightblue" stroke="midnightblue" points="167.784,-139.72 174.658,-131.658 164.257,-133.673 167.784,-139.72"/>
</g>
<!-- Node5&#45;&gt;Node3 -->
<g id="edge6" class="edge"><title>Node5&#45;&gt;Node3</title>
<path fill="none" stroke="midnightblue" d="M172.309,-112.324C155.149,-103.664 128.554,-90.2424 108.753,-80.249"/>
<polygon fill="midnightblue" stroke="midnightblue" points="110.153,-77.0354 99.6487,-75.6545 106.999,-83.2847 110.153,-77.0354"/>
</g>
<!-- Node6 -->
<g id="node6" class="node"><title>Node6</title>
<polygon fill="white" stroke="#bfbfbf" points="168,-0.5 168,-19.5 209,-19.5 209,-0.5 168,-0.5"/>
<text text-anchor="middle" x="188.5" y="-7.5" font-family="Helvetica,sans-Serif" font-size="10.00">string</text>
</g>
<!-- Node5&#45;&gt;Node6 -->
<g id="edge5" class="edge"><title>Node5&#45;&gt;Node6</title>
<path fill="none" stroke="midnightblue" d="M184.879,-112.339C180.441,-103.493 174.046,-89.22 171.5,-76 168.402,-59.9127 173.82,-41.9121 179.343,-28.9401"/>
<polygon fill="midnightblue" stroke="midnightblue" points="182.576,-30.2894 183.634,-19.7475 176.233,-27.3288 182.576,-30.2894"/>
</g>
<!-- Node7 -->
<g id="node7" class="node"><title>Node7</title>
<g id="a_node7"><a xlink:href="visitor_8h.html" target="_top" xlink:title="../visitor/visitor.h">
<polygon fill="white" stroke="black" points="181,-56.5 181,-75.5 270,-75.5 270,-56.5 181,-56.5"/>
<text text-anchor="middle" x="225.5" y="-63.5" font-family="Helvetica,sans-Serif" font-size="10.00">../visitor/visitor.h</text>
</a>
</g>
</g>
<!-- Node5&#45;&gt;Node7 -->
<g id="edge7" class="edge"><title>Node5&#45;&gt;Node7</title>
<path fill="none" stroke="midnightblue" d="M195.445,-112.083C200.477,-104.534 207.837,-93.4948 214.013,-84.2298"/>
<polygon fill="midnightblue" stroke="midnightblue" points="217.031,-86.0131 219.666,-75.7511 211.207,-82.1301 217.031,-86.0131"/>
</g>
<!-- Node7&#45;&gt;Node6 -->
<g id="edge8" class="edge"><title>Node7&#45;&gt;Node6</title>
<path fill="none" stroke="midnightblue" d="M219.39,-56.083C214.218,-48.5341 206.654,-37.4948 200.306,-28.2298"/>
<polygon fill="midnightblue" stroke="midnightblue" points="203.036,-26.0221 194.496,-19.7511 197.261,-29.9787 203.036,-26.0221"/>
</g>
</g>
</svg>
