<?xml version="1.0" encoding="UTF-8" standalone="no"?>
<!DOCTYPE svg PUBLIC "-//W3C//DTD SVG 1.1//EN"
 "http://www.w3.org/Graphics/SVG/1.1/DTD/svg11.dtd">
<!-- Generated by graphviz version 2.38.0 (20140413.2041)
 -->
<!-- Title: src/visitor/semantic_analysis.cpp Pages: 1 -->
<svg width="279pt" height="263pt"
 viewBox="0.00 0.00 278.50 263.00" xmlns="http://www.w3.org/2000/svg" xmlns:xlink="http://www.w3.org/1999/xlink">
<g id="graph0" class="graph" transform="scale(1 1) rotate(0) translate(4 259)">
<title>src/visitor/semantic_analysis.cpp</title>
<polygon fill="white" stroke="none" points="-4,4 -4,-259 274.5,-259 274.5,4 -4,4"/>
<!-- Node1 -->
<g id="node1" class="node"><title>Node1</title>
<polygon fill="#bfbfbf" stroke="black" points="127.5,-224.5 127.5,-254.5 229.5,-254.5 229.5,-224.5 127.5,-224.5"/>
<text text-anchor="start" x="135.5" y="-242.5" font-family="Helvetica,sans-Serif" font-size="10.00">src/visitor/semantic</text>
<text text-anchor="middle" x="178.5" y="-231.5" font-family="Helvetica,sans-Serif" font-size="10.00">_analysis.cpp</text>
</g>
<!-- Node2 -->
<g id="node2" class="node"><title>Node2</title>
<g id="a_node2"><a xlink:href="semantic__analysis_8h.html" target="_top" xlink:title="semantic_analysis.h">
<polygon fill="white" stroke="black" points="34.5,-168.5 34.5,-187.5 140.5,-187.5 140.5,-168.5 34.5,-168.5"/>
<text text-anchor="middle" x="87.5" y="-175.5" font-family="Helvetica,sans-Serif" font-size="10.00">semantic_analysis.h</text>
</a>
</g>
</g>
<!-- Node1&#45;&gt;Node2 -->
<g id="edge1" class="edge"><title>Node1&#45;&gt;Node2</title>
<path fill="none" stroke="midnightblue" d="M156.934,-224.399C142.62,-215.04 123.888,-202.792 109.489,-193.377"/>
<polygon fill="midnightblue" stroke="midnightblue" points="111.026,-190.201 100.741,-187.658 107.196,-196.06 111.026,-190.201"/>
</g>
<!-- Node9 -->
<g id="node9" class="node"><title>Node9</title>
<polygon fill="white" stroke="#bfbfbf" points="158.5,-168.5 158.5,-187.5 198.5,-187.5 198.5,-168.5 158.5,-168.5"/>
<text text-anchor="middle" x="178.5" y="-175.5" font-family="Helvetica,sans-Serif" font-size="10.00">utility</text>
</g>
<!-- Node1&#45;&gt;Node9 -->
<g id="edge10" class="edge"><title>Node1&#45;&gt;Node9</title>
<path fill="none" stroke="midnightblue" d="M178.5,-224.399C178.5,-216.466 178.5,-206.458 178.5,-197.858"/>
<polygon fill="midnightblue" stroke="midnightblue" points="182,-197.658 178.5,-187.658 175,-197.658 182,-197.658"/>
</g>
<!-- Node10 -->
<g id="node10" class="node"><title>Node10</title>
<polygon fill="white" stroke="#bfbfbf" points="216.5,-168.5 216.5,-187.5 270.5,-187.5 270.5,-168.5 216.5,-168.5"/>
<text text-anchor="middle" x="243.5" y="-175.5" font-family="Helvetica,sans-Serif" font-size="10.00">iostream</text>
</g>
<!-- Node1&#45;&gt;Node10 -->
<g id="edge11" class="edge"><title>Node1&#45;&gt;Node10</title>
<path fill="none" stroke="midnightblue" d="M193.904,-224.399C203.739,-215.397 216.493,-203.721 226.605,-194.465"/>
<polygon fill="midnightblue" stroke="midnightblue" points="229.029,-196.992 234.042,-187.658 224.302,-191.828 229.029,-196.992"/>
</g>
<!-- Node3 -->
<g id="node3" class="node"><title>Node3</title>
<polygon fill="white" stroke="#bfbfbf" points="0,-112.5 0,-131.5 35,-131.5 35,-112.5 0,-112.5"/>
<text text-anchor="middle" x="17.5" y="-119.5" font-family="Helvetica,sans-Serif" font-size="10.00">map</text>
</g>
<!-- Node2&#45;&gt;Node3 -->
<g id="edge2" class="edge"><title>Node2&#45;&gt;Node3</title>
<path fill="none" stroke="midnightblue" d="M76.2533,-168.324C65.7026,-160.185 49.6993,-147.839 37.0578,-138.087"/>
<polygon fill="midnightblue" stroke="midnightblue" points="39.007,-135.171 28.9513,-131.834 34.7314,-140.713 39.007,-135.171"/>
</g>
<!-- Node4 -->
<g id="node4" class="node"><title>Node4</title>
<polygon fill="white" stroke="#bfbfbf" points="60.5,-56.5 60.5,-75.5 104.5,-75.5 104.5,-56.5 60.5,-56.5"/>
<text text-anchor="middle" x="82.5" y="-63.5" font-family="Helvetica,sans-Serif" font-size="10.00">vector</text>
</g>
<!-- Node2&#45;&gt;Node4 -->
<g id="edge3" class="edge"><title>Node2&#45;&gt;Node4</title>
<path fill="none" stroke="midnightblue" d="M86.2575,-168.397C85.0194,-159.358 83.2042,-144.715 82.5,-132 81.6409,-116.488 81.7058,-98.8615 81.9493,-85.8811"/>
<polygon fill="midnightblue" stroke="midnightblue" points="85.4493,-85.9212 82.1906,-75.8399 78.4513,-85.7529 85.4493,-85.9212"/>
</g>
<!-- Node5 -->
<g id="node5" class="node"><title>Node5</title>
<polygon fill="white" stroke="#bfbfbf" points="92,-112.5 92,-131.5 133,-131.5 133,-112.5 92,-112.5"/>
<text text-anchor="middle" x="112.5" y="-119.5" font-family="Helvetica,sans-Serif" font-size="10.00">stack</text>
</g>
<!-- Node2&#45;&gt;Node5 -->
<g id="edge4" class="edge"><title>Node2&#45;&gt;Node5</title>
<path fill="none" stroke="midnightblue" d="M91.6282,-168.083C95.0139,-160.77 99.916,-150.181 104.119,-141.103"/>
<polygon fill="midnightblue" stroke="midnightblue" points="107.423,-142.296 108.449,-131.751 101.071,-139.355 107.423,-142.296"/>
</g>
<!-- Node6 -->
<g id="node6" class="node"><title>Node6</title>
<g id="a_node6"><a xlink:href="ast_8h.html" target="_top" xlink:title="../parser/ast.h">
<polygon fill="white" stroke="black" points="151,-112.5 151,-131.5 228,-131.5 228,-112.5 151,-112.5"/>
<text text-anchor="middle" x="189.5" y="-119.5" font-family="Helvetica,sans-Serif" font-size="10.00">../parser/ast.h</text>
</a>
</g>
</g>
<!-- Node2&#45;&gt;Node6 -->
<g id="edge5" class="edge"><title>Node2&#45;&gt;Node6</title>
<path fill="none" stroke="midnightblue" d="M103.888,-168.324C120.171,-159.703 145.367,-146.364 164.216,-136.386"/>
<polygon fill="midnightblue" stroke="midnightblue" points="165.952,-139.427 173.153,-131.655 162.677,-133.24 165.952,-139.427"/>
</g>
<!-- Node6&#45;&gt;Node4 -->
<g id="edge7" class="edge"><title>Node6&#45;&gt;Node4</title>
<path fill="none" stroke="midnightblue" d="M172.309,-112.324C155.149,-103.664 128.554,-90.2424 108.753,-80.249"/>
<polygon fill="midnightblue" stroke="midnightblue" points="110.153,-77.0354 99.6487,-75.6545 106.999,-83.2847 110.153,-77.0354"/>
</g>
<!-- Node7 -->
<g id="node7" class="node"><title>Node7</title>
<polygon fill="white" stroke="#bfbfbf" points="168,-0.5 168,-19.5 209,-19.5 209,-0.5 168,-0.5"/>
<text text-anchor="middle" x="188.5" y="-7.5" font-family="Helvetica,sans-Serif" font-size="10.00">string</text>
</g>
<!-- Node6&#45;&gt;Node7 -->
<g id="edge6" class="edge"><title>Node6&#45;&gt;Node7</title>
<path fill="none" stroke="midnightblue" d="M184.879,-112.339C180.441,-103.493 174.046,-89.22 171.5,-76 168.402,-59.9127 173.82,-41.9121 179.343,-28.9401"/>
<polygon fill="midnightblue" stroke="midnightblue" points="182.576,-30.2894 183.634,-19.7475 176.233,-27.3288 182.576,-30.2894"/>
</g>
<!-- Node8 -->
<g id="node8" class="node"><title>Node8</title>
<g id="a_node8"><a xlink:href="visitor_8h.html" target="_top" xlink:title="../visitor/visitor.h">
<polygon fill="white" stroke="black" points="181,-56.5 181,-75.5 270,-75.5 270,-56.5 181,-56.5"/>
<text text-anchor="middle" x="225.5" y="-63.5" font-family="Helvetica,sans-Serif" font-size="10.00">../visitor/visitor.h</text>
</a>
</g>
</g>
<!-- Node6&#45;&gt;Node8 -->
<g id="edge8" class="edge"><title>Node6&#45;&gt;Node8</title>
<path fill="none" stroke="midnightblue" d="M195.445,-112.083C200.477,-104.534 207.837,-93.4948 214.013,-84.2298"/>
<polygon fill="midnightblue" stroke="midnightblue" points="217.031,-86.0131 219.666,-75.7511 211.207,-82.1301 217.031,-86.0131"/>
</g>
<!-- Node8&#45;&gt;Node7 -->
<g id="edge9" class="edge"><title>Node8&#45;&gt;Node7</title>
<path fill="none" stroke="midnightblue" d="M219.39,-56.083C214.218,-48.5341 206.654,-37.4948 200.306,-28.2298"/>
<polygon fill="midnightblue" stroke="midnightblue" points="203.036,-26.0221 194.496,-19.7511 197.261,-29.9787 203.036,-26.0221"/>
</g>
</g>
</svg>
