<?xml version="1.0" encoding="UTF-8" standalone="no"?>
<!DOCTYPE svg PUBLIC "-//W3C//DTD SVG 1.1//EN"
 "http://www.w3.org/Graphics/SVG/1.1/DTD/svg11.dtd">
<!-- Generated by graphviz version 2.38.0 (20140413.2041)
 -->
<!-- Title: src/lexer/token.cpp Pages: 1 -->
<svg width="108pt" height="140pt"
 viewBox="0.00 0.00 108.00 140.00" xmlns="http://www.w3.org/2000/svg" xmlns:xlink="http://www.w3.org/1999/xlink">
<g id="graph0" class="graph" transform="scale(1 1) rotate(0) translate(4 136)">
<title>src/lexer/token.cpp</title>
<polygon fill="white" stroke="none" points="-4,4 -4,-136 104,-136 104,4 -4,4"/>
<!-- Node1 -->
<g id="node1" class="node"><title>Node1</title>
<polygon fill="#bfbfbf" stroke="black" points="0,-112.5 0,-131.5 100,-131.5 100,-112.5 0,-112.5"/>
<text text-anchor="middle" x="50" y="-119.5" font-family="Helvetica,sans-Serif" font-size="10.00">src/lexer/token.cpp</text>
</g>
<!-- Node2 -->
<g id="node2" class="node"><title>Node2</title>
<g id="a_node2"><a xlink:href="token_8h.html" target="_top" xlink:title="token.h">
<polygon fill="white" stroke="black" points="25.5,-56.5 25.5,-75.5 74.5,-75.5 74.5,-56.5 25.5,-56.5"/>
<text text-anchor="middle" x="50" y="-63.5" font-family="Helvetica,sans-Serif" font-size="10.00">token.h</text>
</a>
</g>
</g>
<!-- Node1&#45;&gt;Node2 -->
<g id="edge1" class="edge"><title>Node1&#45;&gt;Node2</title>
<path fill="none" stroke="midnightblue" d="M50,-112.083C50,-105.006 50,-94.8611 50,-85.9865"/>
<polygon fill="midnightblue" stroke="midnightblue" points="53.5001,-85.751 50,-75.7511 46.5001,-85.7511 53.5001,-85.751"/>
</g>
<!-- Node3 -->
<g id="node3" class="node"><title>Node3</title>
<polygon fill="white" stroke="#bfbfbf" points="29.5,-0.5 29.5,-19.5 70.5,-19.5 70.5,-0.5 29.5,-0.5"/>
<text text-anchor="middle" x="50" y="-7.5" font-family="Helvetica,sans-Serif" font-size="10.00">string</text>
</g>
<!-- Node2&#45;&gt;Node3 -->
<g id="edge2" class="edge"><title>Node2&#45;&gt;Node3</title>
<path fill="none" stroke="midnightblue" d="M50,-56.083C50,-49.0059 50,-38.8611 50,-29.9865"/>
<polygon fill="midnightblue" stroke="midnightblue" points="53.5001,-29.751 50,-19.7511 46.5001,-29.7511 53.5001,-29.751"/>
</g>
</g>
</svg>
