<?xml version="1.0" encoding="UTF-8" standalone="no"?>
<!DOCTYPE svg PUBLIC "-//W3C//DTD SVG 1.1//EN"
 "http://www.w3.org/Graphics/SVG/1.1/DTD/svg11.dtd">
<!-- Generated by graphviz version 2.38.0 (20140413.2041)
 -->
<!-- Title: src/lexer/token.h Pages: 1 -->
<svg width="297pt" height="196pt"
 viewBox="0.00 0.00 297.00 196.00" xmlns="http://www.w3.org/2000/svg" xmlns:xlink="http://www.w3.org/1999/xlink">
<g id="graph0" class="graph" transform="scale(1 1) rotate(0) translate(4 192)">
<title>src/lexer/token.h</title>
<polygon fill="white" stroke="none" points="-4,4 -4,-192 293,-192 293,4 -4,4"/>
<!-- Node1 -->
<g id="node1" class="node"><title>Node1</title>
<polygon fill="#bfbfbf" stroke="black" points="136,-168.5 136,-187.5 225,-187.5 225,-168.5 136,-168.5"/>
<text text-anchor="middle" x="180.5" y="-175.5" font-family="Helvetica,sans-Serif" font-size="10.00">src/lexer/token.h</text>
</g>
<!-- Node2 -->
<g id="node2" class="node"><title>Node2</title>
<g id="a_node2"><a xlink:href="lexer_8h.html" target="_top" xlink:title="Contains the implementation of the table&#45;driven lexer. ">
<polygon fill="white" stroke="black" points="82.5,-112.5 82.5,-131.5 168.5,-131.5 168.5,-112.5 82.5,-112.5"/>
<text text-anchor="middle" x="125.5" y="-119.5" font-family="Helvetica,sans-Serif" font-size="10.00">src/lexer/lexer.h</text>
</a>
</g>
</g>
<!-- Node1&#45;&gt;Node2 -->
<g id="edge1" class="edge"><title>Node1&#45;&gt;Node2</title>
<path fill="none" stroke="midnightblue" d="M164.206,-161.002C154.459,-151.433 142.447,-139.639 134.413,-131.751"/>
<polygon fill="midnightblue" stroke="midnightblue" points="161.83,-163.575 171.418,-168.083 166.734,-158.58 161.83,-163.575"/>
</g>
<!-- Node7 -->
<g id="node7" class="node"><title>Node7</title>
<g id="a_node7"><a xlink:href="token_8cpp.html" target="_top" xlink:title="Implements the functions in token.h. ">
<polygon fill="white" stroke="black" points="186.5,-112.5 186.5,-131.5 286.5,-131.5 286.5,-112.5 186.5,-112.5"/>
<text text-anchor="middle" x="236.5" y="-119.5" font-family="Helvetica,sans-Serif" font-size="10.00">src/lexer/token.cpp</text>
</a>
</g>
</g>
<!-- Node1&#45;&gt;Node7 -->
<g id="edge7" class="edge"><title>Node1&#45;&gt;Node7</title>
<path fill="none" stroke="midnightblue" d="M196.83,-161.253C206.765,-151.673 219.088,-139.791 227.339,-131.834"/>
<polygon fill="midnightblue" stroke="midnightblue" points="194.266,-158.863 189.497,-168.324 199.125,-163.902 194.266,-158.863"/>
</g>
<!-- Node3 -->
<g id="node3" class="node"><title>Node3</title>
<g id="a_node3"><a xlink:href="lexer_8cpp.html" target="_top" xlink:title="Implements the functions in lexer.h. ">
<polygon fill="white" stroke="black" points="0,-56.5 0,-75.5 97,-75.5 97,-56.5 0,-56.5"/>
<text text-anchor="middle" x="48.5" y="-63.5" font-family="Helvetica,sans-Serif" font-size="10.00">src/lexer/lexer.cpp</text>
</a>
</g>
</g>
<!-- Node2&#45;&gt;Node3 -->
<g id="edge2" class="edge"><title>Node2&#45;&gt;Node3</title>
<path fill="none" stroke="midnightblue" d="M104.599,-106.342C90.5889,-96.5169 72.617,-83.9132 60.8407,-75.6545"/>
<polygon fill="midnightblue" stroke="midnightblue" points="102.932,-109.448 113.129,-112.324 106.951,-103.717 102.932,-109.448"/>
</g>
<!-- Node4 -->
<g id="node4" class="node"><title>Node4</title>
<g id="a_node4"><a xlink:href="main_8cpp.html" target="_top" xlink:title="src/main.cpp">
<polygon fill="white" stroke="black" points="89,-0.5 89,-19.5 162,-19.5 162,-0.5 89,-0.5"/>
<text text-anchor="middle" x="125.5" y="-7.5" font-family="Helvetica,sans-Serif" font-size="10.00">src/main.cpp</text>
</a>
</g>
</g>
<!-- Node2&#45;&gt;Node4 -->
<g id="edge3" class="edge"><title>Node2&#45;&gt;Node4</title>
<path fill="none" stroke="midnightblue" d="M125.5,-102.348C125.5,-78.2538 125.5,-37.3079 125.5,-19.5914"/>
<polygon fill="midnightblue" stroke="midnightblue" points="122,-102.368 125.5,-112.368 129,-102.369 122,-102.368"/>
</g>
<!-- Node5 -->
<g id="node5" class="node"><title>Node5</title>
<g id="a_node5"><a xlink:href="parser_8h.html" target="_top" xlink:title="src/parser/parser.h">
<polygon fill="white" stroke="black" points="153.5,-56.5 153.5,-75.5 251.5,-75.5 251.5,-56.5 153.5,-56.5"/>
<text text-anchor="middle" x="202.5" y="-63.5" font-family="Helvetica,sans-Serif" font-size="10.00">src/parser/parser.h</text>
</a>
</g>
</g>
<!-- Node2&#45;&gt;Node5 -->
<g id="edge4" class="edge"><title>Node2&#45;&gt;Node5</title>
<path fill="none" stroke="midnightblue" d="M146.401,-106.342C160.411,-96.5169 178.383,-83.9132 190.159,-75.6545"/>
<polygon fill="midnightblue" stroke="midnightblue" points="144.049,-103.717 137.871,-112.324 148.068,-109.448 144.049,-103.717"/>
</g>
<!-- Node5&#45;&gt;Node4 -->
<g id="edge5" class="edge"><title>Node5&#45;&gt;Node4</title>
<path fill="none" stroke="midnightblue" d="M181.599,-50.3422C167.589,-40.5169 149.617,-27.9132 137.841,-19.6545"/>
<polygon fill="midnightblue" stroke="midnightblue" points="179.932,-53.4477 190.129,-56.324 183.951,-47.7166 179.932,-53.4477"/>
</g>
<!-- Node6 -->
<g id="node6" class="node"><title>Node6</title>
<g id="a_node6"><a xlink:href="parser_8cpp.html" target="_top" xlink:title="src/parser/parser.cpp">
<polygon fill="white" stroke="black" points="180,-0.5 180,-19.5 289,-19.5 289,-0.5 180,-0.5"/>
<text text-anchor="middle" x="234.5" y="-7.5" font-family="Helvetica,sans-Serif" font-size="10.00">src/parser/parser.cpp</text>
</a>
</g>
</g>
<!-- Node5&#45;&gt;Node6 -->
<g id="edge6" class="edge"><title>Node5&#45;&gt;Node6</title>
<path fill="none" stroke="midnightblue" d="M213.004,-47.2747C218.473,-38.0454 224.918,-27.1703 229.314,-19.7511"/>
<polygon fill="midnightblue" stroke="midnightblue" points="209.871,-45.6957 207.784,-56.083 215.893,-49.2644 209.871,-45.6957"/>
</g>
</g>
</svg>
