<?xml version="1.0" encoding="UTF-8" standalone="no"?>
<!DOCTYPE svg PUBLIC "-//W3C//DTD SVG 1.1//EN"
 "http://www.w3.org/Graphics/SVG/1.1/DTD/svg11.dtd">
<!-- Generated by graphviz version 2.38.0 (20140413.2041)
 -->
<!-- Title: src/visitor/visitor.h Pages: 1 -->
<svg width="624pt" height="218pt"
 viewBox="0.00 0.00 623.50 218.00" xmlns="http://www.w3.org/2000/svg" xmlns:xlink="http://www.w3.org/1999/xlink">
<g id="graph0" class="graph" transform="scale(1 1) rotate(0) translate(4 214)">
<title>src/visitor/visitor.h</title>
<polygon fill="white" stroke="none" points="-4,4 -4,-214 619.5,-214 619.5,4 -4,4"/>
<!-- Node1 -->
<g id="node1" class="node"><title>Node1</title>
<polygon fill="#bfbfbf" stroke="black" points="266.5,-190.5 266.5,-209.5 363.5,-209.5 363.5,-190.5 266.5,-190.5"/>
<text text-anchor="middle" x="315" y="-197.5" font-family="Helvetica,sans-Serif" font-size="10.00">src/visitor/visitor.h</text>
</g>
<!-- Node2 -->
<g id="node2" class="node"><title>Node2</title>
<g id="a_node2"><a xlink:href="ast_8h.html" target="_top" xlink:title="src/parser/ast.h">
<polygon fill="white" stroke="black" points="272.5,-134.5 272.5,-153.5 357.5,-153.5 357.5,-134.5 272.5,-134.5"/>
<text text-anchor="middle" x="315" y="-141.5" font-family="Helvetica,sans-Serif" font-size="10.00">src/parser/ast.h</text>
</a>
</g>
</g>
<!-- Node1&#45;&gt;Node2 -->
<g id="edge1" class="edge"><title>Node1&#45;&gt;Node2</title>
<path fill="none" stroke="midnightblue" d="M315,-179.805C315,-170.91 315,-160.78 315,-153.751"/>
<polygon fill="midnightblue" stroke="midnightblue" points="311.5,-180.083 315,-190.083 318.5,-180.083 311.5,-180.083"/>
</g>
<!-- Node6 -->
<g id="node6" class="node"><title>Node6</title>
<g id="a_node6"><a xlink:href="xml__visitor_8h.html" target="_top" xlink:title="src/visitor/xml_visitor.h">
<polygon fill="white" stroke="black" points="10,-73 10,-92 128,-92 128,-73 10,-73"/>
<text text-anchor="middle" x="69" y="-80" font-family="Helvetica,sans-Serif" font-size="10.00">src/visitor/xml_visitor.h</text>
</a>
</g>
</g>
<!-- Node1&#45;&gt;Node6 -->
<g id="edge15" class="edge"><title>Node1&#45;&gt;Node6</title>
<path fill="none" stroke="midnightblue" d="M287.447,-186.064C236.801,-162.285 130.183,-112.226 87.369,-92.1245"/>
<polygon fill="midnightblue" stroke="midnightblue" points="285.971,-189.237 296.51,-190.319 288.946,-182.9 285.971,-189.237"/>
</g>
<!-- Node10 -->
<g id="node10" class="node"><title>Node10</title>
<g id="a_node10"><a xlink:href="interpreter_8h.html" target="_top" xlink:title="src/visitor/interpreter.h">
<polygon fill="white" stroke="black" points="496,-73 496,-92 610,-92 610,-73 496,-73"/>
<text text-anchor="middle" x="553" y="-80" font-family="Helvetica,sans-Serif" font-size="10.00">src/visitor/interpreter.h</text>
</a>
</g>
</g>
<!-- Node1&#45;&gt;Node10 -->
<g id="edge16" class="edge"><title>Node1&#45;&gt;Node10</title>
<path fill="none" stroke="midnightblue" d="M341.963,-185.915C391.085,-162.077 493.893,-112.184 535.228,-92.1245"/>
<polygon fill="midnightblue" stroke="midnightblue" points="340.357,-182.804 332.889,-190.319 343.413,-189.101 340.357,-182.804"/>
</g>
<!-- Node3 -->
<g id="node3" class="node"><title>Node3</title>
<g id="a_node3"><a xlink:href="parser_8h.html" target="_top" xlink:title="src/parser/parser.h">
<polygon fill="white" stroke="black" points="266,-73 266,-92 364,-92 364,-73 266,-73"/>
<text text-anchor="middle" x="315" y="-80" font-family="Helvetica,sans-Serif" font-size="10.00">src/parser/parser.h</text>
</a>
</g>
</g>
<!-- Node2&#45;&gt;Node3 -->
<g id="edge2" class="edge"><title>Node2&#45;&gt;Node3</title>
<path fill="none" stroke="midnightblue" d="M315,-124.317C315,-113.496 315,-100.398 315,-92.0091"/>
<polygon fill="midnightblue" stroke="midnightblue" points="311.5,-124.475 315,-134.475 318.5,-124.475 311.5,-124.475"/>
</g>
<!-- Node2&#45;&gt;Node6 -->
<g id="edge5" class="edge"><title>Node2&#45;&gt;Node6</title>
<path fill="none" stroke="midnightblue" d="M269.991,-132.114C222.245,-120.565 147.809,-102.561 104.18,-92.0091"/>
<polygon fill="midnightblue" stroke="midnightblue" points="269.212,-135.526 279.754,-134.475 270.857,-128.722 269.212,-135.526"/>
</g>
<!-- Node8 -->
<g id="node8" class="node"><title>Node8</title>
<g id="a_node8"><a xlink:href="semantic__analysis_8h.html" target="_top" xlink:title="src/visitor/semantic\l_analysis.h">
<polygon fill="white" stroke="black" points="146,-67.5 146,-97.5 248,-97.5 248,-67.5 146,-67.5"/>
<text text-anchor="start" x="154" y="-85.5" font-family="Helvetica,sans-Serif" font-size="10.00">src/visitor/semantic</text>
<text text-anchor="middle" x="197" y="-74.5" font-family="Helvetica,sans-Serif" font-size="10.00">_analysis.h</text>
</a>
</g>
</g>
<!-- Node2&#45;&gt;Node8 -->
<g id="edge8" class="edge"><title>Node2&#45;&gt;Node8</title>
<path fill="none" stroke="midnightblue" d="M289.096,-129.938C270.074,-120.347 244.267,-107.334 224.81,-97.523"/>
<polygon fill="midnightblue" stroke="midnightblue" points="287.589,-133.098 298.093,-134.475 290.74,-126.847 287.589,-133.098"/>
</g>
<!-- Node2&#45;&gt;Node10 -->
<g id="edge11" class="edge"><title>Node2&#45;&gt;Node10</title>
<path fill="none" stroke="midnightblue" d="M358.835,-132.041C405.04,-120.49 476.842,-102.539 518.964,-92.0091"/>
<polygon fill="midnightblue" stroke="midnightblue" points="357.952,-128.654 349.1,-134.475 359.65,-135.445 357.952,-128.654"/>
</g>
<!-- Node12 -->
<g id="node12" class="node"><title>Node12</title>
<g id="a_node12"><a xlink:href="ast_8cpp.html" target="_top" xlink:title="src/parser/ast.cpp">
<polygon fill="white" stroke="black" points="382.5,-73 382.5,-92 477.5,-92 477.5,-73 382.5,-73"/>
<text text-anchor="middle" x="430" y="-80" font-family="Helvetica,sans-Serif" font-size="10.00">src/parser/ast.cpp</text>
</a>
</g>
</g>
<!-- Node2&#45;&gt;Node12 -->
<g id="edge14" class="edge"><title>Node2&#45;&gt;Node12</title>
<path fill="none" stroke="midnightblue" d="M340.384,-129.867C362.672,-118.335 394.439,-101.899 413.554,-92.0091"/>
<polygon fill="midnightblue" stroke="midnightblue" points="338.75,-126.771 331.477,-134.475 341.967,-132.988 338.75,-126.771"/>
</g>
<!-- Node4 -->
<g id="node4" class="node"><title>Node4</title>
<g id="a_node4"><a xlink:href="main_8cpp.html" target="_top" xlink:title="src/main.cpp">
<polygon fill="white" stroke="black" points="266.5,-6 266.5,-25 339.5,-25 339.5,-6 266.5,-6"/>
<text text-anchor="middle" x="303" y="-13" font-family="Helvetica,sans-Serif" font-size="10.00">src/main.cpp</text>
</a>
</g>
</g>
<!-- Node3&#45;&gt;Node4 -->
<g id="edge3" class="edge"><title>Node3&#45;&gt;Node4</title>
<path fill="none" stroke="midnightblue" d="M311.499,-62.537C309.216,-50.1703 306.345,-34.6198 304.593,-25.1273"/>
<polygon fill="midnightblue" stroke="midnightblue" points="308.124,-63.5354 313.382,-72.7338 315.008,-62.2645 308.124,-63.5354"/>
</g>
<!-- Node5 -->
<g id="node5" class="node"><title>Node5</title>
<g id="a_node5"><a xlink:href="parser_8cpp.html" target="_top" xlink:title="src/parser/parser.cpp">
<polygon fill="white" stroke="black" points="357.5,-6 357.5,-25 466.5,-25 466.5,-6 357.5,-6"/>
<text text-anchor="middle" x="412" y="-13" font-family="Helvetica,sans-Serif" font-size="10.00">src/parser/parser.cpp</text>
</a>
</g>
</g>
<!-- Node3&#45;&gt;Node5 -->
<g id="edge4" class="edge"><title>Node3&#45;&gt;Node5</title>
<path fill="none" stroke="midnightblue" d="M336.497,-67.0945C355.686,-54.2359 383.153,-35.8306 399.125,-25.1273"/>
<polygon fill="midnightblue" stroke="midnightblue" points="334.441,-64.2595 328.082,-72.7338 338.338,-70.0746 334.441,-64.2595"/>
</g>
<!-- Node6&#45;&gt;Node4 -->
<g id="edge6" class="edge"><title>Node6&#45;&gt;Node4</title>
<path fill="none" stroke="midnightblue" d="M112.168,-70.4669C150.368,-60.5698 207.562,-45.4245 257,-31 263.27,-29.1706 269.989,-27.1099 276.303,-25.1287"/>
<polygon fill="midnightblue" stroke="midnightblue" points="111.208,-67.1 102.401,-72.9902 112.959,-73.8774 111.208,-67.1"/>
</g>
<!-- Node7 -->
<g id="node7" class="node"><title>Node7</title>
<g id="a_node7"><a xlink:href="xml__visitor_8cpp.html" target="_top" xlink:title="src/visitor/xml_visitor.cpp">
<polygon fill="white" stroke="black" points="0,-6 0,-25 128,-25 128,-6 0,-6"/>
<text text-anchor="middle" x="64" y="-13" font-family="Helvetica,sans-Serif" font-size="10.00">src/visitor/xml_visitor.cpp</text>
</a>
</g>
</g>
<!-- Node6&#45;&gt;Node7 -->
<g id="edge7" class="edge"><title>Node6&#45;&gt;Node7</title>
<path fill="none" stroke="midnightblue" d="M67.5413,-62.537C66.59,-50.1703 65.3938,-34.6198 64.6636,-25.1273"/>
<polygon fill="midnightblue" stroke="midnightblue" points="64.0689,-63.0317 68.3257,-72.7338 71.0483,-62.4948 64.0689,-63.0317"/>
</g>
<!-- Node8&#45;&gt;Node4 -->
<g id="edge9" class="edge"><title>Node8&#45;&gt;Node4</title>
<path fill="none" stroke="midnightblue" d="M228.57,-62.1411C248.716,-49.7874 273.83,-34.3875 289.127,-25.007"/>
<polygon fill="midnightblue" stroke="midnightblue" points="226.696,-59.1847 220,-67.396 230.355,-65.1521 226.696,-59.1847"/>
</g>
<!-- Node9 -->
<g id="node9" class="node"><title>Node9</title>
<g id="a_node9"><a xlink:href="semantic__analysis_8cpp.html" target="_top" xlink:title="src/visitor/semantic\l_analysis.cpp">
<polygon fill="white" stroke="black" points="146,-0.5 146,-30.5 248,-30.5 248,-0.5 146,-0.5"/>
<text text-anchor="start" x="154" y="-18.5" font-family="Helvetica,sans-Serif" font-size="10.00">src/visitor/semantic</text>
<text text-anchor="middle" x="197" y="-7.5" font-family="Helvetica,sans-Serif" font-size="10.00">_analysis.cpp</text>
</a>
</g>
</g>
<!-- Node8&#45;&gt;Node9 -->
<g id="edge10" class="edge"><title>Node8&#45;&gt;Node9</title>
<path fill="none" stroke="midnightblue" d="M197,-57.1081C197,-48.1539 197,-38.3227 197,-30.5765"/>
<polygon fill="midnightblue" stroke="midnightblue" points="193.5,-57.3959 197,-67.396 200.5,-57.396 193.5,-57.3959"/>
</g>
<!-- Node10&#45;&gt;Node4 -->
<g id="edge12" class="edge"><title>Node10&#45;&gt;Node4</title>
<path fill="none" stroke="midnightblue" d="M505.121,-70.7084C463.415,-61.0696 401.423,-46.1669 348,-31 341.683,-29.2066 334.92,-27.1181 328.606,-25.094"/>
<polygon fill="midnightblue" stroke="midnightblue" points="504.477,-74.1516 515.007,-72.9824 506.046,-67.3298 504.477,-74.1516"/>
</g>
<!-- Node11 -->
<g id="node11" class="node"><title>Node11</title>
<g id="a_node11"><a xlink:href="interpreter_8cpp.html" target="_top" xlink:title="src/visitor/interpreter.cpp">
<polygon fill="white" stroke="black" points="490.5,-6 490.5,-25 615.5,-25 615.5,-6 490.5,-6"/>
<text text-anchor="middle" x="553" y="-13" font-family="Helvetica,sans-Serif" font-size="10.00">src/visitor/interpreter.cpp</text>
</a>
</g>
</g>
<!-- Node10&#45;&gt;Node11 -->
<g id="edge13" class="edge"><title>Node10&#45;&gt;Node11</title>
<path fill="none" stroke="midnightblue" d="M553,-62.537C553,-50.1703 553,-34.6198 553,-25.1273"/>
<polygon fill="midnightblue" stroke="midnightblue" points="549.5,-62.7338 553,-72.7338 556.5,-62.7338 549.5,-62.7338"/>
</g>
</g>
</svg>
