<?xml version="1.0" encoding="UTF-8" standalone="no"?>
<!DOCTYPE svg PUBLIC "-//W3C//DTD SVG 1.1//EN"
 "http://www.w3.org/Graphics/SVG/1.1/DTD/svg11.dtd">
<!-- Generated by graphviz version 2.38.0 (20140413.2041)
 -->
<!-- Title: src/visitor/xml_visitor.cpp Pages: 1 -->
<svg width="218pt" height="252pt"
 viewBox="0.00 0.00 218.00 252.00" xmlns="http://www.w3.org/2000/svg" xmlns:xlink="http://www.w3.org/1999/xlink">
<g id="graph0" class="graph" transform="scale(1 1) rotate(0) translate(4 248)">
<title>src/visitor/xml_visitor.cpp</title>
<polygon fill="white" stroke="none" points="-4,4 -4,-248 214,-248 214,4 -4,4"/>
<!-- Node1 -->
<g id="node1" class="node"><title>Node1</title>
<polygon fill="#bfbfbf" stroke="black" points="14,-224.5 14,-243.5 142,-243.5 142,-224.5 14,-224.5"/>
<text text-anchor="middle" x="78" y="-231.5" font-family="Helvetica,sans-Serif" font-size="10.00">src/visitor/xml_visitor.cpp</text>
</g>
<!-- Node2 -->
<g id="node2" class="node"><title>Node2</title>
<g id="a_node2"><a xlink:href="xml__visitor_8h.html" target="_top" xlink:title="xml_visitor.h">
<polygon fill="white" stroke="black" points="42,-168.5 42,-187.5 114,-187.5 114,-168.5 42,-168.5"/>
<text text-anchor="middle" x="78" y="-175.5" font-family="Helvetica,sans-Serif" font-size="10.00">xml_visitor.h</text>
</a>
</g>
</g>
<!-- Node1&#45;&gt;Node2 -->
<g id="edge1" class="edge"><title>Node1&#45;&gt;Node2</title>
<path fill="none" stroke="midnightblue" d="M78,-224.083C78,-217.006 78,-206.861 78,-197.986"/>
<polygon fill="midnightblue" stroke="midnightblue" points="81.5001,-197.751 78,-187.751 74.5001,-197.751 81.5001,-197.751"/>
</g>
<!-- Node3 -->
<g id="node3" class="node"><title>Node3</title>
<polygon fill="white" stroke="#bfbfbf" points="0,-112.5 0,-131.5 50,-131.5 50,-112.5 0,-112.5"/>
<text text-anchor="middle" x="25" y="-119.5" font-family="Helvetica,sans-Serif" font-size="10.00">fstream</text>
</g>
<!-- Node2&#45;&gt;Node3 -->
<g id="edge2" class="edge"><title>Node2&#45;&gt;Node3</title>
<path fill="none" stroke="midnightblue" d="M69.2481,-168.083C61.5303,-160.22 50.0953,-148.569 40.7835,-139.081"/>
<polygon fill="midnightblue" stroke="midnightblue" points="43.0916,-136.436 33.589,-131.751 38.0958,-141.34 43.0916,-136.436"/>
</g>
<!-- Node4 -->
<g id="node4" class="node"><title>Node4</title>
<g id="a_node4"><a xlink:href="visitor_8h.html" target="_top" xlink:title="visitor.h">
<polygon fill="white" stroke="black" points="58.5,-56.5 58.5,-75.5 109.5,-75.5 109.5,-56.5 58.5,-56.5"/>
<text text-anchor="middle" x="84" y="-63.5" font-family="Helvetica,sans-Serif" font-size="10.00">visitor.h</text>
</a>
</g>
</g>
<!-- Node2&#45;&gt;Node4 -->
<g id="edge3" class="edge"><title>Node2&#45;&gt;Node4</title>
<path fill="none" stroke="midnightblue" d="M78.4708,-168.368C79.4391,-150.617 81.6727,-109.666 82.9856,-85.5974"/>
<polygon fill="midnightblue" stroke="midnightblue" points="86.4814,-85.7672 83.5314,-75.5914 79.4918,-85.3859 86.4814,-85.7672"/>
</g>
<!-- Node6 -->
<g id="node6" class="node"><title>Node6</title>
<g id="a_node6"><a xlink:href="ast_8h.html" target="_top" xlink:title="../parser/ast.h">
<polygon fill="white" stroke="black" points="106.5,-112.5 106.5,-131.5 183.5,-131.5 183.5,-112.5 106.5,-112.5"/>
<text text-anchor="middle" x="145" y="-119.5" font-family="Helvetica,sans-Serif" font-size="10.00">../parser/ast.h</text>
</a>
</g>
</g>
<!-- Node2&#45;&gt;Node6 -->
<g id="edge5" class="edge"><title>Node2&#45;&gt;Node6</title>
<path fill="none" stroke="midnightblue" d="M88.7647,-168.324C98.7661,-160.263 113.887,-148.077 125.93,-138.369"/>
<polygon fill="midnightblue" stroke="midnightblue" points="128.45,-140.834 134.039,-131.834 124.057,-135.384 128.45,-140.834"/>
</g>
<!-- Node5 -->
<g id="node5" class="node"><title>Node5</title>
<polygon fill="white" stroke="#bfbfbf" points="90.5,-0.5 90.5,-19.5 131.5,-19.5 131.5,-0.5 90.5,-0.5"/>
<text text-anchor="middle" x="111" y="-7.5" font-family="Helvetica,sans-Serif" font-size="10.00">string</text>
</g>
<!-- Node4&#45;&gt;Node5 -->
<g id="edge4" class="edge"><title>Node4&#45;&gt;Node5</title>
<path fill="none" stroke="midnightblue" d="M88.4585,-56.083C92.1543,-48.6913 97.5234,-37.9533 102.094,-28.8111"/>
<polygon fill="midnightblue" stroke="midnightblue" points="105.283,-30.2606 106.624,-19.7511 99.0218,-27.1301 105.283,-30.2606"/>
</g>
<!-- Node6&#45;&gt;Node4 -->
<g id="edge8" class="edge"><title>Node6&#45;&gt;Node4</title>
<path fill="none" stroke="midnightblue" d="M135.199,-112.324C126.182,-104.341 112.594,-92.3128 101.682,-82.6529"/>
<polygon fill="midnightblue" stroke="midnightblue" points="103.787,-79.8416 93.979,-75.8339 99.1467,-85.083 103.787,-79.8416"/>
</g>
<!-- Node6&#45;&gt;Node5 -->
<g id="edge6" class="edge"><title>Node6&#45;&gt;Node5</title>
<path fill="none" stroke="midnightblue" d="M142.332,-112.368C136.82,-94.5366 124.073,-53.2953 116.648,-29.2717"/>
<polygon fill="midnightblue" stroke="midnightblue" points="119.953,-28.1119 113.656,-19.5914 113.265,-30.179 119.953,-28.1119"/>
</g>
<!-- Node7 -->
<g id="node7" class="node"><title>Node7</title>
<polygon fill="white" stroke="#bfbfbf" points="166,-56.5 166,-75.5 210,-75.5 210,-56.5 166,-56.5"/>
<text text-anchor="middle" x="188" y="-63.5" font-family="Helvetica,sans-Serif" font-size="10.00">vector</text>
</g>
<!-- Node6&#45;&gt;Node7 -->
<g id="edge7" class="edge"><title>Node6&#45;&gt;Node7</title>
<path fill="none" stroke="midnightblue" d="M152.101,-112.083C158.237,-104.377 167.27,-93.0333 174.739,-83.6531"/>
<polygon fill="midnightblue" stroke="midnightblue" points="177.54,-85.7542 181.032,-75.7511 172.064,-81.3936 177.54,-85.7542"/>
</g>
</g>
</svg>
