<?xml version="1.0" encoding="UTF-8" standalone="no"?>
<!DOCTYPE svg PUBLIC "-//W3C//DTD SVG 1.1//EN"
 "http://www.w3.org/Graphics/SVG/1.1/DTD/svg11.dtd">
<!-- Generated by graphviz version 2.38.0 (20140413.2041)
 -->
<!-- Title: parser::ASTFunctionDefinitionNode Pages: 1 -->
<svg width="210pt" height="209pt"
 viewBox="0.00 0.00 210.00 209.00" xmlns="http://www.w3.org/2000/svg" xmlns:xlink="http://www.w3.org/1999/xlink">
<g id="graph0" class="graph" transform="scale(1 1) rotate(0) translate(4 205)">
<title>parser::ASTFunctionDefinitionNode</title>
<polygon fill="white" stroke="none" points="-4,4 -4,-205 206,-205 206,4 -4,4"/>
<!-- Node1 -->
<g id="node1" class="node"><title>Node1</title>
<polygon fill="#bfbfbf" stroke="black" points="1,-0.5 1,-19.5 172,-19.5 172,-0.5 1,-0.5"/>
<text text-anchor="middle" x="86.5" y="-7.5" font-family="Helvetica,sans-Serif" font-size="10.00">parser::ASTFunctionDefinitionNode</text>
</g>
<!-- Node2 -->
<g id="node2" class="node"><title>Node2</title>
<g id="a_node2"><a xlink:href="../../d6/d89/classparser_1_1_a_s_t_statement_node.html" target="_top" xlink:title="parser::ASTStatementNode">
<polygon fill="white" stroke="black" points="0,-124.5 0,-143.5 137,-143.5 137,-124.5 0,-124.5"/>
<text text-anchor="middle" x="68.5" y="-131.5" font-family="Helvetica,sans-Serif" font-size="10.00">parser::ASTStatementNode</text>
</a>
</g>
</g>
<!-- Node2&#45;&gt;Node1 -->
<g id="edge1" class="edge"><title>Node2&#45;&gt;Node1</title>
<path fill="none" stroke="midnightblue" d="M70.0463,-114.23C71.2454,-100.991 73.1057,-82.8619 75.5,-67 78.0435,-50.1491 82.1348,-30.6623 84.5458,-19.6884"/>
<polygon fill="midnightblue" stroke="midnightblue" points="66.5393,-114.162 69.166,-124.426 73.5133,-114.764 66.5393,-114.162"/>
</g>
<!-- Node4 -->
<g id="node4" class="node"><title>Node4</title>
<g id="a_node4"><a xlink:href="../../d2/d18/classparser_1_1_a_s_t_block_node.html" target="_top" xlink:title="parser::ASTBlockNode">
<polygon fill="white" stroke="black" points="85,-67.5 85,-86.5 202,-86.5 202,-67.5 85,-67.5"/>
<text text-anchor="middle" x="143.5" y="-74.5" font-family="Helvetica,sans-Serif" font-size="10.00">parser::ASTBlockNode</text>
</a>
</g>
</g>
<!-- Node2&#45;&gt;Node4 -->
<g id="edge4" class="edge"><title>Node2&#45;&gt;Node4</title>
<path fill="none" stroke="midnightblue" d="M88.5632,-118.287C102.305,-108.21 120.066,-95.1851 131.616,-86.7149"/>
<polygon fill="midnightblue" stroke="midnightblue" points="86.213,-115.67 80.2188,-124.406 90.3526,-121.315 86.213,-115.67"/>
</g>
<!-- Node3 -->
<g id="node3" class="node"><title>Node3</title>
<g id="a_node3"><a xlink:href="../../db/df3/classparser_1_1_a_s_t_node.html" target="_top" xlink:title="parser::ASTNode">
<polygon fill="white" stroke="black" points="22.5,-181.5 22.5,-200.5 114.5,-200.5 114.5,-181.5 22.5,-181.5"/>
<text text-anchor="middle" x="68.5" y="-188.5" font-family="Helvetica,sans-Serif" font-size="10.00">parser::ASTNode</text>
</a>
</g>
</g>
<!-- Node3&#45;&gt;Node2 -->
<g id="edge2" class="edge"><title>Node3&#45;&gt;Node2</title>
<path fill="none" stroke="midnightblue" d="M68.5,-171.117C68.5,-161.817 68.5,-151.056 68.5,-143.715"/>
<polygon fill="midnightblue" stroke="midnightblue" points="65.0001,-171.406 68.5,-181.406 72.0001,-171.406 65.0001,-171.406"/>
</g>
<!-- Node4&#45;&gt;Node1 -->
<g id="edge3" class="edge"><title>Node4&#45;&gt;Node1</title>
<path fill="none" stroke="#9a32cd" stroke-dasharray="5,2" d="M129.149,-59.6348C118.002,-46.9228 102.984,-29.7978 94.0655,-19.6273"/>
<polygon fill="#9a32cd" stroke="#9a32cd" points="126.588,-62.0228 135.813,-67.2338 131.851,-57.4075 126.588,-62.0228"/>
<text text-anchor="middle" x="131" y="-41" font-family="Helvetica,sans-Serif" font-size="10.00"> block</text>
</g>
</g>
</svg>
