<?xml version="1.0" encoding="UTF-8" standalone="no"?>
<!DOCTYPE svg PUBLIC "-//W3C//DTD SVG 1.1//EN"
 "http://www.w3.org/Graphics/SVG/1.1/DTD/svg11.dtd">
<!-- Generated by graphviz version 2.38.0 (20140413.2041)
 -->
<!-- Title: parser::ASTPrintNode Pages: 1 -->
<svg width="276pt" height="152pt"
 viewBox="0.00 0.00 276.00 152.00" xmlns="http://www.w3.org/2000/svg" xmlns:xlink="http://www.w3.org/1999/xlink">
<g id="graph0" class="graph" transform="scale(1 1) rotate(0) translate(4 148)">
<title>parser::ASTPrintNode</title>
<polygon fill="white" stroke="none" points="-4,4 -4,-148 272,-148 272,4 -4,4"/>
<!-- Node1 -->
<g id="node1" class="node"><title>Node1</title>
<polygon fill="#bfbfbf" stroke="black" points="55,-0.5 55,-19.5 168,-19.5 168,-0.5 55,-0.5"/>
<text text-anchor="middle" x="111.5" y="-7.5" font-family="Helvetica,sans-Serif" font-size="10.00">parser::ASTPrintNode</text>
</g>
<!-- Node2 -->
<g id="node2" class="node"><title>Node2</title>
<g id="a_node2"><a xlink:href="../../d6/d89/classparser_1_1_a_s_t_statement_node.html" target="_top" xlink:title="parser::ASTStatementNode">
<polygon fill="white" stroke="black" points="0,-67.5 0,-86.5 137,-86.5 137,-67.5 0,-67.5"/>
<text text-anchor="middle" x="68.5" y="-74.5" font-family="Helvetica,sans-Serif" font-size="10.00">parser::ASTStatementNode</text>
</a>
</g>
</g>
<!-- Node2&#45;&gt;Node1 -->
<g id="edge1" class="edge"><title>Node2&#45;&gt;Node1</title>
<path fill="none" stroke="midnightblue" d="M80.054,-58.5347C88.3793,-45.9499 99.2568,-29.5072 105.793,-19.6273"/>
<polygon fill="midnightblue" stroke="midnightblue" points="76.8975,-56.9625 74.2992,-67.2338 82.7356,-60.8247 76.8975,-56.9625"/>
</g>
<!-- Node3 -->
<g id="node3" class="node"><title>Node3</title>
<g id="a_node3"><a xlink:href="../../db/df3/classparser_1_1_a_s_t_node.html" target="_top" xlink:title="parser::ASTNode">
<polygon fill="white" stroke="black" points="108.5,-124.5 108.5,-143.5 200.5,-143.5 200.5,-124.5 108.5,-124.5"/>
<text text-anchor="middle" x="154.5" y="-131.5" font-family="Helvetica,sans-Serif" font-size="10.00">parser::ASTNode</text>
</a>
</g>
</g>
<!-- Node3&#45;&gt;Node2 -->
<g id="edge2" class="edge"><title>Node3&#45;&gt;Node2</title>
<path fill="none" stroke="midnightblue" d="M132.335,-118.824C116.355,-108.605 95.3137,-95.1483 81.8431,-86.5334"/>
<polygon fill="midnightblue" stroke="midnightblue" points="130.752,-121.967 141.062,-124.406 134.524,-116.07 130.752,-121.967"/>
</g>
<!-- Node4 -->
<g id="node4" class="node"><title>Node4</title>
<g id="a_node4"><a xlink:href="../../da/d6d/classparser_1_1_a_s_t_expr_node.html" target="_top" xlink:title="parser::ASTExprNode">
<polygon fill="white" stroke="black" points="155,-67.5 155,-86.5 268,-86.5 268,-67.5 155,-67.5"/>
<text text-anchor="middle" x="211.5" y="-74.5" font-family="Helvetica,sans-Serif" font-size="10.00">parser::ASTExprNode</text>
</a>
</g>
</g>
<!-- Node3&#45;&gt;Node4 -->
<g id="edge4" class="edge"><title>Node3&#45;&gt;Node4</title>
<path fill="none" stroke="midnightblue" d="M170.651,-117.416C180.959,-107.469 193.941,-94.9431 202.468,-86.7149"/>
<polygon fill="midnightblue" stroke="midnightblue" points="168.172,-114.944 163.406,-124.406 173.033,-119.981 168.172,-114.944"/>
</g>
<!-- Node4&#45;&gt;Node1 -->
<g id="edge3" class="edge"><title>Node4&#45;&gt;Node1</title>
<path fill="none" stroke="#9a32cd" stroke-dasharray="5,2" d="M189.606,-61.7687C169.812,-48.9026 141.314,-30.379 124.773,-19.6273"/>
<polygon fill="#9a32cd" stroke="#9a32cd" points="187.722,-64.7184 198.014,-67.2338 191.537,-58.8493 187.722,-64.7184"/>
<text text-anchor="middle" x="177.5" y="-41" font-family="Helvetica,sans-Serif" font-size="10.00"> expr</text>
</g>
</g>
</svg>
