<?xml version="1.0" encoding="UTF-8" standalone="no"?>
<!DOCTYPE svg PUBLIC "-//W3C//DTD SVG 1.1//EN"
 "http://www.w3.org/Graphics/SVG/1.1/DTD/svg11.dtd">
<!-- Generated by graphviz version 2.38.0 (20140413.2041)
 -->
<!-- Title: parser::ASTUnaryExprNode Pages: 1 -->
<svg width="147pt" height="152pt"
 viewBox="0.00 0.00 147.00 152.00" xmlns="http://www.w3.org/2000/svg" xmlns:xlink="http://www.w3.org/1999/xlink">
<g id="graph0" class="graph" transform="scale(1 1) rotate(0) translate(4 148)">
<title>parser::ASTUnaryExprNode</title>
<polygon fill="white" stroke="none" points="-4,4 -4,-148 143,-148 143,4 -4,4"/>
<!-- Node1 -->
<g id="node1" class="node"><title>Node1</title>
<polygon fill="#bfbfbf" stroke="black" points="0,-0.5 0,-19.5 139,-19.5 139,-0.5 0,-0.5"/>
<text text-anchor="middle" x="69.5" y="-7.5" font-family="Helvetica,sans-Serif" font-size="10.00">parser::ASTUnaryExprNode</text>
</g>
<!-- Node2 -->
<g id="node2" class="node"><title>Node2</title>
<g id="a_node2"><a xlink:href="../../da/d6d/classparser_1_1_a_s_t_expr_node.html" target="_top" xlink:title="parser::ASTExprNode">
<polygon fill="white" stroke="black" points="13,-67.5 13,-86.5 126,-86.5 126,-67.5 13,-67.5"/>
<text text-anchor="middle" x="69.5" y="-74.5" font-family="Helvetica,sans-Serif" font-size="10.00">parser::ASTExprNode</text>
</a>
</g>
</g>
<!-- Node2&#45;&gt;Node1 -->
<g id="edge1" class="edge"><title>Node2&#45;&gt;Node1</title>
<path fill="none" stroke="midnightblue" d="M67.9399,-57.3825C67.7572,-54.5753 67.6003,-51.7126 67.5,-49 67.1288,-38.9652 67.9035,-27.4502 68.5942,-19.7505"/>
<polygon fill="midnightblue" stroke="midnightblue" points="64.4607,-57.7906 68.7083,-67.4967 71.4406,-57.2602 64.4607,-57.7906"/>
</g>
<!-- Node2&#45;&gt;Node1 -->
<g id="edge3" class="edge"><title>Node2&#45;&gt;Node1</title>
<path fill="none" stroke="#9a32cd" stroke-dasharray="5,2" d="M69.5,-57.037C69.5,-44.6703 69.5,-29.1198 69.5,-19.6273"/>
<polygon fill="#9a32cd" stroke="#9a32cd" points="66.0001,-57.2338 69.5,-67.2338 73.0001,-57.2338 66.0001,-57.2338"/>
<text text-anchor="middle" x="80.5" y="-41" font-family="Helvetica,sans-Serif" font-size="10.00"> expr</text>
</g>
<!-- Node3 -->
<g id="node3" class="node"><title>Node3</title>
<g id="a_node3"><a xlink:href="../../db/df3/classparser_1_1_a_s_t_node.html" target="_top" xlink:title="parser::ASTNode">
<polygon fill="white" stroke="black" points="23.5,-124.5 23.5,-143.5 115.5,-143.5 115.5,-124.5 23.5,-124.5"/>
<text text-anchor="middle" x="69.5" y="-131.5" font-family="Helvetica,sans-Serif" font-size="10.00">parser::ASTNode</text>
</a>
</g>
</g>
<!-- Node3&#45;&gt;Node2 -->
<g id="edge2" class="edge"><title>Node3&#45;&gt;Node2</title>
<path fill="none" stroke="midnightblue" d="M69.5,-114.117C69.5,-104.817 69.5,-94.0557 69.5,-86.7149"/>
<polygon fill="midnightblue" stroke="midnightblue" points="66.0001,-114.406 69.5,-124.406 73.0001,-114.406 66.0001,-114.406"/>
</g>
</g>
</svg>
