<?xml version="1.0" encoding="UTF-8" standalone="no"?>
<!DOCTYPE svg PUBLIC "-//W3C//DTD SVG 1.1//EN"
 "http://www.w3.org/Graphics/SVG/1.1/DTD/svg11.dtd">
<!-- Generated by graphviz version 2.38.0 (20140413.2041)
 -->
<!-- Title: parser::ASTIfNode Pages: 1 -->
<svg width="230pt" height="239pt"
 viewBox="0.00 0.00 230.31 239.00" xmlns="http://www.w3.org/2000/svg" xmlns:xlink="http://www.w3.org/1999/xlink">
<g id="graph0" class="graph" transform="scale(1 1) rotate(0) translate(4 235)">
<title>parser::ASTIfNode</title>
<polygon fill="white" stroke="none" points="-4,4 -4,-235 226.307,-235 226.307,4 -4,4"/>
<!-- Node1 -->
<g id="node1" class="node"><title>Node1</title>
<polygon fill="#bfbfbf" stroke="black" points="21.8073,-0.5 21.8073,-19.5 119.807,-19.5 119.807,-0.5 21.8073,-0.5"/>
<text text-anchor="middle" x="70.8073" y="-7.5" font-family="Helvetica,sans-Serif" font-size="10.00">parser::ASTIfNode</text>
</g>
<!-- Node2 -->
<g id="node2" class="node"><title>Node2</title>
<g id="a_node2"><a xlink:href="../../d6/d89/classparser_1_1_a_s_t_statement_node.html" target="_top" xlink:title="parser::ASTStatementNode">
<polygon fill="white" stroke="black" points="0.307284,-154.5 0.307284,-173.5 137.307,-173.5 137.307,-154.5 0.307284,-154.5"/>
<text text-anchor="middle" x="68.8073" y="-161.5" font-family="Helvetica,sans-Serif" font-size="10.00">parser::ASTStatementNode</text>
</a>
</g>
</g>
<!-- Node2&#45;&gt;Node1 -->
<g id="edge1" class="edge"><title>Node2&#45;&gt;Node1</title>
<path fill="none" stroke="midnightblue" d="M44.7968,-148.92C21.4066,-133.213 -9.02615,-106.272 2.80728,-78 13.7495,-51.8573 40.414,-30.7454 56.9146,-19.6079"/>
<polygon fill="midnightblue" stroke="midnightblue" points="43.0039,-151.928 53.3137,-154.37 46.7765,-146.032 43.0039,-151.928"/>
</g>
<!-- Node5 -->
<g id="node5" class="node"><title>Node5</title>
<g id="a_node5"><a xlink:href="../../d2/d18/classparser_1_1_a_s_t_block_node.html" target="_top" xlink:title="parser::ASTBlockNode">
<polygon fill="white" stroke="black" points="12.3073,-78.5 12.3073,-97.5 129.307,-97.5 129.307,-78.5 12.3073,-78.5"/>
<text text-anchor="middle" x="70.8073" y="-85.5" font-family="Helvetica,sans-Serif" font-size="10.00">parser::ASTBlockNode</text>
</a>
</g>
</g>
<!-- Node2&#45;&gt;Node5 -->
<g id="edge6" class="edge"><title>Node2&#45;&gt;Node5</title>
<path fill="none" stroke="midnightblue" d="M69.3188,-144.072C69.7213,-129.18 70.2637,-109.111 70.5703,-97.7679"/>
<polygon fill="midnightblue" stroke="midnightblue" points="65.8161,-144.13 69.0446,-154.221 72.8136,-144.319 65.8161,-144.13"/>
</g>
<!-- Node3 -->
<g id="node3" class="node"><title>Node3</title>
<g id="a_node3"><a xlink:href="../../db/df3/classparser_1_1_a_s_t_node.html" target="_top" xlink:title="parser::ASTNode">
<polygon fill="white" stroke="black" points="88.8073,-211.5 88.8073,-230.5 180.807,-230.5 180.807,-211.5 88.8073,-211.5"/>
<text text-anchor="middle" x="134.807" y="-218.5" font-family="Helvetica,sans-Serif" font-size="10.00">parser::ASTNode</text>
</a>
</g>
</g>
<!-- Node3&#45;&gt;Node2 -->
<g id="edge2" class="edge"><title>Node3&#45;&gt;Node2</title>
<path fill="none" stroke="midnightblue" d="M116.805,-204.998C104.762,-194.962 89.3326,-182.104 79.2652,-173.715"/>
<polygon fill="midnightblue" stroke="midnightblue" points="114.572,-207.693 124.495,-211.406 119.053,-202.316 114.572,-207.693"/>
</g>
<!-- Node4 -->
<g id="node4" class="node"><title>Node4</title>
<g id="a_node4"><a xlink:href="../../da/d6d/classparser_1_1_a_s_t_expr_node.html" target="_top" xlink:title="parser::ASTExprNode">
<polygon fill="white" stroke="black" points="109.307,-116.5 109.307,-135.5 222.307,-135.5 222.307,-116.5 109.307,-116.5"/>
<text text-anchor="middle" x="165.807" y="-123.5" font-family="Helvetica,sans-Serif" font-size="10.00">parser::ASTExprNode</text>
</a>
</g>
</g>
<!-- Node3&#45;&gt;Node4 -->
<g id="edge4" class="edge"><title>Node3&#45;&gt;Node4</title>
<path fill="none" stroke="midnightblue" d="M140.841,-201.899C147.505,-181.907 157.952,-150.565 162.953,-135.562"/>
<polygon fill="midnightblue" stroke="midnightblue" points="137.51,-200.824 137.668,-211.417 144.151,-203.037 137.51,-200.824"/>
</g>
<!-- Node4&#45;&gt;Node1 -->
<g id="edge3" class="edge"><title>Node4&#45;&gt;Node1</title>
<path fill="none" stroke="#9a32cd" stroke-dasharray="5,2" d="M160.249,-106.668C153.676,-87.5508 141.125,-57.6813 121.807,-38 114.018,-30.0636 103.395,-23.9335 93.8604,-19.5353"/>
<polygon fill="#9a32cd" stroke="#9a32cd" points="156.953,-107.85 163.362,-116.286 163.612,-105.695 156.953,-107.85"/>
<text text-anchor="middle" x="179.307" y="-85.5" font-family="Helvetica,sans-Serif" font-size="10.00"> condition</text>
</g>
<!-- Node5&#45;&gt;Node1 -->
<g id="edge5" class="edge"><title>Node5&#45;&gt;Node1</title>
<path fill="none" stroke="#9a32cd" stroke-dasharray="5,2" d="M70.8073,-68.2239C70.8073,-52.6974 70.8073,-31.3582 70.8073,-19.6165"/>
<polygon fill="#9a32cd" stroke="#9a32cd" points="67.3074,-68.2818 70.8073,-78.2818 74.3074,-68.2819 67.3074,-68.2818"/>
<text text-anchor="middle" x="94.3073" y="-52" font-family="Helvetica,sans-Serif" font-size="10.00"> if_block</text>
<text text-anchor="middle" x="94.3073" y="-41" font-family="Helvetica,sans-Serif" font-size="10.00">else_block</text>
</g>
</g>
</svg>
