<?xml version="1.0" encoding="UTF-8" standalone="no"?>
<!DOCTYPE svg PUBLIC "-//W3C//DTD SVG 1.1//EN"
 "http://www.w3.org/Graphics/SVG/1.1/DTD/svg11.dtd">
<!-- Generated by graphviz version 2.38.0 (20140413.2041)
 -->
<!-- Title: parser::ASTStatementNode Pages: 1 -->
<svg width="480pt" height="294pt"
 viewBox="0.00 0.00 480.00 294.00" xmlns="http://www.w3.org/2000/svg" xmlns:xlink="http://www.w3.org/1999/xlink">
<g id="graph0" class="graph" transform="scale(1 1) rotate(0) translate(4 290)">
<title>parser::ASTStatementNode</title>
<polygon fill="white" stroke="none" points="-4,4 -4,-290 476,-290 476,4 -4,4"/>
<!-- Node1 -->
<g id="node1" class="node"><title>Node1</title>
<polygon fill="#bfbfbf" stroke="black" points="128,-133.5 128,-152.5 265,-152.5 265,-133.5 128,-133.5"/>
<text text-anchor="middle" x="196.5" y="-140.5" font-family="Helvetica,sans-Serif" font-size="10.00">parser::ASTStatementNode</text>
</g>
<!-- Node3 -->
<g id="node3" class="node"><title>Node3</title>
<g id="a_node3"><a xlink:href="../../de/df0/classparser_1_1_a_s_t_assignment_node.html" target="_top" xlink:title="parser::ASTAssignmentNode">
<polygon fill="white" stroke="black" points="314.5,-266.5 314.5,-285.5 458.5,-285.5 458.5,-266.5 314.5,-266.5"/>
<text text-anchor="middle" x="386.5" y="-273.5" font-family="Helvetica,sans-Serif" font-size="10.00">parser::ASTAssignmentNode</text>
</a>
</g>
</g>
<!-- Node1&#45;&gt;Node3 -->
<g id="edge2" class="edge"><title>Node1&#45;&gt;Node3</title>
<path fill="none" stroke="midnightblue" d="M208.953,-161.531C225.818,-187.174 259.83,-233.021 301,-257 307.627,-260.86 314.966,-263.935 322.473,-266.387"/>
<polygon fill="midnightblue" stroke="midnightblue" points="211.69,-159.314 203.35,-152.78 205.795,-163.089 211.69,-159.314"/>
</g>
<!-- Node4 -->
<g id="node4" class="node"><title>Node4</title>
<g id="a_node4"><a xlink:href="../../d2/d18/classparser_1_1_a_s_t_block_node.html" target="_top" xlink:title="parser::ASTBlockNode">
<polygon fill="white" stroke="black" points="328,-228.5 328,-247.5 445,-247.5 445,-228.5 328,-228.5"/>
<text text-anchor="middle" x="386.5" y="-235.5" font-family="Helvetica,sans-Serif" font-size="10.00">parser::ASTBlockNode</text>
</a>
</g>
</g>
<!-- Node1&#45;&gt;Node4 -->
<g id="edge3" class="edge"><title>Node1&#45;&gt;Node4</title>
<path fill="none" stroke="midnightblue" d="M214.924,-159.363C234.406,-176.756 267.625,-203.804 301,-219 309.484,-222.863 318.816,-225.97 328.086,-228.459"/>
<polygon fill="midnightblue" stroke="midnightblue" points="217.205,-156.706 207.455,-152.562 212.493,-161.882 217.205,-156.706"/>
</g>
<!-- Node5 -->
<g id="node5" class="node"><title>Node5</title>
<g id="a_node5"><a xlink:href="../../d6/d68/classparser_1_1_a_s_t_declaration_node.html" target="_top" xlink:title="parser::ASTDeclarationNode">
<polygon fill="white" stroke="black" points="315.5,-190.5 315.5,-209.5 457.5,-209.5 457.5,-190.5 315.5,-190.5"/>
<text text-anchor="middle" x="386.5" y="-197.5" font-family="Helvetica,sans-Serif" font-size="10.00">parser::ASTDeclarationNode</text>
</a>
</g>
</g>
<!-- Node1&#45;&gt;Node5 -->
<g id="edge4" class="edge"><title>Node1&#45;&gt;Node5</title>
<path fill="none" stroke="midnightblue" d="M230.4,-156.331C250.56,-164.185 277.016,-173.934 301,-181 312.827,-184.485 325.747,-187.686 337.847,-190.429"/>
<polygon fill="midnightblue" stroke="midnightblue" points="231.635,-153.055 221.048,-152.648 229.07,-159.569 231.635,-153.055"/>
</g>
<!-- Node6 -->
<g id="node6" class="node"><title>Node6</title>
<g id="a_node6"><a xlink:href="../../d0/dae/classparser_1_1_a_s_t_function_definition_node.html" target="_top" xlink:title="parser::ASTFunctionDefinitionNode">
<polygon fill="white" stroke="black" points="301,-152.5 301,-171.5 472,-171.5 472,-152.5 301,-152.5"/>
<text text-anchor="middle" x="386.5" y="-159.5" font-family="Helvetica,sans-Serif" font-size="10.00">parser::ASTFunctionDefinitionNode</text>
</a>
</g>
</g>
<!-- Node1&#45;&gt;Node6 -->
<g id="edge5" class="edge"><title>Node1&#45;&gt;Node6</title>
<path fill="none" stroke="midnightblue" d="M275.275,-150.86C283.7,-151.712 292.304,-152.581 300.806,-153.44"/>
<polygon fill="midnightblue" stroke="midnightblue" points="275.408,-147.356 265.107,-149.833 274.704,-154.32 275.408,-147.356"/>
</g>
<!-- Node7 -->
<g id="node7" class="node"><title>Node7</title>
<g id="a_node7"><a xlink:href="../../da/dc5/classparser_1_1_a_s_t_if_node.html" target="_top" xlink:title="parser::ASTIfNode">
<polygon fill="white" stroke="black" points="337.5,-114.5 337.5,-133.5 435.5,-133.5 435.5,-114.5 337.5,-114.5"/>
<text text-anchor="middle" x="386.5" y="-121.5" font-family="Helvetica,sans-Serif" font-size="10.00">parser::ASTIfNode</text>
</a>
</g>
</g>
<!-- Node1&#45;&gt;Node7 -->
<g id="edge6" class="edge"><title>Node1&#45;&gt;Node7</title>
<path fill="none" stroke="midnightblue" d="M275.316,-135.136C296.333,-133.012 318.463,-130.775 337.331,-128.868"/>
<polygon fill="midnightblue" stroke="midnightblue" points="274.704,-131.68 265.107,-136.167 275.408,-138.644 274.704,-131.68"/>
</g>
<!-- Node8 -->
<g id="node8" class="node"><title>Node8</title>
<g id="a_node8"><a xlink:href="../../d8/d96/classparser_1_1_a_s_t_print_node.html" target="_top" xlink:title="parser::ASTPrintNode">
<polygon fill="white" stroke="black" points="330,-76.5 330,-95.5 443,-95.5 443,-76.5 330,-76.5"/>
<text text-anchor="middle" x="386.5" y="-83.5" font-family="Helvetica,sans-Serif" font-size="10.00">parser::ASTPrintNode</text>
</a>
</g>
</g>
<!-- Node1&#45;&gt;Node8 -->
<g id="edge7" class="edge"><title>Node1&#45;&gt;Node8</title>
<path fill="none" stroke="midnightblue" d="M230.4,-129.669C250.56,-121.815 277.016,-112.066 301,-105 312.827,-101.515 325.747,-98.3137 337.847,-95.5712"/>
<polygon fill="midnightblue" stroke="midnightblue" points="229.07,-126.431 221.048,-133.352 231.635,-132.945 229.07,-126.431"/>
</g>
<!-- Node9 -->
<g id="node9" class="node"><title>Node9</title>
<g id="a_node9"><a xlink:href="../../d2/d69/classparser_1_1_a_s_t_return_node.html" target="_top" xlink:title="parser::ASTReturnNode">
<polygon fill="white" stroke="black" points="325.5,-38.5 325.5,-57.5 447.5,-57.5 447.5,-38.5 325.5,-38.5"/>
<text text-anchor="middle" x="386.5" y="-45.5" font-family="Helvetica,sans-Serif" font-size="10.00">parser::ASTReturnNode</text>
</a>
</g>
</g>
<!-- Node1&#45;&gt;Node9 -->
<g id="edge8" class="edge"><title>Node1&#45;&gt;Node9</title>
<path fill="none" stroke="midnightblue" d="M214.924,-126.637C234.406,-109.244 267.625,-82.1965 301,-67 309.484,-63.1368 318.816,-60.0304 328.086,-57.5408"/>
<polygon fill="midnightblue" stroke="midnightblue" points="212.493,-124.118 207.455,-133.438 217.205,-129.294 212.493,-124.118"/>
</g>
<!-- Node10 -->
<g id="node10" class="node"><title>Node10</title>
<g id="a_node10"><a xlink:href="../../da/d5a/classparser_1_1_a_s_t_while_node.html" target="_top" xlink:title="parser::ASTWhileNode">
<polygon fill="white" stroke="black" points="328,-0.5 328,-19.5 445,-19.5 445,-0.5 328,-0.5"/>
<text text-anchor="middle" x="386.5" y="-7.5" font-family="Helvetica,sans-Serif" font-size="10.00">parser::ASTWhileNode</text>
</a>
</g>
</g>
<!-- Node1&#45;&gt;Node10 -->
<g id="edge9" class="edge"><title>Node1&#45;&gt;Node10</title>
<path fill="none" stroke="midnightblue" d="M208.953,-124.469C225.818,-98.8262 259.83,-52.9789 301,-29 309.186,-24.2323 318.46,-20.6606 327.791,-17.9849"/>
<polygon fill="midnightblue" stroke="midnightblue" points="205.795,-122.911 203.35,-133.22 211.69,-126.686 205.795,-122.911"/>
</g>
<!-- Node2 -->
<g id="node2" class="node"><title>Node2</title>
<g id="a_node2"><a xlink:href="../../db/df3/classparser_1_1_a_s_t_node.html" target="_top" xlink:title="parser::ASTNode">
<polygon fill="white" stroke="black" points="0,-133.5 0,-152.5 92,-152.5 92,-133.5 0,-133.5"/>
<text text-anchor="middle" x="46" y="-140.5" font-family="Helvetica,sans-Serif" font-size="10.00">parser::ASTNode</text>
</a>
</g>
</g>
<!-- Node2&#45;&gt;Node1 -->
<g id="edge1" class="edge"><title>Node2&#45;&gt;Node1</title>
<path fill="none" stroke="midnightblue" d="M102.633,-143C110.908,-143 119.513,-143 127.999,-143"/>
<polygon fill="midnightblue" stroke="midnightblue" points="102.362,-139.5 92.3618,-143 102.362,-146.5 102.362,-139.5"/>
</g>
</g>
</svg>
