<?xml version="1.0" encoding="UTF-8" standalone="no"?>
<!DOCTYPE svg PUBLIC "-//W3C//DTD SVG 1.1//EN"
 "http://www.w3.org/Graphics/SVG/1.1/DTD/svg11.dtd">
<!-- Generated by graphviz version 2.38.0 (20140413.2041)
 -->
<!-- Title: parser::ASTExprNode Pages: 1 -->
<svg width="432pt" height="180pt"
 viewBox="0.00 0.00 432.00 180.00" xmlns="http://www.w3.org/2000/svg" xmlns:xlink="http://www.w3.org/1999/xlink">
<g id="graph0" class="graph" transform="scale(1 1) rotate(0) translate(4 176)">
<title>parser::ASTExprNode</title>
<polygon fill="white" stroke="none" points="-4,4 -4,-176 428,-176 428,4 -4,4"/>
<!-- Node1 -->
<g id="node1" class="node"><title>Node1</title>
<polygon fill="#bfbfbf" stroke="black" points="128,-76.5 128,-95.5 241,-95.5 241,-76.5 128,-76.5"/>
<text text-anchor="middle" x="184.5" y="-83.5" font-family="Helvetica,sans-Serif" font-size="10.00">parser::ASTExprNode</text>
</g>
<!-- Node3 -->
<g id="node3" class="node"><title>Node3</title>
<g id="a_node3"><a xlink:href="../../df/d07/classparser_1_1_a_s_t_binary_expr_node.html" target="_top" xlink:title="parser::ASTBinaryExprNode">
<polygon fill="white" stroke="black" points="280.5,-152.5 280.5,-171.5 420.5,-171.5 420.5,-152.5 280.5,-152.5"/>
<text text-anchor="middle" x="350.5" y="-159.5" font-family="Helvetica,sans-Serif" font-size="10.00">parser::ASTBinaryExprNode</text>
</a>
</g>
</g>
<!-- Node1&#45;&gt;Node3 -->
<g id="edge2" class="edge"><title>Node1&#45;&gt;Node3</title>
<path fill="none" stroke="midnightblue" d="M206.661,-101.762C224.585,-114.463 251.385,-131.967 277,-143 285.604,-146.706 295.104,-149.831 304.314,-152.407"/>
<polygon fill="midnightblue" stroke="midnightblue" points="208.306,-98.6328 198.15,-95.6168 204.209,-104.308 208.306,-98.6328"/>
</g>
<!-- Node4 -->
<g id="node4" class="node"><title>Node4</title>
<g id="a_node4"><a xlink:href="../../d5/de6/classparser_1_1_a_s_t_function_call_node.html" target="_top" xlink:title="parser::ASTFunctionCallNode">
<polygon fill="white" stroke="black" points="277,-114.5 277,-133.5 424,-133.5 424,-114.5 277,-114.5"/>
<text text-anchor="middle" x="350.5" y="-121.5" font-family="Helvetica,sans-Serif" font-size="10.00">parser::ASTFunctionCallNode</text>
</a>
</g>
</g>
<!-- Node1&#45;&gt;Node4 -->
<g id="edge3" class="edge"><title>Node1&#45;&gt;Node4</title>
<path fill="none" stroke="midnightblue" d="M236.841,-97.8961C259.893,-103.237 286.721,-109.454 308.413,-114.48"/>
<polygon fill="midnightblue" stroke="midnightblue" points="237.416,-94.4367 226.884,-95.589 235.836,-101.256 237.416,-94.4367"/>
</g>
<!-- Node5 -->
<g id="node5" class="node"><title>Node5</title>
<g id="a_node5"><a xlink:href="../../dc/db0/classparser_1_1_a_s_t_identifier_node.html" target="_top" xlink:title="parser::ASTIdentifierNode">
<polygon fill="white" stroke="black" points="285.5,-76.5 285.5,-95.5 415.5,-95.5 415.5,-76.5 285.5,-76.5"/>
<text text-anchor="middle" x="350.5" y="-83.5" font-family="Helvetica,sans-Serif" font-size="10.00">parser::ASTIdentifierNode</text>
</a>
</g>
</g>
<!-- Node1&#45;&gt;Node5 -->
<g id="edge4" class="edge"><title>Node1&#45;&gt;Node5</title>
<path fill="none" stroke="midnightblue" d="M251.19,-86C262.419,-86 274.073,-86 285.264,-86"/>
<polygon fill="midnightblue" stroke="midnightblue" points="251.023,-82.5001 241.023,-86 251.023,-89.5001 251.023,-82.5001"/>
</g>
<!-- Node6 -->
<g id="node6" class="node"><title>Node6</title>
<g id="a_node6"><a xlink:href="../../d4/d9a/classparser_1_1_a_s_t_literal_node.html" target="_top" xlink:title="parser::ASTLiteralNode\&lt; T \&gt;">
<polygon fill="white" stroke="black" points="279,-38.5 279,-57.5 422,-57.5 422,-38.5 279,-38.5"/>
<text text-anchor="middle" x="350.5" y="-45.5" font-family="Helvetica,sans-Serif" font-size="10.00">parser::ASTLiteralNode&lt; T &gt;</text>
</a>
</g>
</g>
<!-- Node1&#45;&gt;Node6 -->
<g id="edge5" class="edge"><title>Node1&#45;&gt;Node6</title>
<path fill="none" stroke="midnightblue" d="M236.841,-74.1039C259.893,-68.7626 286.721,-62.5463 308.413,-57.5201"/>
<polygon fill="midnightblue" stroke="midnightblue" points="235.836,-70.744 226.884,-76.411 237.416,-77.5633 235.836,-70.744"/>
</g>
<!-- Node7 -->
<g id="node7" class="node"><title>Node7</title>
<g id="a_node7"><a xlink:href="../../dc/d52/classparser_1_1_a_s_t_unary_expr_node.html" target="_top" xlink:title="parser::ASTUnaryExprNode">
<polygon fill="white" stroke="black" points="281,-0.5 281,-19.5 420,-19.5 420,-0.5 281,-0.5"/>
<text text-anchor="middle" x="350.5" y="-7.5" font-family="Helvetica,sans-Serif" font-size="10.00">parser::ASTUnaryExprNode</text>
</a>
</g>
</g>
<!-- Node1&#45;&gt;Node7 -->
<g id="edge6" class="edge"><title>Node1&#45;&gt;Node7</title>
<path fill="none" stroke="midnightblue" d="M206.661,-70.2383C224.585,-57.5366 251.385,-40.0334 277,-29 285.604,-25.2939 295.104,-22.1695 304.314,-19.5928"/>
<polygon fill="midnightblue" stroke="midnightblue" points="204.209,-67.6918 198.15,-76.3832 208.306,-73.3672 204.209,-67.6918"/>
</g>
<!-- Node2 -->
<g id="node2" class="node"><title>Node2</title>
<g id="a_node2"><a xlink:href="../../db/df3/classparser_1_1_a_s_t_node.html" target="_top" xlink:title="parser::ASTNode">
<polygon fill="white" stroke="black" points="0,-76.5 0,-95.5 92,-95.5 92,-76.5 0,-76.5"/>
<text text-anchor="middle" x="46" y="-83.5" font-family="Helvetica,sans-Serif" font-size="10.00">parser::ASTNode</text>
</a>
</g>
</g>
<!-- Node2&#45;&gt;Node1 -->
<g id="edge1" class="edge"><title>Node2&#45;&gt;Node1</title>
<path fill="none" stroke="midnightblue" d="M102.112,-86C110.483,-86 119.128,-86 127.517,-86"/>
<polygon fill="midnightblue" stroke="midnightblue" points="102.074,-82.5001 92.0735,-86 102.073,-89.5001 102.074,-82.5001"/>
</g>
</g>
</svg>
